Truculenta-Black.ufo
<glyph name="exclam" format="2">
  <advance width="294"/>
  <unicode hex="0021"/>
  <outline>
    <contour>
      <point x="103" y="230" type="curve"/>
      <point x="184" y="232" type="line"/>
      <point x="188" y="353"/>
      <point x="190" y="409"/>
      <point x="195" y="478" type="curve" smooth="yes"/>
      <point x="202" y="563"/>
      <point x="203" y="589"/>
      <point x="214" y="711" type="curve"/>
      <point x="80" y="704" type="line"/>
      <point x="86" y="597"/>
      <point x="89" y="553"/>
      <point x="92" y="485" type="curve" smooth="yes"/>
      <point x="95" y="414"/>
      <point x="99" y="339"/>
    </contour>
    <contour>
      <point x="206" y="0" type="line"/>
      <point x="196" y="171" type="line"/>
      <point x="88" y="169" type="line"/>
      <point x="84" y="0" type="line"/>
    </contour>
  </outline>
</glyph>
<glyph name="quotedbl" format="2">
  <advance width="460"/>
  <unicode hex="0022"/>
  <outline>
    <contour>
      <point x="245" y="494" type="curve"/>
      <point x="349" y="502" type="line"/>
      <point x="349" y="497"/>
      <point x="358" y="573"/>
      <point x="366" y="614" type="curve" smooth="yes"/>
      <point x="375" y="655"/>
      <point x="386" y="700"/>
      <point x="385" y="697" type="curve"/>
      <point x="251" y="702" type="line"/>
      <point x="251" y="705"/>
      <point x="251" y="657"/>
      <point x="249" y="606" type="curve" smooth="yes"/>
      <point x="247" y="548"/>
      <point x="245" y="491"/>
    </contour>
    <contour>
      <point x="87" y="489" type="curve"/>
      <point x="191" y="505" type="line"/>
      <point x="190" y="501"/>
      <point x="193" y="578"/>
      <point x="197" y="619" type="curve" smooth="yes"/>
      <point x="201" y="660"/>
      <point x="209" y="706"/>
      <point x="209" y="704" type="curve"/>
      <point x="75" y="697" type="line"/>
      <point x="75" y="699"/>
      <point x="80" y="652"/>
      <point x="82" y="601" type="curve" smooth="yes"/>
      <point x="84" y="544"/>
      <point x="88" y="486"/>
    </contour>
  </outline>
</glyph>
<glyph name="numbersign" format="2">
  <advance width="805"/>
  <unicode hex="0023"/>
  <outline>
    <contour>
      <point x="108" y="3" type="line"/>
      <point x="244" y="0" type="line"/>
      <point x="326" y="369" type="line"/>
      <point x="407" y="696" type="line"/>
      <point x="273" y="699" type="line"/>
      <point x="208" y="390" type="line"/>
    </contour>
    <contour>
      <point x="55" y="140" type="line"/>
      <point x="148" y="142"/>
      <point x="272" y="145"/>
      <point x="396" y="144" type="curve" smooth="yes"/>
      <point x="525" y="143"/>
      <point x="610" y="144"/>
      <point x="704" y="142" type="curve"/>
      <point x="699" y="260" type="line"/>
      <point x="605" y="258"/>
      <point x="520" y="257"/>
      <point x="399" y="257" type="curve" smooth="yes"/>
      <point x="284" y="257"/>
      <point x="150" y="258"/>
      <point x="57" y="260" type="curve"/>
    </contour>
    <contour>
      <point x="392" y="2" type="line"/>
      <point x="528" y="-2" type="line"/>
      <point x="607" y="358" type="line"/>
      <point x="688" y="682" type="line"/>
      <point x="554" y="690" type="line"/>
      <point x="492" y="390" type="line"/>
    </contour>
    <contour>
      <point x="105" y="427" type="line"/>
      <point x="198" y="428"/>
      <point x="323" y="432"/>
      <point x="447" y="431" type="curve" smooth="yes"/>
      <point x="575" y="430"/>
      <point x="645" y="430"/>
      <point x="750" y="428" type="curve"/>
      <point x="750" y="547" type="line"/>
      <point x="646" y="544"/>
      <point x="570" y="544"/>
      <point x="449" y="544" type="curve" smooth="yes"/>
      <point x="334" y="544"/>
      <point x="189" y="546"/>
      <point x="96" y="547" type="curve"/>
    </contour>
  </outline>
</glyph>
<glyph name="dollar" format="2">
  <advance width="500"/>
  <unicode hex="0024"/>
  <outline>
    <contour>
      <point x="245" y="-10" type="curve" smooth="yes"/>
      <point x="403" y="-10"/>
      <point x="463" y="74"/>
      <point x="463" y="164" type="curve" smooth="yes"/>
      <point x="463" y="288"/>
      <point x="370" y="332"/>
      <point x="278" y="375" type="curve" smooth="yes"/>
      <point x="213" y="405"/>
      <point x="175" y="432"/>
      <point x="175" y="501" type="curve" smooth="yes"/>
      <point x="175" y="559"/>
      <point x="196" y="598"/>
      <point x="248" y="598" type="curve" smooth="yes"/>
      <point x="301" y="598"/>
      <point x="317" y="559"/>
      <point x="317" y="491" type="curve" smooth="yes"/>
      <point x="317" y="464"/>
      <point x="315" y="432"/>
      <point x="311" y="396" type="curve"/>
      <point x="454" y="396" type="line"/>
      <point x="460" y="432"/>
      <point x="464" y="465"/>
      <point x="464" y="495" type="curve" smooth="yes"/>
      <point x="464" y="624"/>
      <point x="403" y="705"/>
      <point x="253" y="705" type="curve" smooth="yes"/>
      <point x="96" y="705"/>
      <point x="33" y="610"/>
      <point x="33" y="493" type="curve" smooth="yes"/>
      <point x="33" y="353"/>
      <point x="120" y="294"/>
      <point x="210" y="252" type="curve" smooth="yes"/>
      <point x="279" y="220"/>
      <point x="320" y="207"/>
      <point x="320" y="159" type="curve" smooth="yes"/>
      <point x="320" y="123"/>
      <point x="301" y="95"/>
      <point x="241" y="95" type="curve" smooth="yes"/>
      <point x="197" y="95"/>
      <point x="168" y="124"/>
      <point x="168" y="175" type="curve" smooth="yes"/>
      <point x="168" y="191"/>
      <point x="171" y="210"/>
      <point x="178" y="231" type="curve"/>
      <point x="43" y="231" type="line"/>
      <point x="38" y="209"/>
      <point x="35" y="187"/>
      <point x="35" y="167" type="curve" smooth="yes"/>
      <point x="35" y="61"/>
      <point x="107" y="-10"/>
    </contour>
    <contour>
      <point x="287" y="-110" type="line"/>
      <point x="281" y="4"/>
      <point x="278" y="159"/>
      <point x="278" y="311" type="curve" smooth="yes"/>
      <point x="278" y="462"/>
      <point x="284" y="692"/>
      <point x="291" y="796" type="curve"/>
      <point x="219" y="800" type="line"/>
      <point x="220" y="716"/>
      <point x="222" y="549"/>
      <point x="222" y="322" type="curve" smooth="yes"/>
      <point x="222" y="96"/>
      <point x="220" y="-22"/>
      <point x="215" y="-109" type="curve"/>
    </contour>
  </outline>
</glyph>
<glyph name="ampersand" format="2">
  <advance width="538"/>
  <unicode hex="0026"/>
  <outline>
    <contour>
      <point x="223" y="-10" type="curve" smooth="yes"/>
      <point x="436" y="-10"/>
      <point x="511" y="178"/>
      <point x="511" y="380" type="curve"/>
      <point x="391" y="392" type="line"/>
      <point x="392" y="190"/>
      <point x="329" y="89"/>
      <point x="227" y="89" type="curve" smooth="yes"/>
      <point x="183" y="89"/>
      <point x="140" y="114"/>
      <point x="140" y="180" type="curve" smooth="yes"/>
      <point x="140" y="238"/>
      <point x="166" y="266"/>
      <point x="222" y="306" type="curve" smooth="yes"/>
      <point x="325" y="379"/>
      <point x="416" y="448"/>
      <point x="416" y="574" type="curve" smooth="yes"/>
      <point x="416" y="665"/>
      <point x="348" y="712"/>
      <point x="254" y="712" type="curve" smooth="yes"/>
      <point x="152" y="712"/>
      <point x="72" y="658"/>
      <point x="72" y="540" type="curve" smooth="yes"/>
      <point x="72" y="405"/>
      <point x="178" y="275"/>
      <point x="314" y="74" type="curve" smooth="yes"/>
      <point x="360" y="7"/>
      <point x="424" y="-26"/>
      <point x="544" y="-8" type="curve"/>
      <point x="557" y="81" type="line"/>
      <point x="497" y="78"/>
      <point x="461" y="73"/>
      <point x="410" y="148" type="curve" smooth="yes"/>
      <point x="280" y="339"/>
      <point x="205" y="426"/>
      <point x="205" y="549" type="curve" smooth="yes"/>
      <point x="205" y="596"/>
      <point x="224" y="612"/>
      <point x="244" y="612" type="curve" smooth="yes"/>
      <point x="264" y="612"/>
      <point x="277" y="596"/>
      <point x="277" y="564" type="curve" smooth="yes"/>
      <point x="277" y="478"/>
      <point x="239" y="448"/>
      <point x="153" y="395" type="curve" smooth="yes"/>
      <point x="83" y="352"/>
      <point x="0" y="306"/>
      <point x="0" y="180" type="curve" smooth="yes"/>
      <point x="0" y="56"/>
      <point x="80" y="-10"/>
    </contour>
  </outline>
</glyph>
<glyph name="quotesingle" format="2">
  <advance width="284"/>
  <unicode hex="0027"/>
  <outline>
    <contour>
      <point x="87" y="489" type="curve"/>
      <point x="190" y="505" type="line"/>
      <point x="190" y="501"/>
      <point x="193" y="578"/>
      <point x="196" y="619" type="curve" smooth="yes"/>
      <point x="201" y="660"/>
      <point x="209" y="706"/>
      <point x="209" y="704" type="curve"/>
      <point x="75" y="697" type="line"/>
      <point x="74" y="699"/>
      <point x="80" y="652"/>
      <point x="82" y="601" type="curve" smooth="yes"/>
      <point x="84" y="544"/>
      <point x="87" y="486"/>
    </contour>
  </outline>
</glyph>
<glyph name="parenleft" format="2">
  <advance width="397"/>
  <unicode hex="0028"/>
  <outline>
    <contour>
      <point x="290" y="-162" type="curve"/>
      <point x="317" y="-63" type="line"/>
      <point x="216" y="-19"/>
      <point x="198" y="100"/>
      <point x="198" y="281" type="curve" smooth="yes"/>
      <point x="198" y="463"/>
      <point x="215" y="585"/>
      <point x="317" y="626" type="curve"/>
      <point x="290" y="725" type="line"/>
      <point x="160" y="699"/>
      <point x="72" y="578"/>
      <point x="72" y="281" type="curve" smooth="yes"/>
      <point x="72" y="-15"/>
      <point x="160" y="-136"/>
    </contour>
  </outline>
</glyph>
<glyph name="parenright" format="2">
  <advance width="397"/>
  <unicode hex="0029"/>
  <outline>
    <contour>
      <point x="107" y="725" type="curve"/>
      <point x="80" y="626" type="line"/>
      <point x="181" y="582"/>
      <point x="199" y="463"/>
      <point x="199" y="282" type="curve" smooth="yes"/>
      <point x="199" y="100"/>
      <point x="182" y="-22"/>
      <point x="80" y="-63" type="curve"/>
      <point x="107" y="-162" type="line"/>
      <point x="237" y="-136"/>
      <point x="325" y="-15"/>
      <point x="325" y="282" type="curve" smooth="yes"/>
      <point x="325" y="578"/>
      <point x="237" y="699"/>
    </contour>
  </outline>
</glyph>
<glyph name="asterisk" format="2">
  <advance width="589"/>
  <unicode hex="002A"/>
  <outline>
    <contour>
      <point x="424" y="404" type="curve"/>
      <point x="509" y="478" type="line"/>
      <point x="411" y="529"/>
      <point x="371" y="538"/>
      <point x="296" y="586" type="curve" smooth="yes"/>
      <point x="247" y="617"/>
      <point x="219" y="645"/>
      <point x="145" y="705" type="curve"/>
      <point x="80" y="617" type="line"/>
      <point x="75" y="619"/>
      <point x="210" y="555"/>
      <point x="264" y="524" type="curve" smooth="yes"/>
      <point x="315" y="496"/>
      <point x="428" y="401"/>
    </contour>
    <contour>
      <point x="133" y="389" type="line"/>
      <point x="128" y="385"/>
      <point x="265" y="494"/>
      <point x="316" y="524" type="curve" smooth="yes"/>
      <point x="370" y="556"/>
      <point x="495" y="613"/>
      <point x="491" y="611" type="curve"/>
      <point x="452" y="709" type="line"/>
      <point x="370" y="647"/>
      <point x="327" y="611"/>
      <point x="263" y="570" type="curve" smooth="yes"/>
      <point x="192" y="524"/>
      <point x="162" y="510"/>
      <point x="96" y="468" type="curve"/>
    </contour>
    <contour>
      <point x="348" y="336" type="line"/>
      <point x="348" y="331"/>
      <point x="328" y="494"/>
      <point x="328" y="562" type="curve" smooth="yes"/>
      <point x="328" y="632"/>
      <point x="346" y="756"/>
      <point x="346" y="752" type="curve"/>
      <point x="238" y="759" type="line"/>
      <point x="237" y="764"/>
      <point x="252" y="628"/>
      <point x="253" y="561" type="curve" smooth="yes"/>
      <point x="254" y="497"/>
      <point x="238" y="341"/>
      <point x="239" y="347" type="curve"/>
    </contour>
  </outline>
</glyph>
<glyph name="plus" format="2">
  <advance width="500"/>
  <unicode hex="002B"/>
  <outline>
    <contour>
      <point x="306" y="105" type="line"/>
      <point x="299" y="180"/>
      <point x="294" y="234"/>
      <point x="294" y="302" type="curve" smooth="yes"/>
      <point x="294" y="372"/>
      <point x="299" y="426"/>
      <point x="304" y="487" type="curve"/>
      <point x="193" y="480" type="line"/>
      <point x="196" y="415"/>
      <point x="200" y="369"/>
      <point x="201" y="301" type="curve" smooth="yes"/>
      <point x="202" y="237"/>
      <point x="198" y="178"/>
      <point x="194" y="98" type="curve"/>
    </contour>
    <contour>
      <point x="68" y="237" type="line"/>
      <point x="111" y="241"/>
      <point x="200" y="246"/>
      <point x="261" y="246" type="curve" smooth="yes"/>
      <point x="323" y="246"/>
      <point x="417" y="238"/>
      <point x="415" y="238" type="curve"/>
      <point x="432" y="345" type="line"/>
      <point x="376" y="341"/>
      <point x="319" y="339"/>
      <point x="260" y="338" type="curve" smooth="yes"/>
      <point x="203" y="336"/>
      <point x="105" y="341"/>
      <point x="74" y="342" type="curve"/>
    </contour>
  </outline>
</glyph>
<glyph name="comma" format="2">
  <advance width="278"/>
  <unicode hex="002C"/>
  <outline>
    <contour>
      <point x="139" y="-159" type="line"/>
      <point x="189" y="-109"/>
      <point x="198" y="-52"/>
      <point x="198" y="19" type="curve" smooth="yes"/>
      <point x="198" y="172" type="line"/>
      <point x="80" y="165" type="line"/>
      <point x="82" y="4" type="line"/>
      <point x="135" y="1" type="line"/>
      <point x="135" y="-40"/>
      <point x="129" y="-79"/>
      <point x="90" y="-125" type="curve"/>
    </contour>
  </outline>
</glyph>
<glyph name="period" format="2">
  <advance width="282"/>
  <unicode hex="002E"/>
  <outline>
    <contour>
      <point x="202" y="0" type="line"/>
      <point x="201" y="180" type="line"/>
      <point x="80" y="173" type="line"/>
      <point x="83" y="0" type="line"/>
    </contour>
  </outline>
</glyph>
<glyph name="slash" format="2">
  <advance width="392"/>
  <unicode hex="002F"/>
  <outline>
    <contour>
      <point x="25" y="-1" type="curve"/>
      <point x="152" y="0" type="line"/>
      <point x="186" y="119"/>
      <point x="223" y="236"/>
      <point x="265" y="366" type="curve" smooth="yes"/>
      <point x="306" y="492"/>
      <point x="335" y="597"/>
      <point x="367" y="698" type="curve"/>
      <point x="238" y="700" type="line"/>
      <point x="211" y="579"/>
      <point x="185" y="483"/>
      <point x="148" y="367" type="curve" smooth="yes"/>
      <point x="108" y="241"/>
      <point x="73" y="128"/>
    </contour>
  </outline>
</glyph>
<glyph name="zero" format="2">
  <advance width="522"/>
  <unicode hex="0030"/>
  <outline>
    <contour>
      <point x="252" y="-10" type="curve" smooth="yes"/>
      <point x="437" y="-10"/>
      <point x="478" y="162"/>
      <point x="478" y="342" type="curve" smooth="yes"/>
      <point x="478" y="530"/>
      <point x="462" y="707"/>
      <point x="268" y="707" type="curve" smooth="yes"/>
      <point x="80" y="707"/>
      <point x="44" y="517"/>
      <point x="44" y="343" type="curve" smooth="yes"/>
      <point x="44" y="156"/>
      <point x="70" y="-10"/>
    </contour>
    <contour>
      <point x="258" y="102" type="curve" smooth="yes"/>
      <point x="190" y="102"/>
      <point x="178" y="150"/>
      <point x="178" y="338" type="curve" smooth="yes"/>
      <point x="178" y="513"/>
      <point x="197" y="592"/>
      <point x="265" y="592" type="curve" smooth="yes"/>
      <point x="332" y="592"/>
      <point x="346" y="524"/>
      <point x="346" y="353" type="curve" smooth="yes"/>
      <point x="346" y="192"/>
      <point x="332" y="102"/>
    </contour>
  </outline>
</glyph>
<glyph name="one" format="2">
  <advance width="320"/>
  <unicode hex="0031"/>
  <outline>
    <contour>
      <point x="138" y="0" type="curve"/>
      <point x="282" y="0" type="line"/>
      <point x="280" y="91"/>
      <point x="277" y="165"/>
      <point x="277" y="341" type="curve" smooth="yes"/>
      <point x="277" y="517"/>
      <point x="281" y="609"/>
      <point x="283" y="694" type="curve"/>
      <point x="210" y="694" type="line"/>
      <point x="141" y="621" type="line"/>
      <point x="142" y="545"/>
      <point x="143" y="421"/>
      <point x="143" y="342" type="curve" smooth="yes"/>
      <point x="143" y="223"/>
      <point x="143" y="98"/>
    </contour>
    <contour>
      <point x="19" y="532" type="line"/>
      <point x="70" y="531"/>
      <point x="181" y="535"/>
      <point x="228" y="555" type="curve"/>
      <point x="210" y="694" type="line"/>
      <point x="172" y="662"/>
      <point x="53" y="641"/>
      <point x="13" y="636" type="curve"/>
    </contour>
  </outline>
</glyph>
<glyph name="two" format="2">
  <advance width="491"/>
  <unicode hex="0032"/>
  <outline>
    <contour>
      <point x="162" y="75" type="line"/>
      <point x="251" y="149"/>
      <point x="452" y="313"/>
      <point x="452" y="500" type="curve" smooth="yes"/>
      <point x="452" y="637"/>
      <point x="379" y="700"/>
      <point x="257" y="700" type="curve" smooth="yes"/>
      <point x="101" y="700"/>
      <point x="51" y="596"/>
      <point x="51" y="478" type="curve" smooth="yes"/>
      <point x="51" y="447"/>
      <point x="54" y="415"/>
      <point x="60" y="384" type="curve"/>
      <point x="187" y="385" type="line"/>
      <point x="182" y="415"/>
      <point x="178" y="446"/>
      <point x="178" y="476" type="curve" smooth="yes"/>
      <point x="178" y="543"/>
      <point x="197" y="585"/>
      <point x="249" y="585" type="curve" smooth="yes"/>
      <point x="293" y="585"/>
      <point x="319" y="564"/>
      <point x="319" y="495" type="curve" smooth="yes"/>
      <point x="319" y="343"/>
      <point x="140" y="204"/>
      <point x="34" y="109" type="curve"/>
    </contour>
    <contour>
      <point x="32" y="-6" type="line"/>
      <point x="39" y="-5"/>
      <point x="240" y="0"/>
      <point x="245" y="0" type="curve" smooth="yes"/>
      <point x="271" y="0"/>
      <point x="451" y="0"/>
      <point x="460" y="0" type="curve"/>
      <point x="459" y="119" type="line"/>
      <point x="430" y="112"/>
      <point x="308" y="112"/>
      <point x="256" y="110" type="curve" smooth="yes"/>
      <point x="229" y="109"/>
      <point x="132" y="109"/>
      <point x="34" y="109" type="curve"/>
    </contour>
  </outline>
</glyph>
<glyph name="three" format="2">
  <advance width="455"/>
  <unicode hex="0033"/>
  <outline>
    <contour>
      <point x="217" y="-10" type="curve" smooth="yes"/>
      <point x="362" y="-10"/>
      <point x="429" y="66"/>
      <point x="431" y="167" type="curve" smooth="yes"/>
      <point x="432" y="225"/>
      <point x="410" y="286"/>
      <point x="324" y="304" type="curve"/>
      <point x="386" y="337"/>
      <point x="433" y="398"/>
      <point x="433" y="501" type="curve" smooth="yes"/>
      <point x="433" y="607"/>
      <point x="390" y="697"/>
      <point x="225" y="697" type="curve" smooth="yes"/>
      <point x="86" y="697"/>
      <point x="31" y="613"/>
      <point x="31" y="510" type="curve"/>
      <point x="162" y="509" type="line"/>
      <point x="163" y="547"/>
      <point x="177" y="582"/>
      <point x="227" y="582" type="curve" smooth="yes"/>
      <point x="281" y="582"/>
      <point x="300" y="546"/>
      <point x="300" y="487" type="curve" smooth="yes"/>
      <point x="300" y="394"/>
      <point x="265" y="345"/>
      <point x="172" y="345" type="curve" smooth="yes"/>
      <point x="118" y="345"/>
      <point x="112" y="345"/>
      <point x="94" y="346" type="curve"/>
      <point x="94" y="241" type="line"/>
      <point x="115" y="242"/>
      <point x="122" y="242"/>
      <point x="180" y="242" type="curve" smooth="yes"/>
      <point x="250" y="242"/>
      <point x="299" y="235"/>
      <point x="298" y="170" type="curve" smooth="yes"/>
      <point x="297" y="126"/>
      <point x="271" y="101"/>
      <point x="220" y="101" type="curve" smooth="yes"/>
      <point x="173" y="101"/>
      <point x="148" y="120"/>
      <point x="149" y="155" type="curve"/>
      <point x="17" y="155" type="line"/>
      <point x="17" y="55"/>
      <point x="72" y="-10"/>
    </contour>
  </outline>
</glyph>
<glyph name="four" format="2">
  <advance width="494"/>
  <unicode hex="0034"/>
  <outline>
    <contour>
      <point x="134" y="189" type="line"/>
      <point x="159" y="252"/>
      <point x="190" y="321"/>
      <point x="221" y="393" type="curve" smooth="yes"/>
      <point x="256" y="475"/>
      <point x="292" y="554"/>
      <point x="321" y="615" type="curve"/>
      <point x="338" y="661"/>
      <point x="400" y="698"/>
      <point x="398" y="696" type="curve"/>
      <point x="218" y="702" type="line"/>
      <point x="184" y="620"/>
      <point x="152" y="534"/>
      <point x="114" y="448" type="curve" smooth="yes"/>
      <point x="81" y="374"/>
      <point x="48" y="305"/>
      <point x="16" y="234" type="curve"/>
    </contour>
    <contour>
      <point x="32" y="109" type="line"/>
      <point x="28" y="109"/>
      <point x="186" y="113"/>
      <point x="250" y="114" type="curve" smooth="yes"/>
      <point x="318" y="115"/>
      <point x="440" y="113"/>
      <point x="475" y="114" type="curve"/>
      <point x="474" y="241" type="line"/>
      <point x="438" y="236"/>
      <point x="319" y="235"/>
      <point x="248" y="232" type="curve" smooth="yes"/>
      <point x="179" y="229"/>
      <point x="70" y="230"/>
      <point x="16" y="234" type="curve"/>
    </contour>
    <contour>
      <point x="256" y="-3" type="curve"/>
      <point x="397" y="0" type="line"/>
      <point x="396" y="58"/>
      <point x="394" y="121"/>
      <point x="394" y="306" type="curve" smooth="yes"/>
      <point x="394" y="483"/>
      <point x="395" y="601"/>
      <point x="398" y="696" type="curve"/>
      <point x="261" y="686" type="line"/>
      <point x="266" y="536"/>
      <point x="261" y="362"/>
      <point x="261" y="256" type="curve" smooth="yes"/>
      <point x="261" y="199"/>
      <point x="259" y="176"/>
    </contour>
  </outline>
</glyph>
<glyph name="five" format="2">
  <advance width="477"/>
  <unicode hex="0035"/>
  <outline>
    <contour>
      <point x="224" y="-10" type="curve" smooth="yes"/>
      <point x="390" y="-10"/>
      <point x="457" y="110"/>
      <point x="457" y="238" type="curve" smooth="yes"/>
      <point x="457" y="392"/>
      <point x="386" y="464"/>
      <point x="268" y="464" type="curve" smooth="yes"/>
      <point x="191" y="464"/>
      <point x="142" y="418"/>
      <point x="114" y="345" type="curve"/>
      <point x="167" y="297" type="line"/>
      <point x="184" y="332"/>
      <point x="210" y="348"/>
      <point x="244" y="348" type="curve" smooth="yes"/>
      <point x="299" y="348"/>
      <point x="324" y="311"/>
      <point x="324" y="235" type="curve" smooth="yes"/>
      <point x="324" y="179"/>
      <point x="302" y="104"/>
      <point x="230" y="104" type="curve" smooth="yes"/>
      <point x="171" y="104"/>
      <point x="151" y="142"/>
      <point x="154" y="192" type="curve"/>
      <point x="22" y="185" type="line"/>
      <point x="16" y="76"/>
      <point x="73" y="-10"/>
    </contour>
    <contour>
      <point x="167" y="297" type="line"/>
      <point x="167" y="291"/>
      <point x="173" y="423"/>
      <point x="175" y="502" type="curve" smooth="yes"/>
      <point x="177" y="582"/>
      <point x="177" y="624"/>
      <point x="183" y="695" type="curve"/>
      <point x="43" y="703" type="line"/>
      <point x="43" y="708"/>
      <point x="45" y="593"/>
      <point x="43" y="505" type="curve" smooth="yes"/>
      <point x="41" y="421"/>
      <point x="33" y="288"/>
      <point x="33" y="293" type="curve"/>
    </contour>
    <contour>
      <point x="76" y="579" type="line"/>
      <point x="74" y="579"/>
      <point x="145" y="581"/>
      <point x="242" y="581" type="curve" smooth="yes"/>
      <point x="289" y="581"/>
      <point x="394" y="580"/>
      <point x="421" y="579" type="curve"/>
      <point x="425" y="697" type="line"/>
      <point x="400" y="696"/>
      <point x="290" y="697"/>
      <point x="240" y="698" type="curve" smooth="yes"/>
      <point x="146" y="700"/>
      <point x="139" y="699"/>
      <point x="42" y="703" type="curve"/>
    </contour>
  </outline>
</glyph>
<glyph name="six" format="2">
  <advance width="502"/>
  <unicode hex="0036"/>
  <outline>
    <contour>
      <point x="257" y="-10" type="curve" smooth="yes"/>
      <point x="400" y="-10"/>
      <point x="465" y="87"/>
      <point x="465" y="207" type="curve" smooth="yes"/>
      <point x="465" y="336"/>
      <point x="392" y="405"/>
      <point x="278" y="405" type="curve" smooth="yes"/>
      <point x="204" y="405"/>
      <point x="135" y="359"/>
      <point x="123" y="251" type="curve"/>
      <point x="166" y="200" type="line"/>
      <point x="166" y="263"/>
      <point x="206" y="291"/>
      <point x="257" y="291" type="curve" smooth="yes"/>
      <point x="306" y="291"/>
      <point x="333" y="261"/>
      <point x="333" y="201" type="curve" smooth="yes"/>
      <point x="333" y="148"/>
      <point x="306" y="107"/>
      <point x="252" y="107" type="curve" smooth="yes"/>
      <point x="188" y="107"/>
      <point x="166" y="151"/>
      <point x="166" y="200" type="curve" smooth="yes"/>
      <point x="166" y="437"/>
      <point x="170" y="598"/>
      <point x="261" y="598" type="curve" smooth="yes"/>
      <point x="310" y="598"/>
      <point x="325" y="564"/>
      <point x="325" y="511" type="curve" smooth="yes"/>
      <point x="325" y="488"/>
      <point x="322" y="464"/>
      <point x="319" y="443" type="curve"/>
      <point x="451" y="445" type="line"/>
      <point x="455" y="471"/>
      <point x="457" y="496"/>
      <point x="457" y="521" type="curve" smooth="yes"/>
      <point x="457" y="629"/>
      <point x="412" y="713"/>
      <point x="263" y="713" type="curve" smooth="yes"/>
      <point x="102" y="713"/>
      <point x="33" y="586"/>
      <point x="33" y="321" type="curve" smooth="yes"/>
      <point x="33" y="94"/>
      <point x="87" y="-10"/>
    </contour>
  </outline>
</glyph>
<glyph name="seven" format="2">
  <advance width="399"/>
  <unicode hex="0037"/>
  <outline>
    <contour>
      <point x="74" y="-1" type="curve"/>
      <point x="222" y="0" type="line"/>
      <point x="213" y="117"/>
      <point x="225" y="230"/>
      <point x="250" y="330" type="curve" smooth="yes"/>
      <point x="275" y="429"/>
      <point x="314" y="517"/>
      <point x="361" y="588" type="curve"/>
      <point x="361" y="700" type="line"/>
      <point x="249" y="611"/>
      <point x="174" y="504"/>
      <point x="132" y="383" type="curve" smooth="yes"/>
      <point x="91" y="266"/>
      <point x="74" y="136"/>
    </contour>
    <contour>
      <point x="15" y="577" type="line"/>
      <point x="43" y="579"/>
      <point x="121" y="579"/>
      <point x="170" y="579" type="curve" smooth="yes"/>
      <point x="219" y="579"/>
      <point x="323" y="581"/>
      <point x="353" y="581" type="curve"/>
      <point x="361" y="700" type="line"/>
      <point x="335" y="698"/>
      <point x="234" y="697"/>
      <point x="183" y="698" type="curve" smooth="yes"/>
      <point x="132" y="699"/>
      <point x="52" y="699"/>
      <point x="14" y="700" type="curve"/>
    </contour>
  </outline>
</glyph>
<glyph name="eight" format="2">
  <advance width="480"/>
  <unicode hex="0038"/>
  <outline>
    <contour>
      <point x="232" y="249" type="curve" smooth="yes"/>
      <point x="383" y="249"/>
      <point x="445" y="344"/>
      <point x="445" y="472" type="curve" smooth="yes"/>
      <point x="445" y="624"/>
      <point x="387" y="707"/>
      <point x="244" y="707" type="curve" smooth="yes"/>
      <point x="100" y="707"/>
      <point x="36" y="617"/>
      <point x="36" y="462" type="curve" smooth="yes"/>
      <point x="36" y="347"/>
      <point x="101" y="249"/>
    </contour>
    <contour>
      <point x="230" y="-10" type="curve" smooth="yes"/>
      <point x="397" y="-10"/>
      <point x="464" y="65"/>
      <point x="464" y="164" type="curve" smooth="yes"/>
      <point x="464" y="284"/>
      <point x="391" y="353"/>
      <point x="245" y="353" type="curve" smooth="yes"/>
      <point x="94" y="353"/>
      <point x="16" y="278"/>
      <point x="16" y="156" type="curve" smooth="yes"/>
      <point x="16" y="67"/>
      <point x="85" y="-10"/>
    </contour>
    <contour>
      <point x="236" y="94" type="curve" smooth="yes"/>
      <point x="166" y="94"/>
      <point x="148" y="123"/>
      <point x="148" y="169" type="curve" smooth="yes"/>
      <point x="148" y="214"/>
      <point x="175" y="249"/>
      <point x="240" y="249" type="curve" smooth="yes"/>
      <point x="310" y="249"/>
      <point x="332" y="222"/>
      <point x="332" y="168" type="curve" smooth="yes"/>
      <point x="332" y="123"/>
      <point x="307" y="94"/>
    </contour>
    <contour>
      <point x="240" y="353" type="curve" smooth="yes"/>
      <point x="193" y="353"/>
      <point x="170" y="396"/>
      <point x="170" y="474" type="curve" smooth="yes"/>
      <point x="170" y="558"/>
      <point x="190" y="597"/>
      <point x="243" y="597" type="curve" smooth="yes"/>
      <point x="297" y="597"/>
      <point x="312" y="567"/>
      <point x="312" y="467" type="curve" smooth="yes"/>
      <point x="312" y="402"/>
      <point x="290" y="353"/>
    </contour>
  </outline>
</glyph>
<glyph name="nine" format="2">
  <advance width="502"/>
  <unicode hex="0039"/>
  <outline>
    <contour>
      <point x="229" y="-10" type="curve" smooth="yes"/>
      <point x="401" y="-10"/>
      <point x="465" y="117"/>
      <point x="465" y="382" type="curve" smooth="yes"/>
      <point x="465" y="609"/>
      <point x="413" y="713"/>
      <point x="243" y="713" type="curve" smooth="yes"/>
      <point x="90" y="713"/>
      <point x="33" y="596"/>
      <point x="33" y="466" type="curve" smooth="yes"/>
      <point x="33" y="327"/>
      <point x="96" y="238"/>
      <point x="220" y="238" type="curve" smooth="yes"/>
      <point x="294" y="238"/>
      <point x="363" y="284"/>
      <point x="375" y="392" type="curve"/>
      <point x="332" y="476" type="line"/>
      <point x="332" y="384"/>
      <point x="292" y="352"/>
      <point x="241" y="352" type="curve" smooth="yes"/>
      <point x="187" y="352"/>
      <point x="165" y="397"/>
      <point x="165" y="472" type="curve" smooth="yes"/>
      <point x="165" y="542"/>
      <point x="187" y="596"/>
      <point x="246" y="596" type="curve" smooth="yes"/>
      <point x="310" y="596"/>
      <point x="332" y="547"/>
      <point x="332" y="476" type="curve" smooth="yes"/>
      <point x="332" y="239"/>
      <point x="333" y="105"/>
      <point x="237" y="105" type="curve" smooth="yes"/>
      <point x="192" y="105"/>
      <point x="175" y="130"/>
      <point x="175" y="168" type="curve" smooth="yes"/>
      <point x="175" y="179"/>
      <point x="177" y="190"/>
      <point x="179" y="200" type="curve"/>
      <point x="47" y="198" type="line"/>
      <point x="44" y="183"/>
      <point x="42" y="167"/>
      <point x="42" y="152" type="curve" smooth="yes"/>
      <point x="42" y="65"/>
      <point x="96" y="-10"/>
    </contour>
  </outline>
</glyph>
<glyph name="colon" format="2">
  <advance width="282"/>
  <unicode hex="003A"/>
  <outline>
    <contour>
      <point x="202" y="0" type="line"/>
      <point x="202" y="179" type="line"/>
      <point x="80" y="166" type="line"/>
      <point x="83" y="0" type="line"/>
    </contour>
    <contour>
      <point x="202" y="333" type="line"/>
      <point x="202" y="511" type="line"/>
      <point x="80" y="498" type="line"/>
      <point x="83" y="333" type="line"/>
    </contour>
  </outline>
</glyph>
<glyph name="semicolon" format="2">
  <advance width="280"/>
  <unicode hex="003B"/>
  <outline>
    <contour>
      <point x="137" y="-159" type="line"/>
      <point x="186" y="-109"/>
      <point x="195" y="-52"/>
      <point x="195" y="19" type="curve" smooth="yes"/>
      <point x="195" y="172" type="line"/>
      <point x="80" y="165" type="line"/>
      <point x="82" y="4" type="line"/>
      <point x="132" y="1" type="line"/>
      <point x="132" y="-40"/>
      <point x="126" y="-79"/>
      <point x="87" y="-125" type="curve"/>
    </contour>
    <contour>
      <point x="200" y="333" type="line"/>
      <point x="200" y="511" type="line"/>
      <point x="84" y="498" type="line"/>
      <point x="87" y="333" type="line"/>
    </contour>
  </outline>
</glyph>
<glyph name="equal" format="2">
  <advance width="500"/>
  <unicode hex="003D"/>
  <outline>
    <contour>
      <point x="88" y="109" type="line"/>
      <point x="145" y="110"/>
      <point x="199" y="111"/>
      <point x="244" y="111" type="curve" smooth="yes"/>
      <point x="285" y="111"/>
      <point x="354" y="110"/>
      <point x="411" y="108" type="curve"/>
      <point x="406" y="212" type="line"/>
      <point x="349" y="209"/>
      <point x="296" y="207"/>
      <point x="250" y="209" type="curve" smooth="yes"/>
      <point x="203" y="211"/>
      <point x="149" y="211"/>
      <point x="92" y="212" type="curve"/>
    </contour>
    <contour>
      <point x="88" y="369" type="line"/>
      <point x="145" y="369"/>
      <point x="199" y="370"/>
      <point x="244" y="370" type="curve" smooth="yes"/>
      <point x="285" y="370"/>
      <point x="344" y="368"/>
      <point x="411" y="368" type="curve"/>
      <point x="405" y="471" type="line"/>
      <point x="358" y="470"/>
      <point x="298" y="467"/>
      <point x="252" y="468" type="curve" smooth="yes"/>
      <point x="204" y="469"/>
      <point x="151" y="472"/>
      <point x="94" y="472" type="curve"/>
    </contour>
  </outline>
</glyph>
<glyph name="greater" format="2">
  <advance width="500"/>
  <unicode hex="003E"/>
  <outline>
    <contour>
      <point x="19" y="109" type="line"/>
      <point x="114" y="137"/>
      <point x="188" y="162"/>
      <point x="255" y="179" type="curve" smooth="yes"/>
      <point x="355" y="206"/>
      <point x="411" y="224"/>
      <point x="490" y="247" type="curve"/>
      <point x="487" y="352" type="line"/>
      <point x="376" y="327"/>
      <point x="322" y="309"/>
      <point x="230" y="285" type="curve" smooth="yes"/>
      <point x="144" y="261"/>
      <point x="89" y="246"/>
      <point x="21" y="228" type="curve"/>
    </contour>
    <contour>
      <point x="21" y="496" type="curve"/>
      <point x="18" y="375" type="line"/>
      <point x="71" y="363"/>
      <point x="138" y="344"/>
      <point x="227" y="319" type="curve" smooth="yes"/>
      <point x="320" y="293"/>
      <point x="422" y="263"/>
      <point x="490" y="247" type="curve"/>
      <point x="487" y="352" type="line"/>
      <point x="406" y="374"/>
      <point x="359" y="393"/>
      <point x="261" y="422" type="curve" smooth="yes"/>
      <point x="187" y="444"/>
      <point x="83" y="474"/>
    </contour>
  </outline>
</glyph>
<glyph name="question" format="2">
  <advance width="556"/>
  <unicode hex="003F"/>
  <outline>
    <contour>
      <point x="341" y="213" type="line"/>
      <point x="333" y="248"/>
      <point x="330" y="270"/>
      <point x="330" y="286" type="curve" smooth="yes"/>
      <point x="330" y="315"/>
      <point x="354" y="335"/>
      <point x="384" y="359" type="curve" smooth="yes"/>
      <point x="428" y="395"/>
      <point x="484" y="441"/>
      <point x="484" y="543" type="curve" smooth="yes"/>
      <point x="484" y="640"/>
      <point x="423" y="716"/>
      <point x="286" y="716" type="curve" smooth="yes"/>
      <point x="134" y="716"/>
      <point x="72" y="628"/>
      <point x="72" y="525" type="curve" smooth="yes"/>
      <point x="72" y="496"/>
      <point x="77" y="466"/>
      <point x="87" y="436" type="curve"/>
      <point x="220" y="435" type="line"/>
      <point x="213" y="459"/>
      <point x="206" y="488"/>
      <point x="206" y="517" type="curve" smooth="yes"/>
      <point x="206" y="562"/>
      <point x="227" y="601"/>
      <point x="280" y="601" type="curve" smooth="yes"/>
      <point x="319" y="601"/>
      <point x="351" y="580"/>
      <point x="351" y="535" type="curve" smooth="yes"/>
      <point x="351" y="486"/>
      <point x="330" y="457"/>
      <point x="303" y="434" type="curve" smooth="yes"/>
      <point x="259" y="396"/>
      <point x="203" y="369"/>
      <point x="203" y="285" type="curve" smooth="yes"/>
      <point x="203" y="266"/>
      <point x="206" y="246"/>
      <point x="213" y="214" type="curve"/>
    </contour>
    <contour>
      <point x="348" y="-3" type="line"/>
      <point x="336" y="167" type="line"/>
      <point x="212" y="165" type="line"/>
      <point x="211" y="0" type="line"/>
    </contour>
  </outline>
</glyph>
<glyph name="at" format="2">
  <advance width="938"/>
  <unicode hex="0040"/>
  <guideline x="737" y="-124" angle="0"/>
  <guideline x="737" y="-203" angle="0"/>
  <outline>
    <contour>
      <point x="459" y="-204" type="curve" smooth="yes"/>
      <point x="548" y="-204"/>
      <point x="643" y="-184"/>
      <point x="739" y="-144" type="curve"/>
      <point x="715" y="-77" type="line"/>
      <point x="634" y="-102"/>
      <point x="556" y="-116"/>
      <point x="485" y="-116" type="curve" smooth="yes"/>
      <point x="282" y="-116"/>
      <point x="138" y="-5"/>
      <point x="138" y="240" type="curve" smooth="yes"/>
      <point x="138" y="450"/>
      <point x="264" y="661"/>
      <point x="504" y="661" type="curve" smooth="yes"/>
      <point x="725" y="661"/>
      <point x="801" y="509"/>
      <point x="801" y="350" type="curve" smooth="yes"/>
      <point x="801" y="205"/>
      <point x="738" y="78"/>
      <point x="664" y="78" type="curve" smooth="yes"/>
      <point x="638" y="78"/>
      <point x="633" y="93"/>
      <point x="633" y="137" type="curve" smooth="yes"/>
      <point x="633" y="182"/>
      <point x="646" y="253"/>
      <point x="691" y="554" type="curve"/>
      <point x="557" y="545" type="line"/>
      <point x="552" y="491" type="line"/>
      <point x="538" y="538"/>
      <point x="506" y="569"/>
      <point x="451" y="569" type="curve" smooth="yes"/>
      <point x="352" y="569"/>
      <point x="243" y="455"/>
      <point x="243" y="172" type="curve" smooth="yes"/>
      <point x="243" y="42"/>
      <point x="309" y="-10"/>
      <point x="372" y="-10" type="curve" smooth="yes"/>
      <point x="445" y="-10"/>
      <point x="484" y="30"/>
      <point x="519" y="89" type="curve"/>
      <point x="519" y="47"/>
      <point x="533" y="-10"/>
      <point x="637" y="-10" type="curve" smooth="yes"/>
      <point x="826" y="-10"/>
      <point x="906" y="177"/>
      <point x="906" y="359" type="curve" smooth="yes"/>
      <point x="906" y="573"/>
      <point x="780" y="753"/>
      <point x="500" y="753" type="curve" smooth="yes"/>
      <point x="185" y="753"/>
      <point x="31" y="498"/>
      <point x="31" y="241" type="curve" smooth="yes"/>
      <point x="31" y="-56"/>
      <point x="219" y="-204"/>
    </contour>
    <contour>
      <point x="419" y="96" type="curve" smooth="yes"/>
      <point x="386" y="96"/>
      <point x="378" y="129"/>
      <point x="378" y="188" type="curve" smooth="yes"/>
      <point x="378" y="410"/>
      <point x="418" y="464"/>
      <point x="470" y="464" type="curve" smooth="yes"/>
      <point x="521" y="464"/>
      <point x="530" y="410"/>
      <point x="518" y="315" type="curve" smooth="yes"/>
      <point x="509" y="242" type="line" smooth="yes"/>
      <point x="496" y="138"/>
      <point x="460" y="96"/>
    </contour>
  </outline>
</glyph>
<glyph name="A" format="2">
  <advance width="457"/>
  <unicode hex="0041"/>
  <anchor x="228" y="0" name="bottom"/>
  <anchor x="371" y="0" name="ogonek"/>
  <anchor x="229" y="693" name="top"/>
  <outline>
    <contour>
      <point x="295" y="-5" type="curve"/>
      <point x="452" y="0" type="line"/>
      <point x="430" y="103"/>
      <point x="405" y="229"/>
      <point x="381" y="365" type="curve" smooth="yes"/>
      <point x="362" y="474"/>
      <point x="342" y="589"/>
      <point x="324" y="705" type="curve"/>
      <point x="136" y="697" type="line"/>
      <point x="214" y="638" type="line"/>
      <point x="225" y="574"/>
      <point x="236" y="468"/>
      <point x="254" y="349" type="curve" smooth="yes"/>
      <point x="272" y="233"/>
      <point x="282" y="105"/>
    </contour>
    <contour>
      <point x="128" y="114" type="line"/>
      <point x="324" y="121" type="line"/>
      <point x="324" y="229" type="line"/>
      <point x="128" y="232" type="line"/>
    </contour>
    <contour>
      <point x="158" y="6" type="line"/>
      <point x="172" y="112"/>
      <point x="183" y="237"/>
      <point x="201" y="351" type="curve" smooth="yes"/>
      <point x="219" y="467"/>
      <point x="229" y="570"/>
      <point x="240" y="630" type="curve"/>
      <point x="324" y="705" type="line"/>
      <point x="136" y="697" type="line"/>
      <point x="116" y="582"/>
      <point x="95" y="465"/>
      <point x="75" y="355" type="curve" smooth="yes"/>
      <point x="51" y="225"/>
      <point x="28" y="104"/>
      <point x="8" y="7" type="curve"/>
    </contour>
  </outline>
</glyph>
<glyph name="B" format="2">
  <advance width="452"/>
  <unicode hex="0042"/>
  <outline>
    <contour>
      <point x="121" y="210" type="line"/>
      <point x="296" y="210"/>
      <point x="438" y="273"/>
      <point x="438" y="467" type="curve" smooth="yes"/>
      <point x="438" y="669"/>
      <point x="361" y="719"/>
      <point x="172" y="719" type="curve" smooth="yes"/>
      <point x="133" y="719"/>
      <point x="78" y="717"/>
      <point x="28" y="713" type="curve"/>
      <point x="90" y="602" type="line"/>
      <point x="131" y="607"/>
      <point x="165" y="611"/>
      <point x="193" y="611" type="curve" smooth="yes"/>
      <point x="264" y="611"/>
      <point x="293" y="575"/>
      <point x="293" y="464" type="curve" smooth="yes"/>
      <point x="293" y="306"/>
      <point x="250" y="285"/>
      <point x="117" y="285" type="curve"/>
    </contour>
    <contour>
      <point x="178" y="-10" type="curve" smooth="yes"/>
      <point x="351" y="-10"/>
      <point x="445" y="21"/>
      <point x="445" y="132" type="curve" smooth="yes"/>
      <point x="445" y="224"/>
      <point x="362" y="286"/>
      <point x="117" y="285" type="curve"/>
      <point x="121" y="179" type="line"/>
      <point x="154" y="180"/>
      <point x="183" y="182"/>
      <point x="209" y="182" type="curve" smooth="yes"/>
      <point x="259" y="182"/>
      <point x="300" y="183"/>
      <point x="300" y="139" type="curve" smooth="yes"/>
      <point x="300" y="91"/>
      <point x="258" y="90"/>
      <point x="214" y="90" type="curve" smooth="yes"/>
      <point x="180" y="90"/>
      <point x="140" y="94"/>
      <point x="98" y="99" type="curve"/>
      <point x="32" y="-5" type="line"/>
      <point x="81" y="-8"/>
      <point x="137" y="-10"/>
    </contour>
    <contour>
      <point x="32" y="-5" type="curve"/>
      <point x="179" y="3" type="line"/>
      <point x="179" y="3"/>
      <point x="176" y="238"/>
      <point x="176" y="353" type="curve"/>
      <point x="176" y="468"/>
      <point x="178" y="704"/>
      <point x="178" y="704" type="curve"/>
      <point x="28" y="713" type="line"/>
      <point x="28" y="713"/>
      <point x="36" y="525"/>
      <point x="36" y="355" type="curve"/>
      <point x="36" y="187"/>
      <point x="32" y="-5"/>
    </contour>
  </outline>
</glyph>
<glyph name="C" format="2">
  <advance width="446"/>
  <unicode hex="0043"/>
  <anchor x="229" y="0" name="bottom"/>
  <anchor x="237" y="693" name="top"/>
  <outline>
    <contour>
      <point x="220" y="-3" type="curve"/>
      <point x="356" y="-3"/>
      <point x="412" y="57"/>
      <point x="412" y="173" type="curve" smooth="yes"/>
      <point x="412" y="188"/>
      <point x="411" y="205"/>
      <point x="409" y="223" type="curve"/>
      <point x="274" y="221" type="line"/>
      <point x="275" y="206"/>
      <point x="276" y="193"/>
      <point x="276" y="182" type="curve" smooth="yes"/>
      <point x="276" y="134"/>
      <point x="265" y="112"/>
      <point x="236" y="112" type="curve" smooth="yes"/>
      <point x="207" y="112"/>
      <point x="194" y="134"/>
      <point x="188" y="184" type="curve" smooth="yes"/>
      <point x="184" y="219"/>
      <point x="184" y="267"/>
      <point x="184" y="330" type="curve" smooth="yes"/>
      <point x="184" y="411"/>
      <point x="184" y="474"/>
      <point x="189" y="518" type="curve" smooth="yes"/>
      <point x="195" y="569"/>
      <point x="209" y="595"/>
      <point x="236" y="595" type="curve" smooth="yes"/>
      <point x="267" y="595"/>
      <point x="275" y="566"/>
      <point x="275" y="510" type="curve" smooth="yes"/>
      <point x="275" y="470"/>
      <point x="271" y="417"/>
      <point x="268" y="350" type="curve"/>
      <point x="408" y="350" type="line"/>
      <point x="413" y="401"/>
      <point x="416" y="447"/>
      <point x="416" y="489" type="curve" smooth="yes"/>
      <point x="416" y="626"/>
      <point x="379" y="708"/>
      <point x="238" y="708" type="curve" smooth="yes"/>
      <point x="140" y="708"/>
      <point x="87" y="654"/>
      <point x="60" y="568" type="curve" smooth="yes"/>
      <point x="42" y="511"/>
      <point x="35" y="440"/>
      <point x="35" y="362" type="curve" smooth="yes"/>
      <point x="35" y="271"/>
      <point x="39" y="189"/>
      <point x="57" y="127" type="curve" smooth="yes"/>
      <point x="80" y="47"/>
      <point x="127" y="-3"/>
    </contour>
  </outline>
</glyph>
<glyph name="D" format="2">
  <advance width="467"/>
  <unicode hex="0044"/>
  <anchor x="183" y="348" name="center"/>
  <anchor x="237" y="693" name="top"/>
  <outline>
    <contour>
      <point x="158" y="-11" type="curve" smooth="yes"/>
      <point x="408" y="-11"/>
      <point x="443" y="91"/>
      <point x="443" y="355" type="curve" smooth="yes"/>
      <point x="443" y="608"/>
      <point x="398" y="708"/>
      <point x="196" y="708" type="curve" smooth="yes"/>
      <point x="155" y="708"/>
      <point x="97" y="704"/>
      <point x="42" y="695" type="curve"/>
      <point x="114" y="589" type="line"/>
      <point x="150" y="597"/>
      <point x="190" y="602"/>
      <point x="214" y="602" type="curve" smooth="yes"/>
      <point x="291" y="602"/>
      <point x="293" y="525"/>
      <point x="293" y="362" type="curve" smooth="yes"/>
      <point x="293" y="186"/>
      <point x="299" y="92"/>
      <point x="205" y="92" type="curve" smooth="yes"/>
      <point x="182" y="92"/>
      <point x="135" y="94"/>
      <point x="103" y="100" type="curve"/>
      <point x="45" y="-6" type="line"/>
      <point x="82" y="-9"/>
      <point x="127" y="-11"/>
    </contour>
    <contour>
      <point x="45" y="-6" type="curve"/>
      <point x="192" y="-4" type="line"/>
      <point x="191" y="98"/>
      <point x="189" y="265"/>
      <point x="189" y="350" type="curve"/>
      <point x="189" y="456"/>
      <point x="190" y="579"/>
      <point x="192" y="691" type="curve"/>
      <point x="42" y="695" type="line"/>
      <point x="45" y="610"/>
      <point x="49" y="457"/>
      <point x="49" y="350" type="curve"/>
      <point x="49" y="227"/>
      <point x="47" y="74"/>
    </contour>
  </outline>
</glyph>
<glyph name="E" format="2">
  <advance width="413"/>
  <unicode hex="0045"/>
  <anchor x="212" y="0" name="bottom"/>
  <anchor x="320" y="-1" name="ogonek"/>
  <anchor x="214" y="693" name="top"/>
  <outline>
    <contour>
      <point x="46" y="-1" type="curve"/>
      <point x="192" y="3" type="line"/>
      <point x="192" y="3"/>
      <point x="189" y="223"/>
      <point x="189" y="341" type="curve"/>
      <point x="189" y="457"/>
      <point x="192" y="688"/>
      <point x="192" y="688" type="curve"/>
      <point x="42" y="702" type="line"/>
      <point x="42" y="702"/>
      <point x="50" y="513"/>
      <point x="50" y="342" type="curve"/>
      <point x="50" y="173"/>
      <point x="46" y="-1"/>
    </contour>
    <contour>
      <point x="46" y="-1" type="line"/>
      <point x="383" y="0" type="line"/>
      <point x="382" y="95" type="line"/>
      <point x="114" y="100" type="line"/>
    </contour>
    <contour>
      <point x="110" y="180" type="line"/>
      <point x="378" y="184" type="line"/>
      <point x="380" y="293" type="line"/>
      <point x="110" y="296" type="line"/>
    </contour>
    <contour>
      <point x="101" y="591" type="line"/>
      <point x="371" y="592" type="line"/>
      <point x="371" y="693" type="line"/>
      <point x="42" y="702" type="line"/>
    </contour>
  </outline>
</glyph>
<glyph name="F" format="2">
  <advance width="390"/>
  <unicode hex="0046"/>
  <outline>
    <contour>
      <point x="48" y="4" type="curve"/>
      <point x="201" y="4" type="line"/>
      <point x="201" y="4"/>
      <point x="198" y="235"/>
      <point x="198" y="361" type="curve"/>
      <point x="198" y="477"/>
      <point x="201" y="693"/>
      <point x="201" y="693" type="curve"/>
      <point x="44" y="707" type="line"/>
      <point x="44" y="707"/>
      <point x="52" y="532"/>
      <point x="52" y="361" type="curve"/>
      <point x="52" y="192"/>
      <point x="48" y="4"/>
    </contour>
    <contour>
      <point x="112" y="249" type="line"/>
      <point x="369" y="252" type="line"/>
      <point x="367" y="366" type="line"/>
      <point x="112" y="369" type="line"/>
    </contour>
    <contour>
      <point x="100" y="591" type="line"/>
      <point x="364" y="591" type="line"/>
      <point x="367" y="698" type="line"/>
      <point x="44" y="707" type="line"/>
    </contour>
  </outline>
</glyph>
<glyph name="G" format="2">
  <advance width="449"/>
  <unicode hex="0047"/>
  <anchor x="228" y="-8" name="bottom"/>
  <anchor x="234" y="693" name="top"/>
  <outline>
    <contour>
      <point x="29" y="340" type="curve" smooth="yes"/>
      <point x="29" y="260"/>
      <point x="34" y="186"/>
      <point x="51" y="127" type="curve" smooth="yes"/>
      <point x="75" y="45"/>
      <point x="123" y="-8"/>
      <point x="219" y="-8" type="curve" smooth="yes"/>
      <point x="284" y="-8"/>
      <point x="318" y="13"/>
      <point x="339" y="42" type="curve"/>
      <point x="354" y="0" type="line"/>
      <point x="419" y="0" type="line"/>
      <point x="417" y="286" type="line"/>
      <point x="241" y="288" type="line"/>
      <point x="241" y="190" type="line"/>
      <point x="298" y="192" type="line"/>
      <point x="299" y="183"/>
      <point x="300" y="175"/>
      <point x="300" y="168" type="curve" smooth="yes"/>
      <point x="300" y="126"/>
      <point x="280" y="108"/>
      <point x="243" y="108" type="curve" smooth="yes"/>
      <point x="207" y="108"/>
      <point x="191" y="138"/>
      <point x="184" y="189" type="curve" smooth="yes"/>
      <point x="178" y="232"/>
      <point x="178" y="291"/>
      <point x="178" y="361" type="curve" smooth="yes"/>
      <point x="178" y="426"/>
      <point x="178" y="483"/>
      <point x="185" y="525" type="curve" smooth="yes"/>
      <point x="193" y="572"/>
      <point x="205" y="601"/>
      <point x="233" y="601" type="curve" smooth="yes"/>
      <point x="266" y="601"/>
      <point x="276" y="570"/>
      <point x="276" y="516" type="curve" smooth="yes"/>
      <point x="276" y="479"/>
      <point x="271" y="432"/>
      <point x="266" y="378" type="curve"/>
      <point x="406" y="377" type="line"/>
      <point x="413" y="426"/>
      <point x="417" y="471"/>
      <point x="417" y="511" type="curve" smooth="yes"/>
      <point x="417" y="636"/>
      <point x="375" y="714"/>
      <point x="242" y="714" type="curve" smooth="yes"/>
      <point x="141" y="714"/>
      <point x="86" y="658"/>
      <point x="57" y="570" type="curve" smooth="yes"/>
      <point x="36" y="507"/>
      <point x="29" y="427"/>
    </contour>
  </outline>
</glyph>
<glyph name="H" format="2">
  <advance width="492"/>
  <unicode hex="0048"/>
  <anchor x="246" y="0" name="bottom"/>
  <anchor x="245" y="459" name="center"/>
  <anchor x="245" y="693" name="top"/>
  <outline>
    <contour>
      <point x="286" y="0" type="curve"/>
      <point x="442" y="0" type="line"/>
      <point x="439" y="97"/>
      <point x="438" y="241"/>
      <point x="438" y="383" type="curve" smooth="yes"/>
      <point x="438" y="518"/>
      <point x="442" y="619"/>
      <point x="445" y="708" type="curve"/>
      <point x="290" y="706" type="line"/>
      <point x="292" y="627"/>
      <point x="293" y="463"/>
      <point x="293" y="381" type="curve" smooth="yes"/>
      <point x="293" y="297"/>
      <point x="290" y="118"/>
    </contour>
    <contour>
      <point x="109" y="290" type="line"/>
      <point x="109" y="182" type="line"/>
      <point x="389" y="177" type="line"/>
      <point x="389" y="296" type="line"/>
    </contour>
    <contour>
      <point x="50" y="2" type="curve"/>
      <point x="201" y="3" type="line"/>
      <point x="201" y="80"/>
      <point x="198" y="285"/>
      <point x="198" y="352" type="curve" smooth="yes"/>
      <point x="198" y="440"/>
      <point x="201" y="623"/>
      <point x="201" y="698" type="curve"/>
      <point x="47" y="694" type="line"/>
      <point x="49" y="621"/>
      <point x="54" y="480"/>
      <point x="54" y="353" type="curve" smooth="yes"/>
      <point x="54" y="233"/>
      <point x="53" y="98"/>
    </contour>
  </outline>
</glyph>
<glyph name="I" format="2">
  <advance width="229"/>
  <unicode hex="0049"/>
  <anchor x="115" y="0" name="bottom"/>
  <anchor x="101" y="0" name="ogonek"/>
  <anchor x="117" y="693" name="top"/>
  <outline>
    <contour>
      <point x="40" y="702" type="line"/>
      <point x="41" y="626"/>
      <point x="44" y="470"/>
      <point x="44" y="396" type="curve"/>
      <point x="44" y="296"/>
      <point x="36" y="0"/>
      <point x="36" y="0" type="curve"/>
      <point x="191" y="1" type="line"/>
      <point x="191" y="1"/>
      <point x="188" y="212"/>
      <point x="188" y="398" type="curve"/>
      <point x="188" y="585"/>
      <point x="194" y="704"/>
      <point x="194" y="704" type="curve"/>
    </contour>
  </outline>
</glyph>
<glyph name="J" format="2">
  <advance width="408"/>
  <unicode hex="004A"/>
  <anchor x="309" y="693" name="top"/>
  <outline>
    <contour>
      <point x="184" y="-3" type="curve" smooth="yes"/>
      <point x="337" y="-3"/>
      <point x="378" y="95"/>
      <point x="378" y="231" type="curve" smooth="yes"/>
      <point x="378" y="301"/>
      <point x="378" y="334"/>
      <point x="378" y="402" type="curve"/>
      <point x="378" y="492"/>
      <point x="378" y="606"/>
      <point x="380" y="699" type="curve"/>
      <point x="235" y="697" type="line"/>
      <point x="239" y="610"/>
      <point x="240" y="464"/>
      <point x="240" y="396" type="curve"/>
      <point x="241" y="311"/>
      <point x="241" y="297"/>
      <point x="241" y="247" type="curve" smooth="yes"/>
      <point x="241" y="166"/>
      <point x="239" y="110"/>
      <point x="187" y="110" type="curve" smooth="yes"/>
      <point x="155" y="110"/>
      <point x="142" y="128"/>
      <point x="142" y="194" type="curve" smooth="yes"/>
      <point x="142" y="224"/>
      <point x="145" y="258"/>
      <point x="148" y="298" type="curve"/>
      <point x="11" y="299" type="line"/>
      <point x="6" y="263"/>
      <point x="4" y="230"/>
      <point x="4" y="200" type="curve" smooth="yes"/>
      <point x="4" y="71"/>
      <point x="50" y="-3"/>
    </contour>
  </outline>
</glyph>
<glyph name="K" format="2">
  <advance width="439"/>
  <unicode hex="004B"/>
  <anchor x="245" y="0" name="bottom"/>
  <outline>
    <contour>
      <point x="299" y="1" type="curve"/>
      <point x="473" y="6" type="line"/>
      <point x="379" y="128"/>
      <point x="324" y="209"/>
      <point x="268" y="297" type="curve"/>
      <point x="318" y="401"/>
      <point x="407" y="592"/>
      <point x="468" y="705" type="curve"/>
      <point x="315" y="702" type="line"/>
      <point x="272" y="596"/>
      <point x="201" y="422"/>
      <point x="129" y="271" type="curve"/>
      <point x="187" y="191"/>
      <point x="244" y="102"/>
    </contour>
    <contour>
      <point x="42" y="2" type="curve"/>
      <point x="193" y="3" type="line"/>
      <point x="193" y="80"/>
      <point x="190" y="285"/>
      <point x="190" y="352" type="curve" smooth="yes"/>
      <point x="190" y="440"/>
      <point x="193" y="623"/>
      <point x="193" y="698" type="curve"/>
      <point x="39" y="704" type="line"/>
      <point x="41" y="631"/>
      <point x="46" y="480"/>
      <point x="46" y="353" type="curve" smooth="yes"/>
      <point x="46" y="233"/>
      <point x="45" y="98"/>
    </contour>
  </outline>
</glyph>
<glyph name="L" format="2">
  <advance width="378"/>
  <unicode hex="004C"/>
  <anchor x="188" y="0" name="bottom"/>
  <anchor x="176" y="350" name="center"/>
  <anchor x="115" y="693" name="top"/>
  <anchor x="210" y="478" name="topright"/>
  <outline>
    <contour>
      <point x="46" y="-4" type="curve"/>
      <point x="192" y="3" type="line"/>
      <point x="192" y="3"/>
      <point x="190" y="226"/>
      <point x="190" y="343" type="curve"/>
      <point x="190" y="459"/>
      <point x="192" y="703"/>
      <point x="192" y="703" type="curve"/>
      <point x="42" y="696" type="line"/>
      <point x="42" y="696"/>
      <point x="50" y="516"/>
      <point x="50" y="345" type="curve"/>
      <point x="50" y="176"/>
      <point x="46" y="-4"/>
    </contour>
    <contour>
      <point x="46" y="-4" type="line"/>
      <point x="378" y="-1" type="line"/>
      <point x="378" y="97" type="line"/>
      <point x="114" y="100" type="line"/>
    </contour>
  </outline>
</glyph>
<glyph name="M" format="2">
  <advance width="664"/>
  <unicode hex="004D"/>
  <outline>
    <contour>
      <point x="44" y="-1" type="curve"/>
      <point x="180" y="-1" type="line"/>
      <point x="179" y="38"/>
      <point x="179" y="155"/>
      <point x="178" y="256" type="curve" smooth="yes"/>
      <point x="177" y="329"/>
      <point x="177" y="394"/>
      <point x="177" y="413" type="curve"/>
      <point x="187" y="364"/>
      <point x="198" y="313"/>
      <point x="210" y="256" type="curve" smooth="yes"/>
      <point x="224" y="188"/>
      <point x="240" y="110"/>
      <point x="260" y="18" type="curve"/>
      <point x="398" y="12" type="line"/>
      <point x="412" y="84"/>
      <point x="429" y="168"/>
      <point x="445" y="249" type="curve" smooth="yes"/>
      <point x="458" y="314"/>
      <point x="471" y="377"/>
      <point x="482" y="428" type="curve"/>
      <point x="482" y="362"/>
      <point x="482" y="303"/>
      <point x="482" y="251" type="curve" smooth="yes"/>
      <point x="482" y="118"/>
      <point x="482" y="32"/>
      <point x="481" y="0" type="curve"/>
      <point x="621" y="-2" type="line"/>
      <point x="620" y="66"/>
      <point x="619" y="206"/>
      <point x="618" y="345" type="curve" smooth="yes"/>
      <point x="617" y="492"/>
      <point x="618" y="637"/>
      <point x="620" y="697" type="curve"/>
      <point x="428" y="697" type="line"/>
      <point x="398" y="531"/>
      <point x="385" y="462"/>
      <point x="362" y="351" type="curve" smooth="yes"/>
      <point x="353" y="308"/>
      <point x="343" y="260"/>
      <point x="331" y="198" type="curve"/>
      <point x="323" y="239"/>
      <point x="313" y="291"/>
      <point x="302" y="349" type="curve" smooth="yes"/>
      <point x="281" y="461"/>
      <point x="255" y="593"/>
      <point x="235" y="704" type="curve"/>
      <point x="45" y="702" type="line"/>
      <point x="46" y="615"/>
      <point x="46" y="487"/>
      <point x="46" y="360" type="curve" smooth="yes"/>
      <point x="46" y="221"/>
      <point x="46" y="82"/>
    </contour>
  </outline>
</glyph>
<glyph name="P" format="2">
  <advance width="427"/>
  <unicode hex="0050"/>
  <outline>
    <contour>
      <point x="127" y="210" type="line"/>
      <point x="307" y="210"/>
      <point x="427" y="280"/>
      <point x="427" y="476" type="curve" smooth="yes"/>
      <point x="427" y="670"/>
      <point x="342" y="718"/>
      <point x="169" y="718" type="curve" smooth="yes"/>
      <point x="131" y="718"/>
      <point x="79" y="716"/>
      <point x="33" y="712" type="curve"/>
      <point x="95" y="599" type="line"/>
      <point x="132" y="605"/>
      <point x="173" y="609"/>
      <point x="199" y="609" type="curve" smooth="yes"/>
      <point x="260" y="609"/>
      <point x="283" y="574"/>
      <point x="283" y="473" type="curve" smooth="yes"/>
      <point x="283" y="368"/>
      <point x="252" y="307"/>
      <point x="127" y="321" type="curve"/>
    </contour>
    <contour>
      <point x="37" y="-5" type="curve"/>
      <point x="183" y="5" type="line"/>
      <point x="182" y="105"/>
      <point x="180" y="269"/>
      <point x="180" y="354" type="curve"/>
      <point x="178" y="464"/>
      <point x="177" y="620"/>
      <point x="182" y="702" type="curve"/>
      <point x="33" y="712" type="line"/>
      <point x="36" y="631"/>
      <point x="41" y="477"/>
      <point x="41" y="352" type="curve"/>
      <point x="41" y="228"/>
      <point x="39" y="75"/>
    </contour>
  </outline>
</glyph>
<glyph name="R" format="2">
  <advance width="453"/>
  <unicode hex="0052"/>
  <anchor x="237" y="0" name="bottom"/>
  <anchor x="224" y="693" name="top"/>
  <outline>
    <contour>
      <point x="131" y="220" type="line"/>
      <point x="311" y="220"/>
      <point x="431" y="290"/>
      <point x="431" y="481" type="curve" smooth="yes"/>
      <point x="431" y="673"/>
      <point x="344" y="718"/>
      <point x="173" y="718" type="curve" smooth="yes"/>
      <point x="135" y="718"/>
      <point x="83" y="716"/>
      <point x="37" y="712" type="curve"/>
      <point x="99" y="599" type="line"/>
      <point x="136" y="605"/>
      <point x="173" y="609"/>
      <point x="199" y="609" type="curve" smooth="yes"/>
      <point x="258" y="609"/>
      <point x="287" y="577"/>
      <point x="287" y="478" type="curve" smooth="yes"/>
      <point x="287" y="378"/>
      <point x="237" y="317"/>
      <point x="131" y="331" type="curve"/>
    </contour>
    <contour>
      <point x="41" y="-5" type="curve"/>
      <point x="187" y="5" type="line"/>
      <point x="186" y="105"/>
      <point x="184" y="269"/>
      <point x="184" y="354" type="curve"/>
      <point x="182" y="464"/>
      <point x="181" y="635"/>
      <point x="186" y="702" type="curve"/>
      <point x="37" y="712" type="line"/>
      <point x="40" y="631"/>
      <point x="45" y="477"/>
      <point x="45" y="352" type="curve"/>
      <point x="45" y="228"/>
      <point x="43" y="75"/>
    </contour>
    <contour>
      <point x="315" y="-6" type="curve"/>
      <point x="481" y="-3" type="line"/>
      <point x="420" y="106"/>
      <point x="382" y="206"/>
      <point x="344" y="305" type="curve"/>
      <point x="210" y="274" type="line"/>
      <point x="249" y="175"/>
      <point x="284" y="86"/>
    </contour>
  </outline>
</glyph>
<glyph name="S" format="2">
  <advance width="442"/>
  <unicode hex="0053"/>
  <anchor x="218" y="0" name="bottom"/>
  <anchor x="228" y="693" name="top"/>
  <outline>
    <contour>
      <point x="217" y="-10" type="curve" smooth="yes"/>
      <point x="375" y="-10"/>
      <point x="435" y="74"/>
      <point x="435" y="164" type="curve" smooth="yes"/>
      <point x="435" y="288"/>
      <point x="342" y="332"/>
      <point x="250" y="375" type="curve" smooth="yes"/>
      <point x="185" y="405"/>
      <point x="147" y="432"/>
      <point x="147" y="501" type="curve" smooth="yes"/>
      <point x="147" y="559"/>
      <point x="168" y="598"/>
      <point x="220" y="598" type="curve" smooth="yes"/>
      <point x="273" y="598"/>
      <point x="289" y="559"/>
      <point x="289" y="491" type="curve" smooth="yes"/>
      <point x="289" y="464"/>
      <point x="287" y="432"/>
      <point x="283" y="396" type="curve"/>
      <point x="426" y="396" type="line"/>
      <point x="432" y="432"/>
      <point x="436" y="465"/>
      <point x="436" y="495" type="curve" smooth="yes"/>
      <point x="436" y="624"/>
      <point x="375" y="705"/>
      <point x="225" y="705" type="curve" smooth="yes"/>
      <point x="68" y="705"/>
      <point x="5" y="610"/>
      <point x="5" y="493" type="curve" smooth="yes"/>
      <point x="5" y="353"/>
      <point x="92" y="294"/>
      <point x="182" y="252" type="curve" smooth="yes"/>
      <point x="251" y="220"/>
      <point x="292" y="207"/>
      <point x="292" y="159" type="curve" smooth="yes"/>
      <point x="292" y="123"/>
      <point x="273" y="95"/>
      <point x="213" y="95" type="curve" smooth="yes"/>
      <point x="169" y="95"/>
      <point x="140" y="124"/>
      <point x="140" y="175" type="curve" smooth="yes"/>
      <point x="140" y="191"/>
      <point x="143" y="210"/>
      <point x="150" y="231" type="curve"/>
      <point x="15" y="231" type="line"/>
      <point x="10" y="209"/>
      <point x="7" y="187"/>
      <point x="7" y="167" type="curve" smooth="yes"/>
      <point x="7" y="61"/>
      <point x="79" y="-10"/>
    </contour>
  </outline>
</glyph>
<glyph name="T" format="2">
  <advance width="396"/>
  <unicode hex="0054"/>
  <anchor x="197" y="13" name="bottom"/>
  <anchor x="194" y="347" name="center"/>
  <anchor x="195" y="693" name="top"/>
  <outline>
    <contour>
      <point x="122" y="2" type="curve"/>
      <point x="270" y="4" type="line"/>
      <point x="270" y="4"/>
      <point x="268" y="245"/>
      <point x="268" y="347" type="curve"/>
      <point x="268" y="447"/>
      <point x="270" y="688"/>
      <point x="270" y="688" type="curve"/>
      <point x="117" y="692" type="line"/>
      <point x="117" y="692"/>
      <point x="124" y="532"/>
      <point x="124" y="345" type="curve"/>
      <point x="124" y="156"/>
      <point x="123" y="61"/>
    </contour>
    <contour>
      <point x="-12" y="578" type="line"/>
      <point x="-12" y="578"/>
      <point x="127" y="583"/>
      <point x="193" y="584" type="curve"/>
      <point x="260" y="584"/>
      <point x="407" y="586"/>
      <point x="407" y="586" type="curve"/>
      <point x="404" y="704" type="line"/>
      <point x="404" y="704"/>
      <point x="246" y="702"/>
      <point x="180" y="702" type="curve"/>
      <point x="115" y="702"/>
      <point x="-9" y="701"/>
      <point x="-9" y="701" type="curve"/>
    </contour>
  </outline>
</glyph>
<glyph name="V" format="2">
  <advance width="450"/>
  <unicode hex="0056"/>
  <outline>
    <contour>
      <point x="7" y="704" type="line"/>
      <point x="29" y="601"/>
      <point x="57" y="467"/>
      <point x="81" y="331" type="curve" smooth="yes"/>
      <point x="100" y="222"/>
      <point x="123" y="107"/>
      <point x="144" y="-9" type="curve"/>
      <point x="316" y="-1" type="line"/>
      <point x="335" y="114"/>
      <point x="359" y="231"/>
      <point x="379" y="341" type="curve" smooth="yes"/>
      <point x="403" y="471"/>
      <point x="434" y="608"/>
      <point x="454" y="705" type="curve"/>
      <point x="305" y="697" type="line"/>
      <point x="293" y="591"/>
      <point x="276" y="459"/>
      <point x="259" y="345" type="curve" smooth="yes"/>
      <point x="248" y="273"/>
      <point x="240" y="205"/>
      <point x="232" y="150" type="curve"/>
      <point x="225" y="207"/>
      <point x="216" y="274"/>
      <point x="206" y="347" type="curve" smooth="yes"/>
      <point x="190" y="463"/>
      <point x="174" y="591"/>
      <point x="165" y="701" type="curve"/>
    </contour>
  </outline>
</glyph>
<glyph name="W" format="2">
  <advance width="753"/>
  <unicode hex="0057"/>
  <anchor x="389" y="693" name="top"/>
  <outline>
    <contour>
      <point x="295" y="-11" type="line"/>
      <point x="310" y="59"/>
      <point x="341" y="214"/>
      <point x="362" y="327" type="curve" smooth="yes"/>
      <point x="371" y="375"/>
      <point x="379" y="415"/>
      <point x="384" y="439" type="curve"/>
      <point x="386" y="427"/>
      <point x="395" y="378"/>
      <point x="407" y="317" type="curve" smooth="yes"/>
      <point x="430" y="199"/>
      <point x="458" y="35"/>
      <point x="467" y="-8" type="curve"/>
      <point x="624" y="-11" type="line"/>
      <point x="647" y="115"/>
      <point x="674" y="261"/>
      <point x="697" y="390" type="curve" smooth="yes"/>
      <point x="722" y="530"/>
      <point x="745" y="649"/>
      <point x="755" y="703" type="curve"/>
      <point x="604" y="695" type="line"/>
      <point x="600" y="638"/>
      <point x="585" y="512"/>
      <point x="571" y="395" type="curve" smooth="yes"/>
      <point x="560" y="303"/>
      <point x="549" y="217"/>
      <point x="543" y="175" type="curve"/>
      <point x="532" y="232"/>
      <point x="520" y="295"/>
      <point x="508" y="360" type="curve" smooth="yes"/>
      <point x="491" y="454"/>
      <point x="473" y="554"/>
      <point x="458" y="657" type="curve"/>
      <point x="316" y="657" type="line"/>
      <point x="306" y="599"/>
      <point x="284" y="488"/>
      <point x="263" y="377" type="curve" smooth="yes"/>
      <point x="249" y="304"/>
      <point x="235" y="231"/>
      <point x="223" y="173" type="curve"/>
      <point x="218" y="213"/>
      <point x="209" y="292"/>
      <point x="199" y="380" type="curve" smooth="yes"/>
      <point x="186" y="497"/>
      <point x="173" y="629"/>
      <point x="166" y="706" type="curve"/>
      <point x="9" y="707" type="line"/>
      <point x="22" y="634"/>
      <point x="50" y="478"/>
      <point x="77" y="329" type="curve" smooth="yes"/>
      <point x="104" y="179"/>
      <point x="131" y="37"/>
      <point x="139" y="-8" type="curve"/>
    </contour>
  </outline>
</glyph>
<glyph name="X" format="2">
  <advance width="433"/>
  <unicode hex="0058"/>
  <outline>
    <contour>
      <point x="-25" y="-2" type="curve"/>
      <point x="125" y="-1" type="line"/>
      <point x="169" y="102"/>
      <point x="210" y="201"/>
      <point x="256" y="298" type="curve" smooth="yes"/>
      <point x="320" y="433"/>
      <point x="389" y="561"/>
      <point x="457" y="691" type="curve"/>
      <point x="307" y="692" type="line"/>
      <point x="272" y="610"/>
      <point x="233" y="512"/>
      <point x="183" y="411" type="curve" smooth="yes"/>
      <point x="114" y="272"/>
      <point x="42" y="123"/>
    </contour>
    <contour>
      <point x="303" y="-11" type="curve"/>
      <point x="459" y="-7" type="line"/>
      <point x="380" y="151"/>
      <point x="310" y="304"/>
      <point x="243" y="447" type="curve" smooth="yes"/>
      <point x="203" y="532"/>
      <point x="171" y="612"/>
      <point x="139" y="688" type="curve"/>
      <point x="-16" y="690" type="line"/>
      <point x="37" y="588"/>
      <point x="109" y="444"/>
      <point x="179" y="291" type="curve" smooth="yes"/>
      <point x="225" y="191"/>
      <point x="266" y="87"/>
    </contour>
  </outline>
</glyph>
<glyph name="Y" format="2">
  <advance width="399"/>
  <unicode hex="0059"/>
  <anchor x="199" y="0" name="bottom"/>
  <anchor x="201" y="693" name="top"/>
  <outline>
    <contour>
      <point x="124" y="0" type="curve"/>
      <point x="273" y="1" type="line"/>
      <point x="268" y="70"/>
      <point x="267" y="130"/>
      <point x="267" y="224" type="curve"/>
      <point x="125" y="234" type="line"/>
      <point x="128" y="134"/>
      <point x="126" y="48"/>
    </contour>
    <contour>
      <point x="-30" y="704" type="line"/>
      <point x="-9" y="637"/>
      <point x="20" y="544"/>
      <point x="48" y="448" type="curve" smooth="yes"/>
      <point x="82" y="332"/>
      <point x="119" y="215"/>
      <point x="140" y="137" type="curve"/>
      <point x="253" y="136" type="line"/>
      <point x="271" y="200"/>
      <point x="318" y="345"/>
      <point x="361" y="481" type="curve" smooth="yes"/>
      <point x="388" y="567"/>
      <point x="416" y="648"/>
      <point x="433" y="698" type="curve"/>
      <point x="280" y="694" type="line"/>
      <point x="267" y="636"/>
      <point x="251" y="568"/>
      <point x="237" y="505" type="curve" smooth="yes"/>
      <point x="223" y="444"/>
      <point x="209" y="389"/>
      <point x="199" y="354" type="curve"/>
      <point x="193" y="376"/>
      <point x="180" y="432"/>
      <point x="166" y="496" type="curve" smooth="yes"/>
      <point x="150" y="567"/>
      <point x="135" y="648"/>
      <point x="125" y="704" type="curve"/>
    </contour>
  </outline>
</glyph>
<glyph name="Z" format="2">
  <advance width="383"/>
  <unicode hex="005A"/>
  <anchor x="199" y="693" name="top"/>
  <outline>
    <contour>
      <point x="17" y="693" type="curve"/>
      <point x="13" y="581" type="line"/>
      <point x="58" y="581"/>
      <point x="76" y="584"/>
      <point x="151" y="584" type="curve" smooth="yes"/>
      <point x="172" y="584"/>
      <point x="198" y="583"/>
      <point x="217" y="584" type="curve"/>
      <point x="179" y="493"/>
      <point x="152" y="426"/>
      <point x="123" y="360" type="curve" smooth="yes"/>
      <point x="91" y="287"/>
      <point x="56" y="215"/>
      <point x="4" y="111" type="curve"/>
      <point x="11" y="1" type="line"/>
      <point x="42" y="2"/>
      <point x="136" y="3"/>
      <point x="191" y="3" type="curve" smooth="yes"/>
      <point x="270" y="3"/>
      <point x="329" y="0"/>
      <point x="379" y="0" type="curve"/>
      <point x="380" y="114" type="line"/>
      <point x="325" y="114"/>
      <point x="312" y="111"/>
      <point x="236" y="111" type="curve" smooth="yes"/>
      <point x="206" y="111"/>
      <point x="177" y="111"/>
      <point x="150" y="111" type="curve"/>
      <point x="181" y="181"/>
      <point x="211" y="247"/>
      <point x="247" y="328" type="curve" smooth="yes"/>
      <point x="278" y="397"/>
      <point x="315" y="478"/>
      <point x="365" y="581" type="curve"/>
      <point x="366" y="695" type="line"/>
      <point x="301" y="694"/>
      <point x="241" y="693"/>
      <point x="200" y="692" type="curve" smooth="yes"/>
      <point x="149" y="691"/>
      <point x="86" y="694"/>
    </contour>
  </outline>
</glyph>
<glyph name="bracketleft" format="2">
  <advance width="444"/>
  <unicode hex="005B"/>
  <outline>
    <contour>
      <point x="74" y="-139" type="curve"/>
      <point x="199" y="-128" type="line"/>
      <point x="194" y="123"/>
      <point x="194" y="172"/>
      <point x="194" y="296" type="curve" smooth="yes"/>
      <point x="194" y="393"/>
      <point x="197" y="460"/>
      <point x="199" y="671" type="curve"/>
      <point x="75" y="692" type="line"/>
      <point x="75" y="700"/>
      <point x="79" y="509"/>
      <point x="79" y="303" type="curve" smooth="yes"/>
      <point x="79" y="98"/>
      <point x="77" y="-85"/>
    </contour>
    <contour>
      <point x="74" y="-139" type="line"/>
      <point x="62" y="-139"/>
      <point x="116" y="-138"/>
      <point x="356" y="-130" type="curve"/>
      <point x="364" y="-9" type="line"/>
      <point x="193" y="-16"/>
      <point x="124" y="-21"/>
      <point x="102" y="-24" type="curve"/>
    </contour>
    <contour>
      <point x="91" y="594" type="line"/>
      <point x="137" y="595"/>
      <point x="368" y="596"/>
      <point x="363" y="596" type="curve"/>
      <point x="352" y="702" type="line"/>
      <point x="181" y="695"/>
      <point x="92" y="692"/>
      <point x="75" y="692" type="curve"/>
    </contour>
  </outline>
</glyph>
<glyph name="backslash" format="2">
  <advance width="392"/>
  <unicode hex="005C"/>
  <outline>
    <contour>
      <point x="367" y="-1" type="line"/>
      <point x="319" y="128"/>
      <point x="284" y="241"/>
      <point x="244" y="367" type="curve" smooth="yes"/>
      <point x="207" y="483"/>
      <point x="181" y="579"/>
      <point x="154" y="700" type="curve"/>
      <point x="25" y="698" type="line"/>
      <point x="57" y="597"/>
      <point x="86" y="492"/>
      <point x="127" y="366" type="curve" smooth="yes"/>
      <point x="169" y="236"/>
      <point x="206" y="119"/>
      <point x="240" y="0" type="curve"/>
    </contour>
  </outline>
</glyph>
<glyph name="bracketright" format="2">
  <advance width="444"/>
  <unicode hex="005D"/>
  <outline>
    <contour>
      <point x="369" y="-129" type="line"/>
      <point x="369" y="-137"/>
      <point x="365" y="54"/>
      <point x="365" y="260" type="curve" smooth="yes"/>
      <point x="365" y="465"/>
      <point x="367" y="648"/>
      <point x="370" y="702" type="curve"/>
      <point x="245" y="691" type="line"/>
      <point x="250" y="440"/>
      <point x="250" y="391"/>
      <point x="250" y="267" type="curve" smooth="yes"/>
      <point x="250" y="170"/>
      <point x="247" y="103"/>
      <point x="245" y="-108" type="curve"/>
    </contour>
    <contour>
      <point x="92" y="-139" type="line"/>
      <point x="263" y="-132"/>
      <point x="352" y="-129"/>
      <point x="369" y="-129" type="curve"/>
      <point x="353" y="-31" type="line"/>
      <point x="307" y="-32"/>
      <point x="76" y="-33"/>
      <point x="81" y="-33" type="curve"/>
    </contour>
    <contour>
      <point x="80" y="572" type="line"/>
      <point x="251" y="579"/>
      <point x="320" y="584"/>
      <point x="342" y="587" type="curve"/>
      <point x="370" y="702" type="line"/>
      <point x="382" y="702"/>
      <point x="336" y="701"/>
      <point x="88" y="693" type="curve"/>
    </contour>
  </outline>
</glyph>
<glyph name="asciicircum" format="2">
  <advance width="472"/>
  <unicode hex="005E"/>
  <outline>
    <contour>
      <point x="311" y="364" type="curve"/>
      <point x="430" y="366" type="line"/>
      <point x="388" y="453"/>
      <point x="354" y="526"/>
      <point x="338" y="563" type="curve" smooth="yes"/>
      <point x="308" y="628"/>
      <point x="310" y="630"/>
      <point x="274" y="704" type="curve"/>
      <point x="174" y="699" type="line"/>
      <point x="194" y="643"/>
      <point x="225" y="579"/>
      <point x="253" y="511" type="curve" smooth="yes"/>
      <point x="275" y="457"/>
      <point x="298" y="395"/>
    </contour>
    <contour>
      <point x="159" y="367" type="line"/>
      <point x="182" y="430"/>
      <point x="191" y="465"/>
      <point x="210" y="522" type="curve" smooth="yes"/>
      <point x="233" y="588"/>
      <point x="270" y="687"/>
      <point x="276" y="704" type="curve"/>
      <point x="176" y="699" type="line"/>
      <point x="178" y="702"/>
      <point x="147" y="615"/>
      <point x="118" y="546" type="curve" smooth="yes"/>
      <point x="90" y="482"/>
      <point x="73" y="443"/>
      <point x="44" y="372" type="curve"/>
    </contour>
  </outline>
</glyph>
<glyph name="underscore" format="2">
  <advance width="434"/>
  <unicode hex="005F"/>
  <outline>
    <contour>
      <point x="47" y="-129" type="line"/>
      <point x="47" y="-129"/>
      <point x="151" y="-126"/>
      <point x="218" y="-125" type="curve" smooth="yes"/>
      <point x="290" y="-124"/>
      <point x="387" y="-126"/>
      <point x="387" y="-126" type="curve"/>
      <point x="389" y="-32" type="line"/>
      <point x="389" y="-32"/>
      <point x="287" y="-35"/>
      <point x="212" y="-36" type="curve" smooth="yes"/>
      <point x="138" y="-37"/>
      <point x="45" y="-34"/>
      <point x="45" y="-34" type="curve"/>
    </contour>
  </outline>
</glyph>
<glyph name="a" format="2">
  <advance width="388"/>
  <unicode hex="0061"/>
  <anchor x="185" y="0" name="bottom"/>
  <anchor x="299" y="-1" name="ogonek"/>
  <anchor x="194" y="515" name="top"/>
  <outline>
    <contour>
      <point x="237" y="0" type="line"/>
      <point x="357" y="0" type="line"/>
      <point x="355" y="244" type="line"/>
      <point x="358" y="344" type="line" smooth="yes"/>
      <point x="361" y="429"/>
      <point x="329" y="525"/>
      <point x="197" y="525" type="curve" smooth="yes"/>
      <point x="89" y="525"/>
      <point x="33" y="463"/>
      <point x="33" y="376" type="curve" smooth="yes"/>
      <point x="33" y="358"/>
      <point x="36" y="338"/>
      <point x="41" y="318" type="curve"/>
      <point x="167" y="325" type="line"/>
      <point x="162" y="343"/>
      <point x="159" y="360"/>
      <point x="159" y="376" type="curve" smooth="yes"/>
      <point x="159" y="407"/>
      <point x="174" y="422"/>
      <point x="198" y="422" type="curve" smooth="yes"/>
      <point x="218" y="422"/>
      <point x="231" y="413"/>
      <point x="232" y="383" type="curve" smooth="yes"/>
      <point x="241" y="85" type="line"/>
    </contour>
    <contour>
      <point x="145" y="-9" type="curve" smooth="yes"/>
      <point x="254" y="-9"/>
      <point x="281" y="133"/>
      <point x="281" y="311" type="curve"/>
      <point x="236" y="263" type="line"/>
      <point x="236" y="140"/>
      <point x="214" y="100"/>
      <point x="182" y="100" type="curve" smooth="yes"/>
      <point x="162" y="100"/>
      <point x="152" y="115"/>
      <point x="152" y="142" type="curve" smooth="yes"/>
      <point x="152" y="176"/>
      <point x="169" y="193"/>
      <point x="202" y="217" type="curve" smooth="yes"/>
      <point x="235" y="241"/>
      <point x="276" y="277"/>
      <point x="287" y="348" type="curve"/>
      <point x="232" y="383" type="line"/>
      <point x="232" y="339"/>
      <point x="213" y="312"/>
      <point x="172" y="292" type="curve" smooth="yes"/>
      <point x="102" y="258"/>
      <point x="24" y="225"/>
      <point x="24" y="122" type="curve" smooth="yes"/>
      <point x="24" y="46"/>
      <point x="65" y="-9"/>
    </contour>
  </outline>
</glyph>
<glyph name="b" format="2">
  <advance width="430"/>
  <unicode hex="0062"/>
  <outline>
    <contour>
      <point x="250" y="-7" type="curve" smooth="yes"/>
      <point x="321" y="-7"/>
      <point x="362" y="50"/>
      <point x="383" y="132" type="curve" smooth="yes"/>
      <point x="401" y="201"/>
      <point x="404" y="307"/>
      <point x="394" y="382" type="curve" smooth="yes"/>
      <point x="383" y="467"/>
      <point x="345" y="525"/>
      <point x="267" y="525" type="curve" smooth="yes"/>
      <point x="175" y="525"/>
      <point x="144" y="408"/>
      <point x="144" y="250" type="curve"/>
      <point x="181" y="292" type="line"/>
      <point x="181" y="389"/>
      <point x="204" y="422"/>
      <point x="225" y="422" type="curve" smooth="yes"/>
      <point x="248" y="422"/>
      <point x="256" y="392"/>
      <point x="259" y="341" type="curve" smooth="yes"/>
      <point x="261" y="307"/>
      <point x="259" y="201"/>
      <point x="255" y="162" type="curve" smooth="yes"/>
      <point x="251" y="119"/>
      <point x="239" y="88"/>
      <point x="219" y="88" type="curve" smooth="yes"/>
      <point x="193" y="88"/>
      <point x="181" y="130"/>
      <point x="181" y="238" type="curve"/>
      <point x="144" y="256" type="line"/>
      <point x="144" y="115"/>
      <point x="159" y="-7"/>
    </contour>
    <contour>
      <point x="165" y="-2" type="line"/>
      <point x="179" y="100" type="line"/>
      <point x="181" y="171"/>
      <point x="181" y="277"/>
      <point x="181" y="343" type="curve"/>
      <point x="181" y="465"/>
      <point x="183" y="584"/>
      <point x="184" y="690" type="curve"/>
      <point x="39" y="686" type="line"/>
      <point x="45" y="555"/>
      <point x="46" y="452"/>
      <point x="47" y="344" type="curve" smooth="yes"/>
      <point x="48" y="255"/>
      <point x="44" y="50"/>
      <point x="42" y="0" type="curve"/>
    </contour>
  </outline>
</glyph>
<glyph name="c" format="2">
  <advance width="403"/>
  <unicode hex="0063"/>
  <anchor x="216" y="0" name="bottom"/>
  <anchor x="204" y="515" name="top"/>
  <outline>
    <contour>
      <point x="204" y="-9" type="curve" smooth="yes"/>
      <point x="320" y="-9"/>
      <point x="378" y="43"/>
      <point x="378" y="138" type="curve" smooth="yes"/>
      <point x="378" y="147"/>
      <point x="377" y="157"/>
      <point x="376" y="168" type="curve"/>
      <point x="242" y="168" type="line"/>
      <point x="246" y="155"/>
      <point x="249" y="143"/>
      <point x="249" y="132" type="curve" smooth="yes"/>
      <point x="249" y="106"/>
      <point x="236" y="89"/>
      <point x="210" y="89" type="curve" smooth="yes"/>
      <point x="186" y="89"/>
      <point x="175" y="110"/>
      <point x="170" y="149" type="curve" smooth="yes"/>
      <point x="166" y="178"/>
      <point x="166" y="216"/>
      <point x="166" y="263" type="curve" smooth="yes"/>
      <point x="166" y="310"/>
      <point x="167" y="349"/>
      <point x="171" y="376" type="curve" smooth="yes"/>
      <point x="176" y="411"/>
      <point x="186" y="429"/>
      <point x="208" y="429" type="curve" smooth="yes"/>
      <point x="236" y="429"/>
      <point x="244" y="395"/>
      <point x="244" y="341" type="curve" smooth="yes"/>
      <point x="244" y="325"/>
      <point x="243" y="308"/>
      <point x="242" y="289" type="curve"/>
      <point x="377" y="286" type="line"/>
      <point x="379" y="305"/>
      <point x="380" y="322"/>
      <point x="380" y="339" type="curve" smooth="yes"/>
      <point x="380" y="450"/>
      <point x="333" y="524"/>
      <point x="213" y="524" type="curve" smooth="yes"/>
      <point x="131" y="524"/>
      <point x="83" y="489"/>
      <point x="56" y="430" type="curve" smooth="yes"/>
      <point x="35" y="384"/>
      <point x="29" y="324"/>
      <point x="29" y="255" type="curve" smooth="yes"/>
      <point x="29" y="196"/>
      <point x="34" y="143"/>
      <point x="49" y="100" type="curve" smooth="yes"/>
      <point x="72" y="33"/>
      <point x="117" y="-9"/>
    </contour>
  </outline>
</glyph>
<glyph name="d" format="2">
  <advance width="424"/>
  <unicode hex="0064"/>
  <anchor x="294" y="604" name="center"/>
  <anchor x="376" y="409" name="topright"/>
  <outline>
    <contour>
      <point x="35" y="253" type="curve" smooth="yes"/>
      <point x="35" y="189"/>
      <point x="38" y="131"/>
      <point x="51" y="85" type="curve" smooth="yes"/>
      <point x="67" y="27"/>
      <point x="103" y="-10"/>
      <point x="172" y="-10" type="curve" smooth="yes"/>
      <point x="211" y="-10"/>
      <point x="245" y="12"/>
      <point x="264" y="59" type="curve"/>
      <point x="269" y="-2" type="line"/>
      <point x="390" y="0" type="line"/>
      <point x="386" y="86"/>
      <point x="384" y="228"/>
      <point x="385" y="324" type="curve" smooth="yes"/>
      <point x="386" y="415"/>
      <point x="386" y="531"/>
      <point x="393" y="696" type="curve"/>
      <point x="255" y="690" type="line"/>
      <point x="256" y="643"/>
      <point x="256" y="535"/>
      <point x="257" y="488" type="curve"/>
      <point x="239" y="511"/>
      <point x="207" y="525"/>
      <point x="178" y="525" type="curve" smooth="yes"/>
      <point x="115" y="525"/>
      <point x="77" y="483"/>
      <point x="57" y="421" type="curve" smooth="yes"/>
      <point x="42" y="374"/>
      <point x="35" y="314"/>
    </contour>
    <contour>
      <point x="171" y="257" type="curve" smooth="yes"/>
      <point x="171" y="300"/>
      <point x="171" y="344"/>
      <point x="177" y="377" type="curve" smooth="yes"/>
      <point x="183" y="410"/>
      <point x="193" y="433"/>
      <point x="213" y="433" type="curve" smooth="yes"/>
      <point x="234" y="433"/>
      <point x="244" y="406"/>
      <point x="248" y="364" type="curve" smooth="yes"/>
      <point x="251" y="335"/>
      <point x="251" y="298"/>
      <point x="251" y="259" type="curve" smooth="yes"/>
      <point x="251" y="227"/>
      <point x="249" y="193"/>
      <point x="245" y="164" type="curve" smooth="yes"/>
      <point x="240" y="125"/>
      <point x="228" y="96"/>
      <point x="208" y="96" type="curve" smooth="yes"/>
      <point x="185" y="96"/>
      <point x="177" y="120"/>
      <point x="173" y="159" type="curve" smooth="yes"/>
      <point x="170" y="185"/>
      <point x="171" y="219"/>
    </contour>
  </outline>
</glyph>
<glyph name="e" format="2">
  <advance width="405"/>
  <unicode hex="0065"/>
  <anchor x="212" y="0" name="bottom"/>
  <anchor x="238" y="-1" name="ogonek"/>
  <anchor x="206" y="515" name="top"/>
  <outline>
    <contour>
      <point x="210" y="-12" type="curve" smooth="yes"/>
      <point x="316" y="-12"/>
      <point x="378" y="39"/>
      <point x="378" y="131" type="curve" smooth="yes"/>
      <point x="378" y="143"/>
      <point x="377" y="155"/>
      <point x="375" y="168" type="curve"/>
      <point x="241" y="168" type="line"/>
      <point x="246" y="154"/>
      <point x="248" y="141"/>
      <point x="248" y="129" type="curve" smooth="yes"/>
      <point x="248" y="105"/>
      <point x="237" y="89"/>
      <point x="212" y="89" type="curve" smooth="yes"/>
      <point x="185" y="89"/>
      <point x="173" y="110"/>
      <point x="168" y="147" type="curve" smooth="yes"/>
      <point x="164" y="178"/>
      <point x="165" y="220"/>
      <point x="165" y="271" type="curve" smooth="yes"/>
      <point x="165" y="317"/>
      <point x="164" y="356"/>
      <point x="169" y="384" type="curve" smooth="yes"/>
      <point x="174" y="412"/>
      <point x="184" y="429"/>
      <point x="207" y="429" type="curve" smooth="yes"/>
      <point x="236" y="429"/>
      <point x="243" y="397"/>
      <point x="243" y="351" type="curve" smooth="yes"/>
      <point x="243" y="336"/>
      <point x="242" y="320"/>
      <point x="241" y="303" type="curve"/>
      <point x="370" y="221" type="line"/>
      <point x="375" y="260"/>
      <point x="378" y="296"/>
      <point x="378" y="328" type="curve" smooth="yes"/>
      <point x="378" y="448"/>
      <point x="338" y="524"/>
      <point x="214" y="524" type="curve" smooth="yes"/>
      <point x="131" y="524"/>
      <point x="82" y="486"/>
      <point x="55" y="423" type="curve" smooth="yes"/>
      <point x="36" y="378"/>
      <point x="28" y="320"/>
      <point x="28" y="255" type="curve" smooth="yes"/>
      <point x="28" y="185"/>
      <point x="37" y="122"/>
      <point x="61" y="75" type="curve" smooth="yes"/>
      <point x="88" y="21"/>
      <point x="135" y="-12"/>
    </contour>
    <contour>
      <point x="65" y="213" type="line"/>
      <point x="166" y="220"/>
      <point x="370" y="221"/>
      <point x="370" y="221" type="curve"/>
      <point x="341" y="315" type="line"/>
      <point x="61" y="313" type="line"/>
    </contour>
  </outline>
</glyph>
<glyph name="g" format="2">
  <advance width="426"/>
  <unicode hex="0067"/>
  <anchor x="218" y="515" name="top"/>
  <outline>
    <contour>
      <point x="191" y="-166" type="curve" smooth="yes"/>
      <point x="348" y="-166"/>
      <point x="379" y="-73"/>
      <point x="379" y="19" type="curve" smooth="yes"/>
      <point x="379" y="126"/>
      <point x="379" y="164"/>
      <point x="379" y="278" type="curve" smooth="yes"/>
      <point x="379" y="383"/>
      <point x="381" y="416"/>
      <point x="391" y="515" type="curve"/>
      <point x="276" y="515" type="line"/>
      <point x="262" y="460"/>
      <point x="246" y="400"/>
      <point x="246" y="277" type="curve"/>
      <point x="246" y="146"/>
      <point x="246" y="45"/>
      <point x="246" y="-8" type="curve" smooth="yes"/>
      <point x="246" y="-47"/>
      <point x="237" y="-78"/>
      <point x="198" y="-78" type="curve" smooth="yes"/>
      <point x="169" y="-78"/>
      <point x="157" y="-68"/>
      <point x="157" y="-50" type="curve" smooth="yes"/>
      <point x="157" y="-45"/>
      <point x="157" y="-41"/>
      <point x="158" y="-36" type="curve"/>
      <point x="44" y="-52" type="line"/>
      <point x="44" y="-58"/>
      <point x="44" y="-63"/>
      <point x="44" y="-69" type="curve" smooth="yes"/>
      <point x="44" y="-130"/>
      <point x="99" y="-166"/>
    </contour>
    <contour>
      <point x="173" y="-10" type="curve" smooth="yes"/>
      <point x="279" y="-10"/>
      <point x="299" y="194"/>
      <point x="299" y="249" type="curve"/>
      <point x="246" y="256" type="line"/>
      <point x="246" y="160"/>
      <point x="240" y="91"/>
      <point x="205" y="91" type="curve" smooth="yes"/>
      <point x="186" y="91"/>
      <point x="179" y="116"/>
      <point x="175" y="156" type="curve" smooth="yes"/>
      <point x="172" y="185"/>
      <point x="173" y="222"/>
      <point x="173" y="263" type="curve" smooth="yes"/>
      <point x="173" y="302"/>
      <point x="174" y="339"/>
      <point x="178" y="368" type="curve" smooth="yes"/>
      <point x="183" y="402"/>
      <point x="192" y="424"/>
      <point x="209" y="424" type="curve" smooth="yes"/>
      <point x="246" y="424"/>
      <point x="246" y="354"/>
      <point x="246" y="258" type="curve"/>
      <point x="299" y="249" type="line"/>
      <point x="299" y="449"/>
      <point x="264" y="523"/>
      <point x="189" y="523" type="curve" smooth="yes"/>
      <point x="123" y="523"/>
      <point x="82" y="481"/>
      <point x="59" y="419" type="curve" smooth="yes"/>
      <point x="42" y="374"/>
      <point x="36" y="318"/>
      <point x="36" y="261" type="curve" smooth="yes"/>
      <point x="36" y="197"/>
      <point x="42" y="132"/>
      <point x="60" y="82" type="curve" smooth="yes"/>
      <point x="80" y="27"/>
      <point x="115" y="-10"/>
    </contour>
  </outline>
</glyph>
<glyph name="h" format="2">
  <advance width="435"/>
  <unicode hex="0068"/>
  <anchor x="211" y="0" name="bottom"/>
  <anchor x="173" y="600" name="center"/>
  <anchor x="102" y="669" name="top"/>
  <outline>
    <contour>
      <point x="41" y="1" type="curve"/>
      <point x="185" y="1" type="line"/>
      <point x="184" y="82"/>
      <point x="181" y="161"/>
      <point x="181" y="276" type="curve"/>
      <point x="175" y="407"/>
      <point x="174" y="440"/>
      <point x="173" y="690" type="curve"/>
      <point x="45" y="690" type="line"/>
      <point x="47" y="413"/>
      <point x="47" y="375"/>
      <point x="47" y="246" type="curve" smooth="yes"/>
      <point x="47" y="119"/>
      <point x="45" y="76"/>
    </contour>
    <contour>
      <point x="396" y="0" type="line"/>
      <point x="393" y="81"/>
      <point x="391" y="103"/>
      <point x="391" y="211" type="curve" smooth="yes"/>
      <point x="391" y="251"/>
      <point x="391" y="289"/>
      <point x="391" y="353" type="curve" smooth="yes"/>
      <point x="391" y="489"/>
      <point x="337" y="521"/>
      <point x="271" y="521" type="curve" smooth="yes"/>
      <point x="178" y="521"/>
      <point x="138" y="418"/>
      <point x="138" y="267" type="curve"/>
      <point x="181" y="276" type="line"/>
      <point x="181" y="396"/>
      <point x="207" y="416"/>
      <point x="227" y="416" type="curve" smooth="yes"/>
      <point x="253" y="416"/>
      <point x="257" y="389"/>
      <point x="257" y="343" type="curve" smooth="yes"/>
      <point x="257" y="280"/>
      <point x="257" y="247"/>
      <point x="257" y="207" type="curve" smooth="yes"/>
      <point x="257" y="96"/>
      <point x="255" y="79"/>
      <point x="251" y="1" type="curve"/>
    </contour>
  </outline>
</glyph>
<glyph name="k" format="2">
  <advance width="418"/>
  <unicode hex="006B"/>
  <anchor x="234" y="0" name="bottom"/>
  <outline>
    <contour>
      <point x="299" y="0" type="curve"/>
      <point x="456" y="3" type="line"/>
      <point x="377" y="103"/>
      <point x="318" y="189"/>
      <point x="259" y="278" type="curve"/>
      <point x="324" y="374"/>
      <point x="368" y="438"/>
      <point x="427" y="519" type="curve"/>
      <point x="282" y="521" type="line"/>
      <point x="238" y="445"/>
      <point x="200" y="381"/>
      <point x="122" y="269" type="curve"/>
      <point x="188" y="177"/>
      <point x="247" y="88"/>
    </contour>
    <contour>
      <point x="38" y="1" type="curve"/>
      <point x="177" y="1" type="line"/>
      <point x="177" y="1"/>
      <point x="175" y="120"/>
      <point x="175" y="264" type="curve"/>
      <point x="175" y="406"/>
      <point x="175" y="691"/>
      <point x="175" y="691" type="curve"/>
      <point x="43" y="691" type="line"/>
      <point x="43" y="691"/>
      <point x="44" y="412"/>
      <point x="44" y="266" type="curve"/>
      <point x="44" y="119"/>
      <point x="38" y="1"/>
    </contour>
  </outline>
</glyph>
<glyph name="l" format="2">
  <advance width="221"/>
  <unicode hex="006C"/>
  <anchor x="114" y="0" name="bottom"/>
  <anchor x="112" y="359" name="center"/>
  <anchor x="113" y="693" name="top"/>
  <anchor x="253" y="473" name="topright"/>
  <outline>
    <contour>
      <point x="38" y="0" type="curve"/>
      <point x="177" y="11" type="line"/>
      <point x="176" y="58"/>
      <point x="175" y="160"/>
      <point x="175" y="264" type="curve" smooth="yes"/>
      <point x="175" y="396"/>
      <point x="177" y="547"/>
      <point x="178" y="691" type="curve"/>
      <point x="41" y="692" type="line"/>
      <point x="43" y="599"/>
      <point x="46" y="403"/>
      <point x="46" y="266" type="curve" smooth="yes"/>
      <point x="46" y="117"/>
      <point x="44" y="82"/>
    </contour>
  </outline>
</glyph>
<glyph name="m" format="2">
  <advance width="643"/>
  <unicode hex="006D"/>
  <outline>
    <contour>
      <point x="255" y="1" type="curve"/>
      <point x="400" y="1" type="line"/>
      <point x="397" y="82"/>
      <point x="395" y="172"/>
      <point x="395" y="280" type="curve" smooth="yes"/>
      <point x="395" y="352"/>
      <point x="412" y="521"/>
      <point x="271" y="521" type="curve" smooth="yes"/>
      <point x="178" y="521"/>
      <point x="144" y="423"/>
      <point x="144" y="227" type="curve"/>
      <point x="187" y="276" type="line"/>
      <point x="187" y="388"/>
      <point x="212" y="416"/>
      <point x="232" y="416" type="curve" smooth="yes"/>
      <point x="256" y="416"/>
      <point x="261" y="394"/>
      <point x="261" y="355" type="curve" smooth="yes"/>
      <point x="261" y="292"/>
      <point x="261" y="247"/>
      <point x="261" y="207" type="curve" smooth="yes"/>
      <point x="261" y="136"/>
      <point x="259" y="79"/>
    </contour>
    <contour>
      <point x="47" y="1" type="curve"/>
      <point x="191" y="1" type="line"/>
      <point x="190" y="82"/>
      <point x="187" y="161"/>
      <point x="187" y="276" type="curve"/>
      <point x="181" y="407"/>
      <point x="180" y="498"/>
      <point x="179" y="522" type="curve"/>
      <point x="51" y="515" type="line"/>
      <point x="52" y="465"/>
      <point x="53" y="375"/>
      <point x="53" y="246" type="curve" smooth="yes"/>
      <point x="53" y="119"/>
      <point x="51" y="76"/>
    </contour>
    <contour>
      <point x="595" y="0" type="line"/>
      <point x="598" y="85"/>
      <point x="598" y="131"/>
      <point x="601" y="215" type="curve" smooth="yes"/>
      <point x="602" y="239"/>
      <point x="602" y="288"/>
      <point x="602" y="347" type="curve" smooth="yes"/>
      <point x="602" y="488"/>
      <point x="548" y="525"/>
      <point x="482" y="525" type="curve" smooth="yes"/>
      <point x="378" y="525"/>
      <point x="352" y="427"/>
      <point x="352" y="231" type="curve"/>
      <point x="395" y="280" type="line"/>
      <point x="395" y="392"/>
      <point x="420" y="420"/>
      <point x="443" y="420" type="curve" smooth="yes"/>
      <point x="463" y="420"/>
      <point x="468" y="398"/>
      <point x="468" y="359" type="curve" smooth="yes"/>
      <point x="468" y="291"/>
      <point x="467" y="239"/>
      <point x="466" y="211" type="curve" smooth="yes"/>
      <point x="463" y="134"/>
      <point x="460" y="93"/>
      <point x="454" y="13" type="curve"/>
    </contour>
  </outline>
</glyph>
<glyph name="n" format="2">
  <advance width="440"/>
  <unicode hex="006E"/>
  <anchor x="219" y="0" name="bottom"/>
  <anchor x="228" y="515" name="top"/>
  <anchor x="144" y="525" name="topright"/>
  <outline>
    <contour>
      <point x="400" y="0" type="line"/>
      <point x="397" y="81"/>
      <point x="395" y="103"/>
      <point x="395" y="211" type="curve" smooth="yes"/>
      <point x="395" y="251"/>
      <point x="395" y="289"/>
      <point x="395" y="353" type="curve" smooth="yes"/>
      <point x="395" y="489"/>
      <point x="341" y="521"/>
      <point x="275" y="521" type="curve" smooth="yes"/>
      <point x="182" y="521"/>
      <point x="142" y="418"/>
      <point x="142" y="267" type="curve"/>
      <point x="185" y="276" type="line"/>
      <point x="185" y="396"/>
      <point x="211" y="416"/>
      <point x="231" y="416" type="curve" smooth="yes"/>
      <point x="257" y="416"/>
      <point x="261" y="389"/>
      <point x="261" y="343" type="curve" smooth="yes"/>
      <point x="261" y="280"/>
      <point x="261" y="247"/>
      <point x="261" y="207" type="curve" smooth="yes"/>
      <point x="261" y="96"/>
      <point x="259" y="79"/>
      <point x="255" y="1" type="curve"/>
    </contour>
    <contour>
      <point x="45" y="1" type="curve"/>
      <point x="189" y="1" type="line"/>
      <point x="188" y="82"/>
      <point x="185" y="161"/>
      <point x="185" y="276" type="curve"/>
      <point x="179" y="407"/>
      <point x="178" y="498"/>
      <point x="177" y="522" type="curve"/>
      <point x="49" y="515" type="line"/>
      <point x="50" y="465"/>
      <point x="51" y="375"/>
      <point x="51" y="246" type="curve" smooth="yes"/>
      <point x="51" y="119"/>
      <point x="49" y="76"/>
    </contour>
  </outline>
</glyph>
<glyph name="p" format="2">
  <advance width="434"/>
  <unicode hex="0070"/>
  <outline>
    <contour>
      <point x="42" y="-166" type="curve"/>
      <point x="192" y="-160" type="line"/>
      <point x="186" y="21" type="line"/>
      <point x="201" y="1"/>
      <point x="221" y="-10"/>
      <point x="249" y="-10" type="curve" smooth="yes"/>
      <point x="308" y="-10"/>
      <point x="346" y="22"/>
      <point x="370" y="72" type="curve" smooth="yes"/>
      <point x="394" y="123"/>
      <point x="402" y="191"/>
      <point x="402" y="262" type="curve" smooth="yes"/>
      <point x="402" y="319"/>
      <point x="399" y="372"/>
      <point x="389" y="415" type="curve" smooth="yes"/>
      <point x="373" y="482"/>
      <point x="342" y="525"/>
      <point x="275" y="525" type="curve" smooth="yes"/>
      <point x="233" y="525"/>
      <point x="202" y="502"/>
      <point x="181" y="458" type="curve"/>
      <point x="182" y="520" type="line"/>
      <point x="48" y="515" type="line"/>
      <point x="48" y="443"/>
      <point x="51" y="308"/>
      <point x="51" y="204" type="curve" smooth="yes"/>
      <point x="51" y="62"/>
      <point x="47" y="-54"/>
    </contour>
    <contour>
      <point x="185" y="223" type="curve" smooth="yes"/>
      <point x="185" y="258" type="line" smooth="yes"/>
      <point x="185" y="355"/>
      <point x="199" y="419"/>
      <point x="229" y="419" type="curve" smooth="yes"/>
      <point x="251" y="419"/>
      <point x="260" y="399"/>
      <point x="263" y="363" type="curve" smooth="yes"/>
      <point x="265" y="336"/>
      <point x="266" y="300"/>
      <point x="266" y="258" type="curve" smooth="yes"/>
      <point x="266" y="209"/>
      <point x="265" y="161"/>
      <point x="258" y="128" type="curve" smooth="yes"/>
      <point x="252" y="100"/>
      <point x="242" y="82"/>
      <point x="224" y="82" type="curve" smooth="yes"/>
      <point x="197" y="82"/>
      <point x="185" y="130"/>
    </contour>
  </outline>
</glyph>
<glyph name="q" format="2">
  <advance width="413"/>
  <unicode hex="0071"/>
  <outline>
    <contour>
      <point x="29" y="255" type="curve" smooth="yes"/>
      <point x="29" y="191"/>
      <point x="33" y="130"/>
      <point x="49" y="83" type="curve" smooth="yes"/>
      <point x="68" y="26"/>
      <point x="104" y="-12"/>
      <point x="169" y="-12" type="curve" smooth="yes"/>
      <point x="202" y="-12"/>
      <point x="233" y="6"/>
      <point x="251" y="35" type="curve"/>
      <point x="254" y="-160" type="line"/>
      <point x="386" y="-164" type="line"/>
      <point x="382" y="-73"/>
      <point x="379" y="81"/>
      <point x="379" y="199" type="curve" smooth="yes"/>
      <point x="379" y="322"/>
      <point x="381" y="429"/>
      <point x="385" y="528" type="curve"/>
      <point x="257" y="525" type="line"/>
      <point x="258" y="454" type="line"/>
      <point x="239" y="501"/>
      <point x="210" y="523"/>
      <point x="165" y="523" type="curve" smooth="yes"/>
      <point x="105" y="523"/>
      <point x="71" y="489"/>
      <point x="52" y="435" type="curve" smooth="yes"/>
      <point x="35" y="387"/>
      <point x="29" y="323"/>
    </contour>
    <contour>
      <point x="165" y="261" type="curve" smooth="yes"/>
      <point x="165" y="302"/>
      <point x="164" y="341"/>
      <point x="168" y="370" type="curve" smooth="yes"/>
      <point x="172" y="402"/>
      <point x="181" y="422"/>
      <point x="203" y="422" type="curve" smooth="yes"/>
      <point x="218" y="422"/>
      <point x="229" y="402"/>
      <point x="235" y="373" type="curve" smooth="yes"/>
      <point x="241" y="342"/>
      <point x="245" y="300"/>
      <point x="245" y="260" type="curve" smooth="yes"/>
      <point x="245" y="213"/>
      <point x="245" y="167"/>
      <point x="239" y="134" type="curve" smooth="yes"/>
      <point x="234" y="104"/>
      <point x="225" y="85"/>
      <point x="207" y="85" type="curve" smooth="yes"/>
      <point x="183" y="85"/>
      <point x="172" y="111"/>
      <point x="168" y="152" type="curve" smooth="yes"/>
      <point x="165" y="182"/>
      <point x="165" y="220"/>
    </contour>
  </outline>
</glyph>
<glyph name="r" format="2">
  <advance width="366"/>
  <unicode hex="0072"/>
  <anchor x="106" y="0" name="bottom"/>
  <anchor x="204" y="515" name="top"/>
  <outline>
    <contour>
      <point x="220" y="207" type="curve"/>
      <point x="340" y="208" type="line"/>
      <point x="357" y="269"/>
      <point x="368" y="330"/>
      <point x="368" y="383" type="curve" smooth="yes"/>
      <point x="368" y="469"/>
      <point x="339" y="531"/>
      <point x="256" y="531" type="curve" smooth="yes"/>
      <point x="188" y="531"/>
      <point x="129" y="462"/>
      <point x="129" y="243" type="curve"/>
      <point x="176" y="286" type="line"/>
      <point x="176" y="356"/>
      <point x="184" y="428"/>
      <point x="221" y="428" type="curve" smooth="yes"/>
      <point x="238" y="428"/>
      <point x="245" y="414"/>
      <point x="245" y="379" type="curve" smooth="yes"/>
      <point x="245" y="336"/>
      <point x="241" y="276"/>
    </contour>
    <contour>
      <point x="33" y="-2" type="curve"/>
      <point x="180" y="0" type="line"/>
      <point x="178" y="98"/>
      <point x="176" y="172"/>
      <point x="176" y="286" type="curve"/>
      <point x="169" y="401"/>
      <point x="167" y="467"/>
      <point x="166" y="527" type="curve"/>
      <point x="34" y="520" type="line"/>
      <point x="38" y="467"/>
      <point x="45" y="374"/>
      <point x="42" y="245" type="curve" smooth="yes"/>
      <point x="40" y="145"/>
      <point x="38" y="98"/>
    </contour>
  </outline>
</glyph>
<glyph name="s" format="2">
  <advance width="379"/>
  <unicode hex="0073"/>
  <anchor x="193" y="0" name="bottom"/>
  <anchor x="190" y="515" name="top"/>
  <outline>
    <contour>
      <point x="183" y="-10" type="curve"/>
      <point x="294" y="-10"/>
      <point x="361" y="44"/>
      <point x="361" y="142" type="curve" smooth="yes"/>
      <point x="361" y="254"/>
      <point x="265" y="285"/>
      <point x="200" y="320" type="curve" smooth="yes"/>
      <point x="168" y="337"/>
      <point x="159" y="349"/>
      <point x="159" y="385" type="curve" smooth="yes"/>
      <point x="159" y="420"/>
      <point x="174" y="435"/>
      <point x="191" y="435" type="curve" smooth="yes"/>
      <point x="216" y="435"/>
      <point x="225" y="414"/>
      <point x="225" y="384" type="curve" smooth="yes"/>
      <point x="225" y="369"/>
      <point x="223" y="353"/>
      <point x="220" y="336" type="curve"/>
      <point x="354" y="336" type="line"/>
      <point x="356" y="351"/>
      <point x="357" y="365"/>
      <point x="357" y="378" type="curve" smooth="yes"/>
      <point x="357" y="472"/>
      <point x="305" y="533"/>
      <point x="197" y="533" type="curve" smooth="yes"/>
      <point x="98" y="533"/>
      <point x="24" y="476"/>
      <point x="24" y="374" type="curve" smooth="yes"/>
      <point x="24" y="277"/>
      <point x="86" y="235"/>
      <point x="143" y="206" type="curve" smooth="yes"/>
      <point x="192" y="181"/>
      <point x="223" y="170"/>
      <point x="223" y="130" type="curve" smooth="yes"/>
      <point x="223" y="104"/>
      <point x="211" y="90"/>
      <point x="191" y="90" type="curve" smooth="yes"/>
      <point x="169" y="90"/>
      <point x="159" y="105"/>
      <point x="159" y="129" type="curve" smooth="yes"/>
      <point x="159" y="137"/>
      <point x="160" y="146"/>
      <point x="162" y="156" type="curve"/>
      <point x="28" y="155" type="line"/>
      <point x="26" y="144"/>
      <point x="25" y="133"/>
      <point x="25" y="123" type="curve" smooth="yes"/>
      <point x="25" y="43"/>
      <point x="85" y="-10"/>
    </contour>
  </outline>
</glyph>
<glyph name="t" format="2">
  <advance width="387"/>
  <unicode hex="0074"/>
  <anchor x="203" y="0" name="bottom"/>
  <anchor x="172" y="331" name="center"/>
  <anchor x="195" y="555" name="topright"/>
  <outline>
    <contour>
      <point x="202" y="-10" type="curve" smooth="yes"/>
      <point x="332" y="-10"/>
      <point x="373" y="58"/>
      <point x="373" y="157" type="curve" smooth="yes"/>
      <point x="373" y="185"/>
      <point x="369" y="215"/>
      <point x="364" y="247" type="curve"/>
      <point x="237" y="248" type="line"/>
      <point x="242" y="218"/>
      <point x="244" y="181"/>
      <point x="244" y="148" type="curve" smooth="yes"/>
      <point x="244" y="110"/>
      <point x="236" y="85"/>
      <point x="214" y="85" type="curve" smooth="yes"/>
      <point x="189" y="85"/>
      <point x="187" y="107"/>
      <point x="187" y="146" type="curve" smooth="yes"/>
      <point x="187" y="188"/>
      <point x="189" y="235"/>
      <point x="192" y="288" type="curve" smooth="yes"/>
      <point x="197" y="385"/>
      <point x="207" y="479"/>
      <point x="217" y="607" type="curve"/>
      <point x="70" y="606" type="line"/>
      <point x="70" y="482"/>
      <point x="61" y="395"/>
      <point x="55" y="298" type="curve" smooth="yes"/>
      <point x="52" y="248"/>
      <point x="50" y="201"/>
      <point x="50" y="155" type="curve" smooth="yes"/>
      <point x="50" y="46"/>
      <point x="92" y="-10"/>
    </contour>
    <contour>
      <point x="8" y="395" type="line"/>
      <point x="8" y="395"/>
      <point x="93" y="401"/>
      <point x="143" y="402" type="curve" smooth="yes"/>
      <point x="193" y="403"/>
      <point x="349" y="405"/>
      <point x="349" y="405" type="curve"/>
      <point x="353" y="515" type="line"/>
      <point x="353" y="515"/>
      <point x="178" y="512"/>
      <point x="129" y="512" type="curve" smooth="yes"/>
      <point x="100" y="512"/>
      <point x="35" y="513"/>
      <point x="18" y="513" type="curve"/>
    </contour>
  </outline>
</glyph>
<glyph name="u" format="2">
  <advance width="423"/>
  <unicode hex="0075"/>
  <anchor x="211" y="0" name="bottom"/>
  <anchor x="334" y="-1" name="ogonek"/>
  <anchor x="214" y="515" name="top"/>
  <anchor x="297" y="537" name="topright"/>
  <outline>
    <contour>
      <point x="145" y="-10" type="curve" smooth="yes"/>
      <point x="259" y="-10"/>
      <point x="315" y="130"/>
      <point x="317" y="311" type="curve"/>
      <point x="258" y="309" type="line"/>
      <point x="258" y="135"/>
      <point x="222" y="90"/>
      <point x="188" y="90" type="curve" smooth="yes"/>
      <point x="169" y="90"/>
      <point x="161" y="108"/>
      <point x="161" y="155" type="curve" smooth="yes"/>
      <point x="161" y="193"/>
      <point x="162" y="242"/>
      <point x="165" y="301" type="curve" smooth="yes"/>
      <point x="171" y="410"/>
      <point x="174" y="457"/>
      <point x="176" y="525" type="curve"/>
      <point x="44" y="519" type="line"/>
      <point x="44" y="435"/>
      <point x="43" y="390"/>
      <point x="42" y="317" type="curve" smooth="yes"/>
      <point x="41" y="239"/>
      <point x="40" y="173"/>
      <point x="40" y="132" type="curve" smooth="yes"/>
      <point x="40" y="34"/>
      <point x="80" y="-10"/>
    </contour>
    <contour>
      <point x="270" y="0" type="line"/>
      <point x="385" y="0" type="line"/>
      <point x="385" y="2"/>
      <point x="379" y="199"/>
      <point x="379" y="282" type="curve" smooth="yes"/>
      <point x="379" y="372"/>
      <point x="385" y="407"/>
      <point x="391" y="526" type="curve"/>
      <point x="258" y="528" type="line"/>
      <point x="258" y="492"/>
      <point x="258" y="390"/>
      <point x="258" y="309" type="curve" smooth="yes"/>
      <point x="258" y="246"/>
      <point x="259" y="183"/>
      <point x="260" y="112" type="curve"/>
    </contour>
  </outline>
</glyph>
<glyph name="v" format="2">
  <advance width="384"/>
  <unicode hex="0076"/>
  <outline>
    <contour>
      <point x="12" y="526" type="line"/>
      <point x="37" y="417"/>
      <point x="46" y="364"/>
      <point x="62" y="276" type="curve" smooth="yes"/>
      <point x="79" y="185"/>
      <point x="91" y="98"/>
      <point x="105" y="0" type="curve"/>
      <point x="279" y="-4" type="line"/>
      <point x="295" y="94"/>
      <point x="307" y="181"/>
      <point x="324" y="270" type="curve" smooth="yes"/>
      <point x="335" y="326"/>
      <point x="353" y="413"/>
      <point x="378" y="522" type="curve"/>
      <point x="244" y="515" type="line"/>
      <point x="232" y="431"/>
      <point x="225" y="377"/>
      <point x="215" y="288" type="curve" smooth="yes"/>
      <point x="208" y="227"/>
      <point x="203" y="198"/>
      <point x="195" y="129" type="curve"/>
      <point x="187" y="201"/>
      <point x="183" y="233"/>
      <point x="176" y="297" type="curve" smooth="yes"/>
      <point x="167" y="385"/>
      <point x="162" y="439"/>
      <point x="152" y="526" type="curve"/>
    </contour>
  </outline>
</glyph>
<glyph name="w" format="2">
  <advance width="618"/>
  <unicode hex="0077"/>
  <anchor x="313" y="515" name="top"/>
  <outline>
    <contour>
      <point x="114" y="-2" type="curve"/>
      <point x="273" y="2" type="line"/>
      <point x="283" y="72"/>
      <point x="287" y="112"/>
      <point x="301" y="216" type="curve" smooth="yes"/>
      <point x="307" y="261"/>
      <point x="311" y="303"/>
      <point x="315" y="332" type="curve"/>
      <point x="317" y="316"/>
      <point x="322" y="269"/>
      <point x="328" y="214" type="curve" smooth="yes"/>
      <point x="337" y="130"/>
      <point x="348" y="29"/>
      <point x="351" y="0" type="curve"/>
      <point x="510" y="-4" type="line"/>
      <point x="525" y="81"/>
      <point x="545" y="202"/>
      <point x="565" y="313" type="curve" smooth="yes"/>
      <point x="583" y="415"/>
      <point x="597" y="468"/>
      <point x="606" y="515" type="curve"/>
      <point x="470" y="519" type="line"/>
      <point x="464" y="448"/>
      <point x="461" y="406"/>
      <point x="452" y="328" type="curve" smooth="yes"/>
      <point x="444" y="258"/>
      <point x="438" y="192"/>
      <point x="431" y="143" type="curve"/>
      <point x="427" y="184"/>
      <point x="421" y="230"/>
      <point x="416" y="280" type="curve" smooth="yes"/>
      <point x="409" y="351"/>
      <point x="406" y="390"/>
      <point x="400" y="465" type="curve"/>
      <point x="235" y="465" type="line"/>
      <point x="230" y="409"/>
      <point x="224" y="361"/>
      <point x="214" y="274" type="curve" smooth="yes"/>
      <point x="209" y="229"/>
      <point x="203" y="184"/>
      <point x="197" y="143" type="curve"/>
      <point x="193" y="196"/>
      <point x="187" y="261"/>
      <point x="181" y="329" type="curve" smooth="yes"/>
      <point x="174" y="403"/>
      <point x="173" y="442"/>
      <point x="167" y="515" type="curve"/>
      <point x="25" y="515" type="line"/>
      <point x="37" y="446"/>
      <point x="51" y="400"/>
      <point x="65" y="311" type="curve" smooth="yes"/>
      <point x="82" y="206"/>
      <point x="99" y="95"/>
    </contour>
  </outline>
</glyph>
<glyph name="x" format="2">
  <advance width="346"/>
  <unicode hex="0078"/>
  <outline>
    <contour>
      <point x="116" y="-5" type="line"/>
      <point x="162" y="102"/>
      <point x="179" y="137"/>
      <point x="237" y="261" type="curve" smooth="yes"/>
      <point x="294" y="383"/>
      <point x="309" y="415"/>
      <point x="356" y="518" type="curve"/>
      <point x="231" y="518" type="line"/>
      <point x="196" y="428"/>
      <point x="186" y="408"/>
      <point x="125" y="279" type="curve" smooth="yes"/>
      <point x="66" y="154"/>
      <point x="46" y="116"/>
      <point x="-15" y="-3" type="curve"/>
    </contour>
    <contour>
      <point x="243" y="0" type="curve"/>
      <point x="372" y="3" type="line"/>
      <point x="320" y="103"/>
      <point x="291" y="156"/>
      <point x="230" y="279" type="curve" smooth="yes"/>
      <point x="167" y="406"/>
      <point x="155" y="431"/>
      <point x="119" y="518" type="curve"/>
      <point x="-13" y="515" type="line"/>
      <point x="36" y="419"/>
      <point x="53" y="382"/>
      <point x="114" y="261" type="curve" smooth="yes"/>
      <point x="175" y="141"/>
      <point x="206" y="85"/>
    </contour>
  </outline>
</glyph>
<glyph name="y" format="2">
  <advance width="399"/>
  <unicode hex="0079"/>
  <anchor x="340" y="29" name="bottom"/>
  <anchor x="198" y="555" name="top"/>
  <outline>
    <contour>
      <point x="239" y="-164" type="line"/>
      <point x="264" y="-38"/>
      <point x="298" y="119"/>
      <point x="333" y="276" type="curve" smooth="yes"/>
      <point x="355" y="374"/>
      <point x="371" y="433"/>
      <point x="393" y="524" type="curve"/>
      <point x="250" y="524" type="line"/>
      <point x="241" y="447"/>
      <point x="236" y="397"/>
      <point x="220" y="304" type="curve" smooth="yes"/>
      <point x="194" y="155"/>
      <point x="149" y="-6"/>
      <point x="104" y="-156" type="curve"/>
    </contour>
    <contour>
      <point x="159" y="-35" type="curve"/>
      <point x="248" y="23" type="line"/>
      <point x="221" y="133"/>
      <point x="207" y="217"/>
      <point x="189" y="307" type="curve" smooth="yes"/>
      <point x="174" y="380"/>
      <point x="166" y="416"/>
      <point x="149" y="513" type="curve"/>
      <point x="1" y="511" type="line"/>
      <point x="33" y="406"/>
      <point x="51" y="353"/>
      <point x="74" y="270" type="curve" smooth="yes"/>
      <point x="104" y="160"/>
      <point x="134" y="64"/>
    </contour>
  </outline>
</glyph>
<glyph name="z" format="2">
  <advance width="317"/>
  <unicode hex="007A"/>
  <anchor x="162" y="515" name="top"/>
  <outline>
    <contour>
      <point x="108" y="10" type="line"/>
      <point x="126" y="52"/>
      <point x="163" y="132"/>
      <point x="204" y="212" type="curve" smooth="yes"/>
      <point x="239" y="280"/>
      <point x="275" y="350"/>
      <point x="297" y="394" type="curve"/>
      <point x="197" y="495" type="line"/>
      <point x="168" y="429"/>
      <point x="133" y="349"/>
      <point x="99" y="277" type="curve" smooth="yes"/>
      <point x="66" y="208"/>
      <point x="34" y="147"/>
      <point x="16" y="111" type="curve"/>
    </contour>
    <contour>
      <point x="17" y="-4" type="line"/>
      <point x="17" y="-4"/>
      <point x="112" y="0"/>
      <point x="160" y="0" type="curve"/>
      <point x="210" y="-1"/>
      <point x="301" y="0"/>
      <point x="301" y="0" type="curve"/>
      <point x="306" y="113" type="line"/>
      <point x="306" y="113"/>
      <point x="223" y="111"/>
      <point x="175" y="110" type="curve"/>
      <point x="131" y="110"/>
      <point x="16" y="111"/>
      <point x="16" y="111" type="curve"/>
    </contour>
    <contour>
      <point x="19" y="394" type="line"/>
      <point x="19" y="394"/>
      <point x="95" y="396"/>
      <point x="144" y="396" type="curve"/>
      <point x="197" y="396"/>
      <point x="297" y="394"/>
      <point x="297" y="394" type="curve"/>
      <point x="294" y="515" type="line"/>
      <point x="294" y="515"/>
      <point x="196" y="512"/>
      <point x="160" y="512" type="curve"/>
      <point x="110" y="511"/>
      <point x="24" y="512"/>
      <point x="24" y="512" type="curve"/>
    </contour>
  </outline>
</glyph>
<glyph name="braceleft" format="2">
  <advance width="544"/>
  <unicode hex="007B"/>
  <outline>
    <contour>
      <point x="327" y="-146" type="curve" smooth="yes"/>
      <point x="370" y="-146"/>
      <point x="417" y="-135"/>
      <point x="463" y="-112" type="curve"/>
      <point x="439" y="-7" type="line"/>
      <point x="400" y="-28"/>
      <point x="371" y="-42"/>
      <point x="340" y="-42" type="curve" smooth="yes"/>
      <point x="307" y="-42"/>
      <point x="281" y="-22"/>
      <point x="281" y="27" type="curve" smooth="yes"/>
      <point x="281" y="50"/>
      <point x="302" y="131"/>
      <point x="302" y="177" type="curve" smooth="yes"/>
      <point x="302" y="228"/>
      <point x="275" y="255"/>
      <point x="226" y="279" type="curve"/>
      <point x="274" y="300"/>
      <point x="300" y="322"/>
      <point x="300" y="374" type="curve" smooth="yes"/>
      <point x="300" y="432"/>
      <point x="269" y="511"/>
      <point x="269" y="545" type="curve" smooth="yes"/>
      <point x="269" y="592"/>
      <point x="291" y="612"/>
      <point x="323" y="612" type="curve" smooth="yes"/>
      <point x="351" y="612"/>
      <point x="378" y="600"/>
      <point x="419" y="580" type="curve"/>
      <point x="449" y="685" type="line"/>
      <point x="403" y="708"/>
      <point x="355" y="719"/>
      <point x="313" y="719" type="curve" smooth="yes"/>
      <point x="217" y="719"/>
      <point x="149" y="671"/>
      <point x="149" y="570" type="curve" smooth="yes"/>
      <point x="149" y="513"/>
      <point x="181" y="443"/>
      <point x="181" y="384" type="curve" smooth="yes"/>
      <point x="181" y="332"/>
      <point x="128" y="315"/>
      <point x="71" y="323" type="curve"/>
      <point x="83" y="224" type="line"/>
      <point x="136" y="231"/>
      <point x="181" y="215"/>
      <point x="181" y="161" type="curve" smooth="yes"/>
      <point x="181" y="112"/>
      <point x="159" y="53"/>
      <point x="159" y="3" type="curve" smooth="yes"/>
      <point x="159" y="-96"/>
      <point x="229" y="-146"/>
    </contour>
  </outline>
</glyph>
<glyph name="bar" format="2">
  <advance width="237"/>
  <unicode hex="007C"/>
  <outline>
    <contour>
      <point x="183" y="-136" type="line"/>
      <point x="184" y="-145"/>
      <point x="173" y="112"/>
      <point x="173" y="289" type="curve" smooth="yes"/>
      <point x="173" y="467"/>
      <point x="183" y="702"/>
      <point x="182" y="694" type="curve"/>
      <point x="55" y="693" type="line"/>
      <point x="54" y="701"/>
      <point x="57" y="462"/>
      <point x="57" y="288" type="curve" smooth="yes"/>
      <point x="57" y="113"/>
      <point x="53" y="-142"/>
      <point x="54" y="-134" type="curve"/>
    </contour>
  </outline>
</glyph>
<glyph name="braceright" format="2">
  <advance width="544"/>
  <unicode hex="007D"/>
  <outline>
    <contour>
      <point x="230" y="-146" type="curve" smooth="yes"/>
      <point x="326" y="-146"/>
      <point x="394" y="-98"/>
      <point x="394" y="3" type="curve" smooth="yes"/>
      <point x="394" y="60"/>
      <point x="362" y="130"/>
      <point x="362" y="189" type="curve" smooth="yes"/>
      <point x="362" y="241"/>
      <point x="415" y="258"/>
      <point x="472" y="250" type="curve"/>
      <point x="460" y="349" type="line"/>
      <point x="407" y="342"/>
      <point x="362" y="358"/>
      <point x="362" y="412" type="curve" smooth="yes"/>
      <point x="362" y="461"/>
      <point x="384" y="520"/>
      <point x="384" y="570" type="curve" smooth="yes"/>
      <point x="384" y="669"/>
      <point x="314" y="719"/>
      <point x="216" y="719" type="curve" smooth="yes"/>
      <point x="173" y="719"/>
      <point x="126" y="708"/>
      <point x="80" y="685" type="curve"/>
      <point x="104" y="580" type="line"/>
      <point x="143" y="601"/>
      <point x="172" y="615"/>
      <point x="203" y="615" type="curve" smooth="yes"/>
      <point x="236" y="615"/>
      <point x="262" y="595"/>
      <point x="262" y="546" type="curve" smooth="yes"/>
      <point x="262" y="523"/>
      <point x="241" y="442"/>
      <point x="241" y="396" type="curve" smooth="yes"/>
      <point x="241" y="345"/>
      <point x="268" y="318"/>
      <point x="317" y="294" type="curve"/>
      <point x="269" y="273"/>
      <point x="243" y="251"/>
      <point x="243" y="199" type="curve" smooth="yes"/>
      <point x="243" y="141"/>
      <point x="274" y="62"/>
      <point x="274" y="28" type="curve" smooth="yes"/>
      <point x="274" y="-19"/>
      <point x="252" y="-39"/>
      <point x="220" y="-39" type="curve" smooth="yes"/>
      <point x="192" y="-39"/>
      <point x="165" y="-27"/>
      <point x="124" y="-7" type="curve"/>
      <point x="94" y="-112" type="line"/>
      <point x="140" y="-135"/>
      <point x="188" y="-146"/>
    </contour>
  </outline>
</glyph>
<glyph name="asciitilde" format="2">
  <advance width="500"/>
  <unicode hex="007E"/>
  <outline>
    <contour>
      <point x="58" y="220" type="line"/>
      <point x="74" y="229"/>
      <point x="122" y="244"/>
      <point x="161" y="244" type="curve" smooth="yes"/>
      <point x="209" y="244"/>
      <point x="265" y="228"/>
      <point x="312" y="228" type="curve" smooth="yes"/>
      <point x="386" y="228"/>
      <point x="431" y="252"/>
      <point x="444" y="263" type="curve"/>
      <point x="440" y="357" type="line"/>
      <point x="405" y="335"/>
      <point x="367" y="321"/>
      <point x="304" y="321" type="curve" smooth="yes"/>
      <point x="256" y="321"/>
      <point x="236" y="338"/>
      <point x="167" y="338" type="curve" smooth="yes"/>
      <point x="111" y="338"/>
      <point x="80" y="322"/>
      <point x="53" y="308" type="curve"/>
    </contour>
  </outline>
</glyph>
<glyph name="exclamdown" format="2">
  <advance width="294"/>
  <unicode hex="00A1"/>
  <outline>
    <contour>
      <point x="80" y="-158" type="curve"/>
      <point x="214" y="-150" type="line"/>
      <point x="209" y="-44"/>
      <point x="205" y="1"/>
      <point x="202" y="70" type="curve" smooth="yes"/>
      <point x="199" y="141"/>
      <point x="195" y="214"/>
      <point x="191" y="323" type="curve"/>
      <point x="111" y="321" type="line"/>
      <point x="107" y="200"/>
      <point x="104" y="145"/>
      <point x="99" y="76" type="curve" smooth="yes"/>
      <point x="93" y="-9"/>
      <point x="91" y="-37"/>
    </contour>
    <contour>
      <point x="99" y="382" type="line"/>
      <point x="207" y="385" type="line"/>
      <point x="211" y="554" type="line"/>
      <point x="88" y="544" type="line"/>
    </contour>
  </outline>
</glyph>
<glyph name="cent" format="2">
  <advance width="500"/>
  <unicode hex="00A2"/>
  <outline>
    <contour>
      <point x="248" y="31" type="curve" smooth="yes"/>
      <point x="382" y="31"/>
      <point x="442" y="82"/>
      <point x="442" y="179" type="curve" smooth="yes"/>
      <point x="442" y="188"/>
      <point x="441" y="198"/>
      <point x="440" y="208" type="curve"/>
      <point x="306" y="208" type="line"/>
      <point x="309" y="199"/>
      <point x="312" y="187"/>
      <point x="312" y="176" type="curve" smooth="yes"/>
      <point x="312" y="152"/>
      <point x="299" y="129"/>
      <point x="254" y="129" type="curve" smooth="yes"/>
      <point x="220" y="129"/>
      <point x="204" y="151"/>
      <point x="197" y="182" type="curve" smooth="yes"/>
      <point x="187" y="220"/>
      <point x="186" y="338"/>
      <point x="199" y="382" type="curve" smooth="yes"/>
      <point x="208" y="409"/>
      <point x="223" y="429"/>
      <point x="252" y="429" type="curve" smooth="yes"/>
      <point x="299" y="429"/>
      <point x="308" y="391"/>
      <point x="308" y="339" type="curve" smooth="yes"/>
      <point x="308" y="324"/>
      <point x="307" y="307"/>
      <point x="306" y="289" type="curve"/>
      <point x="441" y="286" type="line"/>
      <point x="443" y="305"/>
      <point x="444" y="324"/>
      <point x="444" y="341" type="curve" smooth="yes"/>
      <point x="444" y="456"/>
      <point x="395" y="524"/>
      <point x="257" y="524" type="curve" smooth="yes"/>
      <point x="168" y="524"/>
      <point x="116" y="492"/>
      <point x="87" y="441" type="curve" smooth="yes"/>
      <point x="42" y="364"/>
      <point x="42" y="200"/>
      <point x="80" y="122" type="curve" smooth="yes"/>
      <point x="107" y="68"/>
      <point x="157" y="31"/>
    </contour>
    <contour>
      <point x="287" y="-45" type="line"/>
      <point x="281" y="69"/>
      <point x="278" y="159"/>
      <point x="278" y="311" type="curve" smooth="yes"/>
      <point x="278" y="462"/>
      <point x="284" y="500"/>
      <point x="291" y="604" type="curve"/>
      <point x="219" y="608" type="line"/>
      <point x="220" y="524"/>
      <point x="222" y="549"/>
      <point x="222" y="322" type="curve" smooth="yes"/>
      <point x="222" y="96"/>
      <point x="220" y="43"/>
      <point x="215" y="-44" type="curve"/>
    </contour>
  </outline>
</glyph>
<glyph name="currency" format="2">
  <advance width="600"/>
  <unicode hex="00A4"/>
  <outline>
    <contour>
      <point x="293" y="40" type="curve" smooth="yes"/>
      <point x="462" y="40"/>
      <point x="535" y="160"/>
      <point x="535" y="284" type="curve" smooth="yes"/>
      <point x="535" y="421"/>
      <point x="459" y="517"/>
      <point x="310" y="517" type="curve" smooth="yes"/>
      <point x="159" y="517"/>
      <point x="75" y="409"/>
      <point x="75" y="270" type="curve" smooth="yes"/>
      <point x="75" y="148"/>
      <point x="137" y="40"/>
    </contour>
    <contour>
      <point x="106" y="-14" type="line"/>
      <point x="192" y="91" type="line"/>
      <point x="121" y="162" type="line"/>
      <point x="24" y="62" type="line"/>
    </contour>
    <contour>
      <point x="117" y="390" type="line"/>
      <point x="191" y="458" type="line"/>
      <point x="107" y="562" type="line"/>
      <point x="24" y="487" type="line"/>
    </contour>
    <contour>
      <point x="300" y="155" type="curve" smooth="yes"/>
      <point x="230" y="155"/>
      <point x="201" y="210"/>
      <point x="201" y="277" type="curve" smooth="yes"/>
      <point x="201" y="338"/>
      <point x="227" y="400"/>
      <point x="306" y="400" type="curve" smooth="yes"/>
      <point x="380" y="400"/>
      <point x="409" y="354"/>
      <point x="409" y="276" type="curve" smooth="yes"/>
      <point x="409" y="201"/>
      <point x="374" y="155"/>
    </contour>
    <contour>
      <point x="491" y="-13" type="line"/>
      <point x="573" y="63" type="line"/>
      <point x="477" y="161" type="line"/>
      <point x="404" y="93" type="line"/>
    </contour>
    <contour>
      <point x="477" y="385" type="line"/>
      <point x="573" y="486" type="line"/>
      <point x="491" y="561" type="line"/>
      <point x="405" y="455" type="line"/>
    </contour>
  </outline>
</glyph>
<glyph name="yen" format="2">
  <advance width="500"/>
  <unicode hex="00A5"/>
  <outline>
    <contour>
      <point x="173" y="0" type="line"/>
      <point x="322" y="1" type="line"/>
      <point x="316" y="184" type="line"/>
      <point x="339" y="258"/>
      <point x="376" y="372"/>
      <point x="410" y="481" type="curve" smooth="yes"/>
      <point x="437" y="567"/>
      <point x="465" y="648"/>
      <point x="482" y="698" type="curve"/>
      <point x="329" y="694" type="line"/>
      <point x="316" y="636"/>
      <point x="300" y="568"/>
      <point x="286" y="505" type="curve" smooth="yes"/>
      <point x="272" y="444"/>
      <point x="258" y="389"/>
      <point x="248" y="354" type="curve"/>
      <point x="242" y="376"/>
      <point x="229" y="432"/>
      <point x="215" y="496" type="curve" smooth="yes"/>
      <point x="199" y="567"/>
      <point x="184" y="648"/>
      <point x="174" y="704" type="curve"/>
      <point x="19" y="704" type="line"/>
      <point x="40" y="637"/>
      <point x="69" y="544"/>
      <point x="97" y="448" type="curve" smooth="yes"/>
      <point x="124" y="355"/>
      <point x="154" y="260"/>
      <point x="175" y="187" type="curve"/>
    </contour>
    <contour>
      <point x="52" y="83" type="line"/>
      <point x="97" y="86"/>
      <point x="182" y="90"/>
      <point x="251" y="90" type="curve" smooth="yes"/>
      <point x="321" y="90"/>
      <point x="390" y="89"/>
      <point x="423" y="88" type="curve"/>
      <point x="437" y="186" type="line"/>
      <point x="396" y="184"/>
      <point x="316" y="181"/>
      <point x="250" y="179" type="curve" smooth="yes"/>
      <point x="188" y="177"/>
      <point x="109" y="178"/>
      <point x="67" y="179" type="curve"/>
    </contour>
    <contour>
      <point x="55" y="215" type="line"/>
      <point x="100" y="218"/>
      <point x="185" y="222"/>
      <point x="254" y="222" type="curve" smooth="yes"/>
      <point x="324" y="222"/>
      <point x="393" y="220"/>
      <point x="426" y="219" type="curve"/>
      <point x="440" y="317" type="line"/>
      <point x="399" y="315"/>
      <point x="319" y="312"/>
      <point x="253" y="311" type="curve" smooth="yes"/>
      <point x="191" y="310"/>
      <point x="112" y="310"/>
      <point x="70" y="311" type="curve"/>
    </contour>
  </outline>
</glyph>
<glyph name="section" format="2">
  <advance width="448"/>
  <unicode hex="00A7"/>
  <outline>
    <contour>
      <point x="224" y="701" type="curve" smooth="yes"/>
      <point x="118" y="701"/>
      <point x="45" y="632"/>
      <point x="45" y="533" type="curve" smooth="yes"/>
      <point x="45" y="428"/>
      <point x="92" y="387"/>
      <point x="200" y="333" type="curve" smooth="yes"/>
      <point x="243" y="311"/>
      <point x="275" y="299"/>
      <point x="275" y="271" type="curve" smooth="yes"/>
      <point x="275" y="229"/>
      <point x="197" y="221"/>
      <point x="186" y="263" type="curve"/>
      <point x="198" y="154" type="line"/>
      <point x="307" y="135"/>
      <point x="402" y="175"/>
      <point x="402" y="274" type="curve" smooth="yes"/>
      <point x="402" y="364"/>
      <point x="357" y="392"/>
      <point x="240" y="451" type="curve" smooth="yes"/>
      <point x="192" y="475"/>
      <point x="174" y="497"/>
      <point x="174" y="529" type="curve" smooth="yes"/>
      <point x="174" y="580"/>
      <point x="190" y="605"/>
      <point x="221" y="605" type="curve" smooth="yes"/>
      <point x="252" y="605"/>
      <point x="269" y="575"/>
      <point x="269" y="518" type="curve" smooth="yes"/>
      <point x="269" y="493"/>
      <point x="267" y="473"/>
      <point x="263" y="457" type="curve"/>
      <point x="392" y="457" type="line"/>
      <point x="397" y="482"/>
      <point x="400" y="506"/>
      <point x="400" y="531" type="curve" smooth="yes"/>
      <point x="400" y="642"/>
      <point x="339" y="701"/>
    </contour>
    <contour>
      <point x="223" y="-109" type="curve" smooth="yes"/>
      <point x="329" y="-109"/>
      <point x="402" y="-40"/>
      <point x="402" y="59" type="curve" smooth="yes"/>
      <point x="402" y="168"/>
      <point x="335" y="218"/>
      <point x="273" y="246" type="curve" smooth="yes"/>
      <point x="211" y="274"/>
      <point x="172" y="295"/>
      <point x="172" y="321" type="curve" smooth="yes"/>
      <point x="172" y="371"/>
      <point x="250" y="371"/>
      <point x="261" y="329" type="curve"/>
      <point x="249" y="438" type="line"/>
      <point x="140" y="474"/>
      <point x="45" y="421"/>
      <point x="45" y="314" type="curve" smooth="yes"/>
      <point x="45" y="239"/>
      <point x="90" y="200"/>
      <point x="207" y="141" type="curve" smooth="yes"/>
      <point x="255" y="117"/>
      <point x="273" y="95"/>
      <point x="273" y="63" type="curve" smooth="yes"/>
      <point x="273" y="12"/>
      <point x="257" y="-13"/>
      <point x="226" y="-13" type="curve" smooth="yes"/>
      <point x="195" y="-13"/>
      <point x="178" y="17"/>
      <point x="178" y="74" type="curve" smooth="yes"/>
      <point x="178" y="99"/>
      <point x="180" y="119"/>
      <point x="184" y="135" type="curve"/>
      <point x="55" y="135" type="line"/>
      <point x="50" y="110"/>
      <point x="47" y="86"/>
      <point x="47" y="61" type="curve" smooth="yes"/>
      <point x="47" y="-50"/>
      <point x="108" y="-109"/>
    </contour>
  </outline>
</glyph>
<glyph name="dieresis" format="2">
  <advance width="355"/>
  <unicode hex="00A8"/>
  <anchor x="176" y="555" name="_top"/>
  <outline>
    <contour>
      <point x="333" y="624" type="line"/>
      <point x="332" y="726" type="line"/>
      <point x="224" y="723" type="line"/>
      <point x="228" y="629" type="line"/>
    </contour>
    <contour>
      <point x="128" y="624" type="line"/>
      <point x="128" y="726" type="line"/>
      <point x="20" y="723" type="line"/>
      <point x="24" y="629" type="line"/>
    </contour>
  </outline>
</glyph>
<glyph name="ordfeminine" format="2">
  <advance width="365"/>
  <unicode hex="00AA"/>
  <outline>
    <contour>
      <point x="60" y="530" type="curve" smooth="yes"/>
      <point x="60" y="492"/>
      <point x="95" y="472"/>
      <point x="133" y="472" type="curve" smooth="yes"/>
      <point x="162" y="472"/>
      <point x="194" y="483"/>
      <point x="215" y="506" type="curve"/>
      <point x="220" y="493"/>
      <point x="229" y="482"/>
      <point x="245" y="472" type="curve"/>
      <point x="305" y="500" type="line"/>
      <point x="292" y="511"/>
      <point x="288" y="531"/>
      <point x="288" y="545" type="curve" smooth="yes"/>
      <point x="288" y="624" type="line" smooth="yes"/>
      <point x="288" y="679"/>
      <point x="247" y="703"/>
      <point x="182" y="703" type="curve" smooth="yes"/>
      <point x="107" y="703"/>
      <point x="66" y="670"/>
      <point x="69" y="623" type="curve"/>
      <point x="136" y="618" type="line"/>
      <point x="133" y="635"/>
      <point x="136" y="653"/>
      <point x="177" y="653" type="curve" smooth="yes"/>
      <point x="203" y="653"/>
      <point x="212" y="645"/>
      <point x="212" y="628" type="curve" smooth="yes"/>
      <point x="212" y="614"/>
      <point x="178" y="608"/>
      <point x="142" y="598" type="curve" smooth="yes"/>
      <point x="102" y="588"/>
      <point x="60" y="575"/>
    </contour>
    <contour>
      <point x="135" y="535" type="curve" smooth="yes"/>
      <point x="135" y="546"/>
      <point x="145" y="553"/>
      <point x="158" y="558" type="curve" smooth="yes"/>
      <point x="176" y="566"/>
      <point x="199" y="571"/>
      <point x="211" y="577" type="curve"/>
      <point x="211" y="566" type="line" smooth="yes"/>
      <point x="211" y="529"/>
      <point x="178" y="520"/>
      <point x="156" y="520" type="curve" smooth="yes"/>
      <point x="142" y="520"/>
      <point x="135" y="527"/>
    </contour>
  </outline>
</glyph>
<glyph name="guillemetleft" format="2">
  <advance width="767"/>
  <unicode hex="00AB"/>
  <outline>
    <contour>
      <point x="80" y="215" type="line"/>
      <point x="141" y="252"/>
      <point x="198" y="294"/>
      <point x="258" y="331" type="curve" smooth="yes"/>
      <point x="302" y="358"/>
      <point x="343" y="384"/>
      <point x="387" y="409" type="curve"/>
      <point x="327" y="494" type="line"/>
      <point x="287" y="462"/>
      <point x="246" y="431"/>
      <point x="205" y="402" type="curve" smooth="yes"/>
      <point x="165" y="374"/>
      <point x="123" y="348"/>
      <point x="82" y="321" type="curve"/>
    </contour>
    <contour>
      <point x="326" y="34" type="curve"/>
      <point x="385" y="113" type="line"/>
      <point x="340" y="139"/>
      <point x="300" y="166"/>
      <point x="255" y="197" type="curve" smooth="yes"/>
      <point x="197" y="237"/>
      <point x="141" y="282"/>
      <point x="82" y="321" type="curve"/>
      <point x="80" y="215" type="line"/>
      <point x="120" y="187"/>
      <point x="162" y="160"/>
      <point x="201" y="130" type="curve" smooth="yes"/>
      <point x="241" y="100"/>
      <point x="286" y="67"/>
    </contour>
    <contour>
      <point x="380" y="215" type="line"/>
      <point x="441" y="252"/>
      <point x="498" y="294"/>
      <point x="558" y="331" type="curve" smooth="yes"/>
      <point x="602" y="358"/>
      <point x="643" y="384"/>
      <point x="687" y="409" type="curve"/>
      <point x="627" y="494" type="line"/>
      <point x="587" y="462"/>
      <point x="546" y="431"/>
      <point x="505" y="402" type="curve" smooth="yes"/>
      <point x="465" y="374"/>
      <point x="423" y="348"/>
      <point x="382" y="321" type="curve"/>
    </contour>
    <contour>
      <point x="626" y="34" type="curve"/>
      <point x="685" y="113" type="line"/>
      <point x="640" y="139"/>
      <point x="600" y="166"/>
      <point x="555" y="197" type="curve" smooth="yes"/>
      <point x="497" y="237"/>
      <point x="441" y="282"/>
      <point x="382" y="321" type="curve"/>
      <point x="380" y="215" type="line"/>
      <point x="420" y="187"/>
      <point x="462" y="160"/>
      <point x="501" y="130" type="curve" smooth="yes"/>
      <point x="541" y="100"/>
      <point x="586" y="67"/>
    </contour>
  </outline>
</glyph>
<glyph name="logicalnot" format="2">
  <advance width="550"/>
  <unicode hex="00AC"/>
  <outline>
    <contour>
      <point x="31" y="292" type="line"/>
      <point x="140" y="293"/>
      <point x="200" y="298"/>
      <point x="277" y="296" type="curve" smooth="yes"/>
      <point x="322" y="295"/>
      <point x="423" y="295"/>
      <point x="512" y="291" type="curve"/>
      <point x="521" y="397" type="line"/>
      <point x="422" y="393"/>
      <point x="321" y="394"/>
      <point x="269" y="395" type="curve" smooth="yes"/>
      <point x="184" y="397"/>
      <point x="133" y="394"/>
      <point x="23" y="397" type="curve"/>
    </contour>
    <contour>
      <point x="418" y="133" type="curve"/>
      <point x="523" y="137" type="line"/>
      <point x="522" y="186"/>
      <point x="518" y="221"/>
      <point x="519" y="275" type="curve"/>
      <point x="518" y="333"/>
      <point x="521" y="357"/>
      <point x="521" y="397" type="curve"/>
      <point x="416" y="369" type="line"/>
      <point x="420" y="319"/>
      <point x="420" y="319"/>
      <point x="420" y="267" type="curve" smooth="yes"/>
      <point x="420" y="207"/>
      <point x="418" y="174"/>
    </contour>
  </outline>
</glyph>
<glyph name="degree" format="2">
  <advance width="333"/>
  <unicode hex="00B0"/>
  <outline>
    <contour>
      <point x="169" y="494" type="curve"/>
      <point x="236" y="494"/>
      <point x="283" y="542"/>
      <point x="283" y="609" type="curve" smooth="yes"/>
      <point x="283" y="668"/>
      <point x="236" y="710"/>
      <point x="166" y="710" type="curve"/>
      <point x="95" y="710"/>
      <point x="50" y="664"/>
      <point x="50" y="593" type="curve" smooth="yes"/>
      <point x="50" y="574"/>
      <point x="54" y="494"/>
    </contour>
    <contour>
      <point x="170" y="541" type="curve" smooth="yes"/>
      <point x="117" y="541"/>
      <point x="106" y="574"/>
      <point x="106" y="603" type="curve" smooth="yes"/>
      <point x="106" y="633"/>
      <point x="128" y="663"/>
      <point x="166" y="663" type="curve" smooth="yes"/>
      <point x="194" y="663"/>
      <point x="227" y="645"/>
      <point x="227" y="611" type="curve" smooth="yes"/>
      <point x="227" y="571"/>
      <point x="211" y="541"/>
    </contour>
  </outline>
</glyph>
<glyph name="plusminus" format="2">
  <advance width="500"/>
  <unicode hex="00B1"/>
  <outline>
    <contour>
      <point x="311" y="235" type="line"/>
      <point x="305" y="288"/>
      <point x="302" y="342"/>
      <point x="302" y="409" type="curve" smooth="yes"/>
      <point x="302" y="479"/>
      <point x="307" y="536"/>
      <point x="309" y="577" type="curve"/>
      <point x="200" y="573" type="line"/>
      <point x="203" y="532"/>
      <point x="204" y="474"/>
      <point x="205" y="408" type="curve" smooth="yes"/>
      <point x="206" y="345"/>
      <point x="205" y="279"/>
      <point x="201" y="229" type="curve"/>
    </contour>
    <contour>
      <point x="74" y="85" type="line"/>
      <point x="106" y="85"/>
      <point x="205" y="89"/>
      <point x="258" y="89" type="curve" smooth="yes"/>
      <point x="314" y="89"/>
      <point x="399" y="88"/>
      <point x="436" y="88" type="curve"/>
      <point x="440" y="192" type="line"/>
      <point x="399" y="192"/>
      <point x="309" y="189"/>
      <point x="250" y="187" type="curve" smooth="yes"/>
      <point x="192" y="185"/>
      <point x="113" y="186"/>
      <point x="70" y="189" type="curve"/>
    </contour>
    <contour>
      <point x="69" y="345" type="line"/>
      <point x="106" y="346"/>
      <point x="206" y="351"/>
      <point x="267" y="351" type="curve" smooth="yes"/>
      <point x="328" y="351"/>
      <point x="407" y="346"/>
      <point x="436" y="346" type="curve"/>
      <point x="444" y="452" type="line"/>
      <point x="399" y="451"/>
      <point x="324" y="449"/>
      <point x="266" y="448" type="curve" smooth="yes"/>
      <point x="210" y="447"/>
      <point x="103" y="449"/>
      <point x="71" y="449" type="curve"/>
    </contour>
  </outline>
</glyph>
<glyph name="twosuperior" format="2">
  <advance width="322"/>
  <unicode hex="00B2"/>
  <outline>
    <contour>
      <point x="141" y="589" type="line"/>
      <point x="203" y="608"/>
      <point x="270" y="661"/>
      <point x="270" y="724" type="curve" smooth="yes"/>
      <point x="270" y="771"/>
      <point x="239" y="805"/>
      <point x="165" y="805" type="curve" smooth="yes"/>
      <point x="92" y="805"/>
      <point x="61" y="764"/>
      <point x="61" y="714" type="curve" smooth="yes"/>
      <point x="61" y="705"/>
      <point x="62" y="696"/>
      <point x="64" y="687" type="curve"/>
      <point x="148" y="690" type="line"/>
      <point x="146" y="699"/>
      <point x="145" y="707"/>
      <point x="145" y="714" type="curve" smooth="yes"/>
      <point x="145" y="732"/>
      <point x="152" y="743"/>
      <point x="164" y="743" type="curve" smooth="yes"/>
      <point x="177" y="743"/>
      <point x="182" y="735"/>
      <point x="182" y="715" type="curve" smooth="yes"/>
      <point x="182" y="669"/>
      <point x="139" y="635"/>
      <point x="63" y="612" type="curve"/>
    </contour>
    <contour>
      <point x="62" y="556" type="line"/>
      <point x="110" y="556"/>
      <point x="143" y="555"/>
      <point x="165" y="555" type="curve" smooth="yes"/>
      <point x="193" y="555"/>
      <point x="216" y="555"/>
      <point x="274" y="554" type="curve"/>
      <point x="273" y="614" type="line"/>
      <point x="260" y="613"/>
      <point x="218" y="612"/>
      <point x="170" y="612" type="curve" smooth="yes"/>
      <point x="143" y="612"/>
      <point x="79" y="612"/>
      <point x="63" y="612" type="curve"/>
    </contour>
  </outline>
</glyph>
<glyph name="threesuperior" format="2">
  <advance width="322"/>
  <unicode hex="00B3"/>
  <outline>
    <contour>
      <point x="155" y="560" type="curve" smooth="yes"/>
      <point x="215" y="560"/>
      <point x="260" y="582"/>
      <point x="260" y="622" type="curve" smooth="yes"/>
      <point x="260" y="646"/>
      <point x="243" y="664"/>
      <point x="213" y="668" type="curve"/>
      <point x="242" y="679"/>
      <point x="264" y="698"/>
      <point x="264" y="733" type="curve" smooth="yes"/>
      <point x="264" y="776"/>
      <point x="232" y="806"/>
      <point x="165" y="806" type="curve" smooth="yes"/>
      <point x="101" y="806"/>
      <point x="59" y="774"/>
      <point x="59" y="725" type="curve" smooth="yes"/>
      <point x="59" y="719"/>
      <point x="59" y="712"/>
      <point x="61" y="705" type="curve"/>
      <point x="146" y="709" type="line"/>
      <point x="145" y="713"/>
      <point x="144" y="717"/>
      <point x="144" y="721" type="curve" smooth="yes"/>
      <point x="144" y="733"/>
      <point x="149" y="743"/>
      <point x="165" y="743" type="curve" smooth="yes"/>
      <point x="180" y="743"/>
      <point x="187" y="734"/>
      <point x="187" y="722" type="curve" smooth="yes"/>
      <point x="187" y="696"/>
      <point x="174" y="686"/>
      <point x="155" y="686" type="curve" smooth="yes"/>
      <point x="140" y="686"/>
      <point x="124" y="685"/>
      <point x="104" y="685" type="curve"/>
      <point x="104" y="645" type="line"/>
      <point x="124" y="645"/>
      <point x="143" y="645"/>
      <point x="153" y="645" type="curve" smooth="yes"/>
      <point x="172" y="645"/>
      <point x="180" y="642"/>
      <point x="180" y="631" type="curve" smooth="yes"/>
      <point x="180" y="622"/>
      <point x="175" y="615"/>
      <point x="161" y="615" type="curve" smooth="yes"/>
      <point x="148" y="615"/>
      <point x="140" y="621"/>
      <point x="140" y="629" type="curve"/>
      <point x="54" y="629" type="line"/>
      <point x="55" y="573"/>
      <point x="96" y="560"/>
    </contour>
  </outline>
</glyph>
<glyph name="acute" format="2">
  <advance width="215"/>
  <unicode hex="00B4"/>
  <anchor x="92" y="555" name="_top"/>
  <outline>
    <contour>
      <point x="46" y="593" type="line"/>
      <point x="75" y="610"/>
      <point x="103" y="624"/>
      <point x="132" y="639" type="curve" smooth="yes"/>
      <point x="162" y="654"/>
      <point x="194" y="668"/>
      <point x="228" y="684" type="curve"/>
      <point x="178" y="764" type="line"/>
      <point x="150" y="743"/>
      <point x="120" y="723"/>
      <point x="91" y="704" type="curve" smooth="yes"/>
      <point x="62" y="686"/>
      <point x="33" y="669"/>
      <point x="6" y="653" type="curve"/>
    </contour>
  </outline>
</glyph>
<glyph name="periodcentered" format="2">
  <advance width="286"/>
  <unicode hex="00B7"/>
  <outline>
    <contour>
      <point x="206" y="217" type="line"/>
      <point x="204" y="393" type="line"/>
      <point x="80" y="385" type="line"/>
      <point x="84" y="219" type="line"/>
    </contour>
  </outline>
</glyph>
<glyph name="onesuperior" format="2">
  <advance width="322"/>
  <unicode hex="00B9"/>
  <outline>
    <contour>
      <point x="140" y="567" type="curve"/>
      <point x="235" y="567" type="line"/>
      <point x="232" y="662"/>
      <point x="232" y="717"/>
      <point x="236" y="801" type="curve"/>
      <point x="176" y="801" type="line"/>
      <point x="143" y="736" type="line"/>
      <point x="145" y="671"/>
      <point x="144" y="623"/>
    </contour>
    <contour>
      <point x="71" y="696" type="line"/>
      <point x="100" y="692"/>
      <point x="167" y="700"/>
      <point x="201" y="716" type="curve"/>
      <point x="176" y="801" type="line"/>
      <point x="156" y="773"/>
      <point x="86" y="751"/>
      <point x="65" y="754" type="curve"/>
    </contour>
  </outline>
</glyph>
<glyph name="ordmasculine" format="2">
  <advance width="354"/>
  <unicode hex="00BA"/>
  <outline>
    <contour>
      <point x="175" y="469" type="curve" smooth="yes"/>
      <point x="251" y="469"/>
      <point x="294" y="515"/>
      <point x="294" y="590" type="curve" smooth="yes"/>
      <point x="294" y="662"/>
      <point x="254" y="703"/>
      <point x="180" y="703" type="curve" smooth="yes"/>
      <point x="103" y="703"/>
      <point x="60" y="655"/>
      <point x="60" y="590" type="curve" smooth="yes"/>
      <point x="60" y="518"/>
      <point x="100" y="469"/>
    </contour>
    <contour>
      <point x="175" y="528" type="curve" smooth="yes"/>
      <point x="148" y="528"/>
      <point x="138" y="548"/>
      <point x="138" y="589" type="curve" smooth="yes"/>
      <point x="138" y="626"/>
      <point x="148" y="647"/>
      <point x="179" y="647" type="curve" smooth="yes"/>
      <point x="208" y="647"/>
      <point x="216" y="626"/>
      <point x="216" y="593" type="curve" smooth="yes"/>
      <point x="216" y="545"/>
      <point x="203" y="528"/>
    </contour>
  </outline>
</glyph>
<glyph name="guillemetright" format="2">
  <advance width="767"/>
  <unicode hex="00BB"/>
  <outline>
    <contour>
      <point x="685" y="207" type="curve"/>
      <point x="687" y="313" type="line"/>
      <point x="647" y="341"/>
      <point x="605" y="368"/>
      <point x="566" y="398" type="curve" smooth="yes"/>
      <point x="526" y="428"/>
      <point x="481" y="461"/>
      <point x="441" y="494" type="curve"/>
      <point x="382" y="415" type="line"/>
      <point x="427" y="389"/>
      <point x="467" y="362"/>
      <point x="512" y="331" type="curve" smooth="yes"/>
      <point x="570" y="291"/>
      <point x="626" y="246"/>
    </contour>
    <contour>
      <point x="385" y="207" type="curve"/>
      <point x="387" y="313" type="line"/>
      <point x="347" y="341"/>
      <point x="305" y="368"/>
      <point x="266" y="398" type="curve" smooth="yes"/>
      <point x="226" y="428"/>
      <point x="181" y="461"/>
      <point x="141" y="494" type="curve"/>
      <point x="82" y="415" type="line"/>
      <point x="127" y="389"/>
      <point x="167" y="362"/>
      <point x="212" y="331" type="curve" smooth="yes"/>
      <point x="270" y="291"/>
      <point x="326" y="246"/>
    </contour>
    <contour>
      <point x="440" y="34" type="line"/>
      <point x="480" y="66"/>
      <point x="521" y="97"/>
      <point x="562" y="126" type="curve" smooth="yes"/>
      <point x="602" y="154"/>
      <point x="644" y="180"/>
      <point x="685" y="207" type="curve"/>
      <point x="687" y="313" type="line"/>
      <point x="626" y="276"/>
      <point x="569" y="234"/>
      <point x="509" y="197" type="curve" smooth="yes"/>
      <point x="465" y="170"/>
      <point x="424" y="144"/>
      <point x="380" y="119" type="curve"/>
    </contour>
    <contour>
      <point x="140" y="34" type="line"/>
      <point x="180" y="66"/>
      <point x="221" y="97"/>
      <point x="262" y="126" type="curve" smooth="yes"/>
      <point x="302" y="154"/>
      <point x="344" y="180"/>
      <point x="385" y="207" type="curve"/>
      <point x="387" y="313" type="line"/>
      <point x="326" y="276"/>
      <point x="269" y="234"/>
      <point x="209" y="197" type="curve" smooth="yes"/>
      <point x="165" y="170"/>
      <point x="124" y="144"/>
      <point x="80" y="119" type="curve"/>
    </contour>
  </outline>
</glyph>
<glyph name="onequarter" format="2">
  <advance width="726"/>
  <unicode hex="00BC"/>
  <outline>
    <contour>
      <point x="100" y="7" type="curve"/>
      <point x="229" y="-7" type="line"/>
      <point x="292" y="106"/>
      <point x="356" y="220"/>
      <point x="419" y="332" type="curve" smooth="yes"/>
      <point x="486" y="451"/>
      <point x="559" y="569"/>
      <point x="629" y="688" type="curve"/>
      <point x="500" y="704" type="line"/>
      <point x="435" y="585"/>
      <point x="376" y="466"/>
      <point x="306" y="347" type="curve" smooth="yes"/>
      <point x="239" y="232"/>
      <point x="169" y="120"/>
    </contour>
    <contour>
      <point x="172" y="462" type="curve"/>
      <point x="267" y="462" type="line"/>
      <point x="264" y="557"/>
      <point x="264" y="612"/>
      <point x="268" y="696" type="curve"/>
      <point x="208" y="696" type="line"/>
      <point x="188" y="668"/>
      <point x="118" y="646"/>
      <point x="97" y="649" type="curve"/>
      <point x="103" y="591" type="line"/>
      <point x="119" y="589"/>
      <point x="148" y="590"/>
      <point x="176" y="595" type="curve"/>
      <point x="177" y="547"/>
      <point x="175" y="507"/>
    </contour>
    <contour>
      <point x="535" y="-1" type="line"/>
      <point x="611" y="0" type="line"/>
      <point x="611" y="40" type="line"/>
      <point x="643" y="40" type="line"/>
      <point x="643" y="100" type="line"/>
      <point x="610" y="99" type="line"/>
      <point x="610" y="127" type="line" smooth="yes"/>
      <point x="610" y="169"/>
      <point x="611" y="214"/>
      <point x="611" y="235" type="curve"/>
      <point x="492" y="236" type="line"/>
      <point x="482" y="214"/>
      <point x="470" y="190"/>
      <point x="459" y="166" type="curve"/>
      <point x="425" y="98" type="line"/>
      <point x="430" y="39" type="line"/>
      <point x="535" y="40" type="line"/>
    </contour>
    <contour>
      <point x="503" y="97" type="line"/>
      <point x="536" y="182" type="line"/>
      <point x="536" y="97" type="line"/>
    </contour>
  </outline>
</glyph>
<glyph name="onehalf" format="2">
  <advance width="726"/>
  <unicode hex="00BD"/>
  <outline>
    <contour>
      <point x="100" y="7" type="curve"/>
      <point x="229" y="-7" type="line"/>
      <point x="292" y="106"/>
      <point x="356" y="220"/>
      <point x="419" y="332" type="curve" smooth="yes"/>
      <point x="486" y="451"/>
      <point x="559" y="569"/>
      <point x="629" y="688" type="curve"/>
      <point x="500" y="704" type="line"/>
      <point x="435" y="585"/>
      <point x="376" y="466"/>
      <point x="306" y="347" type="curve" smooth="yes"/>
      <point x="239" y="232"/>
      <point x="169" y="120"/>
    </contour>
    <contour>
      <point x="438" y="1" type="line"/>
      <point x="486" y="1"/>
      <point x="519" y="0"/>
      <point x="541" y="0" type="curve"/>
      <point x="650" y="-1" type="line"/>
      <point x="649" y="59" type="line"/>
      <point x="638" y="58"/>
      <point x="609" y="57"/>
      <point x="568" y="57" type="curve"/>
      <point x="611" y="83"/>
      <point x="646" y="123"/>
      <point x="646" y="169" type="curve" smooth="yes"/>
      <point x="646" y="216"/>
      <point x="615" y="250"/>
      <point x="541" y="250" type="curve" smooth="yes"/>
      <point x="468" y="250"/>
      <point x="437" y="209"/>
      <point x="437" y="159" type="curve" smooth="yes"/>
      <point x="437" y="150"/>
      <point x="438" y="141"/>
      <point x="440" y="132" type="curve"/>
      <point x="524" y="135" type="line"/>
      <point x="522" y="144"/>
      <point x="521" y="152"/>
      <point x="521" y="159" type="curve" smooth="yes"/>
      <point x="521" y="177"/>
      <point x="528" y="188"/>
      <point x="540" y="188" type="curve" smooth="yes"/>
      <point x="553" y="188"/>
      <point x="558" y="180"/>
      <point x="558" y="160" type="curve" smooth="yes"/>
      <point x="558" y="114"/>
      <point x="515" y="80"/>
      <point x="439" y="57" type="curve"/>
    </contour>
    <contour>
      <point x="172" y="462" type="curve"/>
      <point x="267" y="462" type="line"/>
      <point x="264" y="557"/>
      <point x="264" y="612"/>
      <point x="268" y="696" type="curve"/>
      <point x="208" y="696" type="line"/>
      <point x="188" y="668"/>
      <point x="118" y="646"/>
      <point x="97" y="649" type="curve"/>
      <point x="103" y="591" type="line"/>
      <point x="119" y="589"/>
      <point x="148" y="590"/>
      <point x="176" y="595" type="curve"/>
      <point x="177" y="547"/>
      <point x="175" y="507"/>
    </contour>
  </outline>
</glyph>
<glyph name="threequarters" format="2">
  <advance width="726"/>
  <unicode hex="00BE"/>
  <outline>
    <contour>
      <point x="100" y="7" type="curve"/>
      <point x="229" y="-7" type="line"/>
      <point x="292" y="106"/>
      <point x="356" y="220"/>
      <point x="419" y="332" type="curve" smooth="yes"/>
      <point x="486" y="451"/>
      <point x="559" y="569"/>
      <point x="629" y="688" type="curve"/>
      <point x="500" y="704" type="line"/>
      <point x="435" y="585"/>
      <point x="376" y="466"/>
      <point x="306" y="347" type="curve" smooth="yes"/>
      <point x="239" y="232"/>
      <point x="169" y="120"/>
    </contour>
    <contour>
      <point x="195" y="456" type="curve" smooth="yes"/>
      <point x="255" y="456"/>
      <point x="300" y="478"/>
      <point x="300" y="518" type="curve" smooth="yes"/>
      <point x="300" y="542"/>
      <point x="283" y="560"/>
      <point x="253" y="564" type="curve"/>
      <point x="282" y="575"/>
      <point x="304" y="594"/>
      <point x="304" y="629" type="curve" smooth="yes"/>
      <point x="304" y="672"/>
      <point x="272" y="702"/>
      <point x="205" y="702" type="curve" smooth="yes"/>
      <point x="141" y="702"/>
      <point x="99" y="670"/>
      <point x="99" y="621" type="curve" smooth="yes"/>
      <point x="99" y="615"/>
      <point x="99" y="608"/>
      <point x="101" y="601" type="curve"/>
      <point x="186" y="605" type="line"/>
      <point x="185" y="609"/>
      <point x="184" y="613"/>
      <point x="184" y="617" type="curve" smooth="yes"/>
      <point x="184" y="629"/>
      <point x="189" y="639"/>
      <point x="205" y="639" type="curve" smooth="yes"/>
      <point x="220" y="639"/>
      <point x="227" y="630"/>
      <point x="227" y="618" type="curve" smooth="yes"/>
      <point x="227" y="592"/>
      <point x="214" y="582"/>
      <point x="195" y="582" type="curve" smooth="yes"/>
      <point x="180" y="582"/>
      <point x="164" y="581"/>
      <point x="144" y="581" type="curve"/>
      <point x="144" y="541" type="line"/>
      <point x="164" y="541"/>
      <point x="183" y="541"/>
      <point x="193" y="541" type="curve" smooth="yes"/>
      <point x="212" y="541"/>
      <point x="220" y="538"/>
      <point x="220" y="527" type="curve" smooth="yes"/>
      <point x="220" y="518"/>
      <point x="215" y="511"/>
      <point x="201" y="511" type="curve" smooth="yes"/>
      <point x="188" y="511"/>
      <point x="180" y="517"/>
      <point x="180" y="525" type="curve"/>
      <point x="94" y="525" type="line"/>
      <point x="95" y="469"/>
      <point x="136" y="456"/>
    </contour>
    <contour>
      <point x="535" y="-1" type="line"/>
      <point x="611" y="0" type="line"/>
      <point x="611" y="40" type="line"/>
      <point x="643" y="40" type="line"/>
      <point x="643" y="100" type="line"/>
      <point x="610" y="99" type="line"/>
      <point x="610" y="127" type="line" smooth="yes"/>
      <point x="610" y="169"/>
      <point x="611" y="214"/>
      <point x="611" y="235" type="curve"/>
      <point x="492" y="236" type="line"/>
      <point x="482" y="214"/>
      <point x="470" y="190"/>
      <point x="459" y="166" type="curve"/>
      <point x="425" y="98" type="line"/>
      <point x="430" y="39" type="line"/>
      <point x="535" y="40" type="line"/>
    </contour>
    <contour>
      <point x="503" y="97" type="line"/>
      <point x="536" y="182" type="line"/>
      <point x="536" y="97" type="line"/>
    </contour>
  </outline>
</glyph>
<glyph name="questiondown" format="2">
  <advance width="556"/>
  <unicode hex="00BF"/>
  <outline>
    <contour>
      <point x="215" y="338" type="line"/>
      <point x="223" y="303"/>
      <point x="226" y="281"/>
      <point x="226" y="265" type="curve" smooth="yes"/>
      <point x="226" y="236"/>
      <point x="202" y="216"/>
      <point x="172" y="192" type="curve" smooth="yes"/>
      <point x="128" y="156"/>
      <point x="72" y="110"/>
      <point x="72" y="8" type="curve" smooth="yes"/>
      <point x="72" y="-89"/>
      <point x="133" y="-165"/>
      <point x="270" y="-165" type="curve" smooth="yes"/>
      <point x="422" y="-165"/>
      <point x="484" y="-77"/>
      <point x="484" y="26" type="curve" smooth="yes"/>
      <point x="484" y="55"/>
      <point x="479" y="85"/>
      <point x="469" y="115" type="curve"/>
      <point x="336" y="116" type="line"/>
      <point x="343" y="92"/>
      <point x="350" y="63"/>
      <point x="350" y="34" type="curve" smooth="yes"/>
      <point x="350" y="-11"/>
      <point x="329" y="-50"/>
      <point x="276" y="-50" type="curve" smooth="yes"/>
      <point x="237" y="-50"/>
      <point x="205" y="-29"/>
      <point x="205" y="16" type="curve" smooth="yes"/>
      <point x="205" y="65"/>
      <point x="226" y="94"/>
      <point x="253" y="117" type="curve" smooth="yes"/>
      <point x="297" y="155"/>
      <point x="353" y="182"/>
      <point x="353" y="266" type="curve" smooth="yes"/>
      <point x="353" y="285"/>
      <point x="350" y="305"/>
      <point x="343" y="337" type="curve"/>
    </contour>
    <contour>
      <point x="345" y="551" type="line"/>
      <point x="208" y="554" type="line"/>
      <point x="220" y="384" type="line"/>
      <point x="344" y="386" type="line"/>
    </contour>
  </outline>
</glyph>
<glyph name="AE" format="2">
  <advance width="643"/>
  <unicode hex="00C6"/>
  <anchor x="410" y="693" name="top"/>
  <outline>
    <contour>
      <point x="-38" y="1" type="curve"/>
      <point x="117" y="0" type="line"/>
      <point x="131" y="42"/>
      <point x="146" y="84"/>
      <point x="160" y="126" type="curve"/>
      <point x="294" y="132" type="line"/>
      <point x="292" y="-6" type="line"/>
      <point x="629" y="0" type="line"/>
      <point x="628" y="95" type="line"/>
      <point x="437" y="99" type="line"/>
      <point x="436" y="181" type="line"/>
      <point x="624" y="184" type="line"/>
      <point x="626" y="293" type="line"/>
      <point x="435" y="295" type="line"/>
      <point x="435" y="341" type="line" smooth="yes"/>
      <point x="435" y="408"/>
      <point x="436" y="514"/>
      <point x="437" y="591" type="curve"/>
      <point x="617" y="592" type="line"/>
      <point x="617" y="693" type="line"/>
      <point x="225" y="702" type="line"/>
      <point x="205" y="641"/>
      <point x="158" y="506"/>
      <point x="100" y="356" type="curve" smooth="yes"/>
      <point x="50" y="227"/>
      <point x="-8" y="78"/>
    </contour>
    <contour>
      <point x="296" y="222" type="line"/>
      <point x="191" y="224" type="line"/>
      <point x="206" y="266"/>
      <point x="220" y="307"/>
      <point x="235" y="349" type="curve" smooth="yes"/>
      <point x="255" y="406"/>
      <point x="272" y="454"/>
      <point x="294" y="515" type="curve"/>
      <point x="296" y="448"/>
      <point x="297" y="372"/>
      <point x="297" y="342" type="curve" smooth="yes"/>
    </contour>
  </outline>
</glyph>
<glyph name="multiply" format="2">
  <advance width="500"/>
  <unicode hex="00D7"/>
  <outline>
    <contour>
      <point x="422.128" y="199.621" type="line"/>
      <point x="364.146" y="247.704"/>
      <point x="322.426" y="282.352"/>
      <point x="274.343" y="330.436" type="curve" smooth="yes"/>
      <point x="224.846" y="379.933"/>
      <point x="190.197" y="421.652"/>
      <point x="150.599" y="468.321" type="curve"/>
      <point x="77.06" y="384.883" type="line"/>
      <point x="125.144" y="341.042"/>
      <point x="160.499" y="311.344"/>
      <point x="209.289" y="263.968" type="curve" smooth="yes"/>
      <point x="255.251" y="219.42"/>
      <point x="294.142" y="174.872"/>
      <point x="347.882" y="115.475" type="curve"/>
    </contour>
    <contour>
      <point x="150" y="115" type="line"/>
      <point x="178" y="148"/>
      <point x="247.473" y="224.37"/>
      <point x="290.607" y="267.503" type="curve" smooth="yes"/>
      <point x="334.447" y="311.344"/>
      <point x="427" y="400"/>
      <point x="425" y="399" type="curve"/>
      <point x="352" y="468" type="line"/>
      <point x="315" y="426"/>
      <point x="265.858" y="374.276"/>
      <point x="224.846" y="331.85" type="curve" smooth="yes"/>
      <point x="185.955" y="290.131"/>
      <point x="98" y="208"/>
      <point x="75" y="187" type="curve"/>
    </contour>
  </outline>
</glyph>
<glyph name="Thorn" format="2">
  <advance width="427"/>
  <unicode hex="00DE"/>
  <outline>
    <contour>
      <point x="127" y="133" type="line"/>
      <point x="307" y="133"/>
      <point x="427" y="173"/>
      <point x="427" y="376" type="curve" smooth="yes"/>
      <point x="427" y="562"/>
      <point x="326" y="595"/>
      <point x="169" y="595" type="curve" smooth="yes"/>
      <point x="152" y="595"/>
      <point x="135" y="595"/>
      <point x="117" y="594" type="curve"/>
      <point x="117" y="479" type="line"/>
      <point x="145" y="483"/>
      <point x="168" y="486"/>
      <point x="189" y="486" type="curve" smooth="yes"/>
      <point x="234" y="486"/>
      <point x="283" y="466"/>
      <point x="283" y="373" type="curve" smooth="yes"/>
      <point x="283" y="261"/>
      <point x="233" y="230"/>
      <point x="127" y="244" type="curve"/>
    </contour>
    <contour>
      <point x="37" y="-5" type="curve"/>
      <point x="183" y="5" type="line"/>
      <point x="182" y="108"/>
      <point x="180" y="274"/>
      <point x="180" y="354" type="curve"/>
      <point x="178" y="456"/>
      <point x="177" y="635"/>
      <point x="182" y="702" type="curve"/>
      <point x="33" y="712" type="line"/>
      <point x="36" y="631"/>
      <point x="41" y="477"/>
      <point x="41" y="352" type="curve"/>
      <point x="41" y="228"/>
      <point x="39" y="75"/>
    </contour>
  </outline>
</glyph>
<glyph name="germandbls" format="2">
  <advance width="490"/>
  <unicode hex="00DF"/>
  <outline>
    <contour>
      <point x="30" y="-2" type="curve"/>
      <point x="179" y="1" type="line"/>
      <point x="179" y="-4"/>
      <point x="172" y="123"/>
      <point x="172" y="271" type="curve" smooth="yes"/>
      <point x="172" y="373"/>
      <point x="170" y="485"/>
      <point x="174" y="523" type="curve" smooth="yes"/>
      <point x="178" y="563"/>
      <point x="198" y="599"/>
      <point x="249" y="599" type="curve" smooth="yes"/>
      <point x="294" y="599"/>
      <point x="314" y="581"/>
      <point x="314" y="542" type="curve" smooth="yes"/>
      <point x="314" y="470"/>
      <point x="208" y="442"/>
      <point x="208" y="355" type="curve" smooth="yes"/>
      <point x="208" y="293"/>
      <point x="255" y="256"/>
      <point x="295" y="224" type="curve" smooth="yes"/>
      <point x="327" y="199"/>
      <point x="355" y="177"/>
      <point x="355" y="148" type="curve" smooth="yes"/>
      <point x="355" y="104"/>
      <point x="362" y="60"/>
      <point x="224" y="85" type="curve"/>
      <point x="216" y="-1" type="line"/>
      <point x="427" y="-25"/>
      <point x="491" y="53"/>
      <point x="491" y="150" type="curve" smooth="yes"/>
      <point x="491" y="215"/>
      <point x="440" y="257"/>
      <point x="398" y="292" type="curve" smooth="yes"/>
      <point x="368" y="317"/>
      <point x="343" y="338"/>
      <point x="343" y="360" type="curve" smooth="yes"/>
      <point x="343" y="415"/>
      <point x="448" y="448"/>
      <point x="448" y="551" type="curve" smooth="yes"/>
      <point x="448" y="633"/>
      <point x="398" y="701"/>
      <point x="257" y="701" type="curve" smooth="yes"/>
      <point x="108" y="701"/>
      <point x="49" y="616"/>
      <point x="41" y="518" type="curve" smooth="yes"/>
      <point x="39" y="492"/>
      <point x="39" y="329"/>
      <point x="39" y="270" type="curve" smooth="yes"/>
      <point x="39" y="119"/>
      <point x="36" y="98"/>
    </contour>
  </outline>
</glyph>
<glyph name="ae" format="2">
  <advance width="610"/>
  <unicode hex="00E6"/>
  <anchor x="319" y="515" name="top"/>
  <outline>
    <contour>
      <point x="151" y="-9" type="curve" smooth="yes"/>
      <point x="215" y="-9"/>
      <point x="255" y="21"/>
      <point x="280" y="72" type="curve"/>
      <point x="300" y="19"/>
      <point x="338" y="-12"/>
      <point x="411" y="-12" type="curve" smooth="yes"/>
      <point x="517" y="-12"/>
      <point x="579" y="39"/>
      <point x="579" y="131" type="curve" smooth="yes"/>
      <point x="579" y="143"/>
      <point x="578" y="155"/>
      <point x="576" y="168" type="curve"/>
      <point x="442" y="168" type="line"/>
      <point x="447" y="154"/>
      <point x="449" y="141"/>
      <point x="449" y="129" type="curve" smooth="yes"/>
      <point x="449" y="105"/>
      <point x="438" y="89"/>
      <point x="413" y="89" type="curve" smooth="yes"/>
      <point x="386" y="89"/>
      <point x="374" y="110"/>
      <point x="369" y="147" type="curve" smooth="yes"/>
      <point x="367" y="166"/>
      <point x="366" y="190"/>
      <point x="366" y="218" type="curve"/>
      <point x="437" y="219"/>
      <point x="525" y="221"/>
      <point x="571" y="221" type="curve"/>
      <point x="576" y="260"/>
      <point x="579" y="296"/>
      <point x="579" y="328" type="curve" smooth="yes"/>
      <point x="579" y="448"/>
      <point x="538" y="524"/>
      <point x="425" y="524" type="curve" smooth="yes"/>
      <point x="371" y="524"/>
      <point x="333" y="508"/>
      <point x="308" y="478" type="curve"/>
      <point x="284" y="507"/>
      <point x="247" y="525"/>
      <point x="193" y="525" type="curve" smooth="yes"/>
      <point x="96" y="525"/>
      <point x="39" y="463"/>
      <point x="39" y="376" type="curve" smooth="yes"/>
      <point x="39" y="358"/>
      <point x="42" y="338"/>
      <point x="47" y="318" type="curve"/>
      <point x="173" y="325" type="line"/>
      <point x="168" y="343"/>
      <point x="165" y="360"/>
      <point x="165" y="376" type="curve" smooth="yes"/>
      <point x="165" y="407"/>
      <point x="180" y="422"/>
      <point x="204" y="422" type="curve" smooth="yes"/>
      <point x="224" y="422"/>
      <point x="237" y="413"/>
      <point x="238" y="383" type="curve" smooth="yes"/>
      <point x="238" y="339"/>
      <point x="219" y="312"/>
      <point x="178" y="292" type="curve" smooth="yes"/>
      <point x="108" y="258"/>
      <point x="30" y="225"/>
      <point x="30" y="122" type="curve" smooth="yes"/>
      <point x="30" y="46"/>
      <point x="71" y="-9"/>
    </contour>
    <contour>
      <point x="188" y="100" type="curve" smooth="yes"/>
      <point x="168" y="100"/>
      <point x="158" y="115"/>
      <point x="158" y="142" type="curve" smooth="yes"/>
      <point x="158" y="176"/>
      <point x="175" y="193"/>
      <point x="208" y="217" type="curve" smooth="yes"/>
      <point x="219" y="225"/>
      <point x="231" y="234"/>
      <point x="242" y="245" type="curve"/>
      <point x="242" y="239"/>
      <point x="242" y="232"/>
      <point x="242" y="226" type="curve" smooth="yes"/>
      <point x="242" y="132"/>
      <point x="216" y="100"/>
    </contour>
    <contour>
      <point x="366" y="314" type="line"/>
      <point x="366" y="341"/>
      <point x="367" y="365"/>
      <point x="370" y="384" type="curve" smooth="yes"/>
      <point x="375" y="412"/>
      <point x="385" y="429"/>
      <point x="408" y="429" type="curve" smooth="yes"/>
      <point x="437" y="429"/>
      <point x="444" y="397"/>
      <point x="444" y="351" type="curve" smooth="yes"/>
      <point x="444" y="339"/>
      <point x="443" y="327"/>
      <point x="443" y="314" type="curve"/>
    </contour>
  </outline>
</glyph>
<glyph name="eth" format="2">
  <advance width="443"/>
  <unicode hex="00F0"/>
  <outline>
    <contour>
      <point x="204" y="-10" type="curve" smooth="yes"/>
      <point x="405" y="-10"/>
      <point x="412" y="143"/>
      <point x="412" y="322" type="curve" smooth="yes"/>
      <point x="412" y="606"/>
      <point x="267" y="690"/>
      <point x="180" y="720" type="curve"/>
      <point x="129" y="623" type="line"/>
      <point x="220" y="599"/>
      <point x="275" y="516"/>
      <point x="275" y="371" type="curve" smooth="yes"/>
      <point x="275" y="266"/>
      <point x="275" y="244"/>
      <point x="275" y="231" type="curve" smooth="yes"/>
      <point x="275" y="158"/>
      <point x="279" y="83"/>
      <point x="216" y="83" type="curve" smooth="yes"/>
      <point x="166" y="83"/>
      <point x="163" y="118"/>
      <point x="163" y="212" type="curve" smooth="yes"/>
      <point x="163" y="298"/>
      <point x="181" y="331"/>
      <point x="223" y="331" type="curve" smooth="yes"/>
      <point x="266" y="331"/>
      <point x="275" y="289"/>
      <point x="275" y="231" type="curve"/>
      <point x="332" y="316" type="line"/>
      <point x="304" y="370"/>
      <point x="288" y="427"/>
      <point x="207" y="427" type="curve" smooth="yes"/>
      <point x="80" y="427"/>
      <point x="28" y="338"/>
      <point x="28" y="204" type="curve" smooth="yes"/>
      <point x="28" y="91"/>
      <point x="56" y="-10"/>
    </contour>
    <contour>
      <point x="174" y="462" type="line"/>
      <point x="217" y="486"/>
      <point x="250" y="506"/>
      <point x="305" y="540" type="curve" smooth="yes"/>
      <point x="345" y="565"/>
      <point x="386" y="586"/>
      <point x="432" y="606" type="curve"/>
      <point x="386" y="685" type="line"/>
      <point x="347" y="660"/>
      <point x="299" y="634"/>
      <point x="261" y="612" type="curve" smooth="yes"/>
      <point x="196" y="574"/>
      <point x="180" y="566"/>
      <point x="127" y="540" type="curve"/>
    </contour>
  </outline>
</glyph>
<glyph name="oslash" format="2">
  <advance width="428"/>
  <unicode hex="00F8"/>
  <anchor x="214" y="515" name="top"/>
  <outline>
    <contour>
      <point x="207" y="-10" type="curve" smooth="yes"/>
      <point x="302" y="-10"/>
      <point x="351" y="38"/>
      <point x="373" y="119" type="curve" smooth="yes"/>
      <point x="384" y="160"/>
      <point x="388" y="209"/>
      <point x="388" y="264" type="curve" smooth="yes"/>
      <point x="388" y="334"/>
      <point x="381" y="395"/>
      <point x="362" y="441" type="curve" smooth="yes"/>
      <point x="338" y="495"/>
      <point x="297" y="528"/>
      <point x="226" y="528" type="curve" smooth="yes"/>
      <point x="144" y="528"/>
      <point x="95" y="492"/>
      <point x="68" y="431" type="curve" smooth="yes"/>
      <point x="48" y="387"/>
      <point x="40" y="330"/>
      <point x="40" y="265" type="curve" smooth="yes"/>
      <point x="40" y="202"/>
      <point x="44" y="147"/>
      <point x="58" y="103" type="curve" smooth="yes"/>
      <point x="79" y="32"/>
      <point x="123" y="-10"/>
    </contour>
    <contour>
      <point x="215" y="94" type="curve" smooth="yes"/>
      <point x="194" y="94"/>
      <point x="184" y="116"/>
      <point x="180" y="156" type="curve" smooth="yes"/>
      <point x="177" y="183"/>
      <point x="177" y="217"/>
      <point x="177" y="258" type="curve" smooth="yes"/>
      <point x="177" y="310"/>
      <point x="177" y="351"/>
      <point x="181" y="380" type="curve" smooth="yes"/>
      <point x="186" y="411"/>
      <point x="195" y="428"/>
      <point x="215" y="428" type="curve" smooth="yes"/>
      <point x="236" y="428"/>
      <point x="244" y="409"/>
      <point x="248" y="371" type="curve" smooth="yes"/>
      <point x="250" y="344"/>
      <point x="250" y="306"/>
      <point x="251" y="258" type="curve" smooth="yes"/>
      <point x="252" y="216"/>
      <point x="252" y="181"/>
      <point x="250" y="154" type="curve" smooth="yes"/>
      <point x="247" y="116"/>
      <point x="238" y="94"/>
    </contour>
    <contour>
      <point x="159" y="-60" type="line"/>
      <point x="184" y="21"/>
      <point x="226" y="156"/>
      <point x="252" y="230" type="curve" smooth="yes"/>
      <point x="278" y="304"/>
      <point x="346" y="465"/>
      <point x="391" y="565" type="curve"/>
      <point x="290" y="599" type="line"/>
      <point x="265" y="523"/>
      <point x="217" y="383"/>
      <point x="177" y="274" type="curve" smooth="yes"/>
      <point x="137" y="165"/>
      <point x="86" y="43"/>
      <point x="59" y="-19" type="curve"/>
    </contour>
  </outline>
</glyph>
<glyph name="thorn" format="2">
  <advance width="444"/>
  <unicode hex="00FE"/>
  <outline>
    <contour>
      <point x="47" y="-166" type="curve"/>
      <point x="197" y="-160" type="line"/>
      <point x="191" y="21" type="line"/>
      <point x="206" y="1"/>
      <point x="226" y="-10"/>
      <point x="254" y="-10" type="curve" smooth="yes"/>
      <point x="313" y="-10"/>
      <point x="351" y="22"/>
      <point x="375" y="72" type="curve" smooth="yes"/>
      <point x="399" y="123"/>
      <point x="407" y="191"/>
      <point x="407" y="262" type="curve" smooth="yes"/>
      <point x="407" y="319"/>
      <point x="404" y="372"/>
      <point x="394" y="415" type="curve" smooth="yes"/>
      <point x="378" y="482"/>
      <point x="347" y="525"/>
      <point x="280" y="525" type="curve" smooth="yes"/>
      <point x="238" y="525"/>
      <point x="207" y="502"/>
      <point x="186" y="458" type="curve"/>
      <point x="186" y="537"/>
      <point x="187" y="616"/>
      <point x="187" y="695" type="curve"/>
      <point x="53" y="690" type="line"/>
      <point x="54" y="498"/>
      <point x="56" y="308"/>
      <point x="56" y="204" type="curve" smooth="yes"/>
      <point x="56" y="62"/>
      <point x="52" y="-54"/>
    </contour>
    <contour>
      <point x="190" y="223" type="curve" smooth="yes"/>
      <point x="190" y="258" type="line" smooth="yes"/>
      <point x="190" y="355"/>
      <point x="204" y="419"/>
      <point x="234" y="419" type="curve" smooth="yes"/>
      <point x="256" y="419"/>
      <point x="265" y="399"/>
      <point x="268" y="363" type="curve" smooth="yes"/>
      <point x="270" y="336"/>
      <point x="271" y="300"/>
      <point x="271" y="258" type="curve" smooth="yes"/>
      <point x="271" y="209"/>
      <point x="270" y="161"/>
      <point x="263" y="128" type="curve" smooth="yes"/>
      <point x="257" y="100"/>
      <point x="247" y="82"/>
      <point x="229" y="82" type="curve" smooth="yes"/>
      <point x="202" y="82"/>
      <point x="190" y="130"/>
    </contour>
  </outline>
</glyph>
<glyph name="Hbar" format="2">
  <advance width="492"/>
  <unicode hex="0126"/>
  <anchor x="245" y="459" name="_center"/>
  <outline>
    <contour>
      <point x="8" y="410" type="line"/>
      <point x="8" y="410"/>
      <point x="75" y="412"/>
      <point x="242" y="412" type="curve"/>
      <point x="298" y="412"/>
      <point x="485" y="410"/>
      <point x="485" y="410" type="curve"/>
      <point x="483" y="502" type="line"/>
      <point x="483" y="502"/>
      <point x="310" y="498"/>
      <point x="248" y="499" type="curve"/>
      <point x="160" y="500"/>
      <point x="9" y="502"/>
      <point x="9" y="502" type="curve"/>
    </contour>
    <component base="H"/>
  </outline>
</glyph>
<glyph name="idotless" format="2">
  <advance width="234"/>
  <unicode hex="0131"/>
  <anchor x="115" y="0" name="bottom"/>
  <anchor x="114" y="515" name="top"/>
  <outline>
    <contour>
      <point x="192" y="0" type="line"/>
      <point x="188" y="91"/>
      <point x="186" y="172"/>
      <point x="186" y="265" type="curve" smooth="yes"/>
      <point x="186" y="384"/>
      <point x="188" y="473"/>
      <point x="190" y="514" type="curve"/>
      <point x="44" y="515" type="line"/>
      <point x="46" y="467"/>
      <point x="52" y="385"/>
      <point x="52" y="266" type="curve" smooth="yes"/>
      <point x="52" y="163"/>
      <point x="49" y="81"/>
      <point x="44" y="2" type="curve"/>
    </contour>
  </outline>
</glyph>
<glyph name="kgreenlandic" format="2">
  <advance width="418"/>
  <unicode hex="0138"/>
  <outline>
    <contour>
      <point x="299" y="0" type="curve"/>
      <point x="456" y="3" type="line"/>
      <point x="377" y="103"/>
      <point x="318" y="189"/>
      <point x="259" y="278" type="curve"/>
      <point x="324" y="374"/>
      <point x="368" y="438"/>
      <point x="427" y="519" type="curve"/>
      <point x="282" y="521" type="line"/>
      <point x="238" y="445"/>
      <point x="200" y="381"/>
      <point x="122" y="269" type="curve"/>
      <point x="188" y="177"/>
      <point x="247" y="88"/>
    </contour>
    <contour>
      <point x="38" y="1" type="curve"/>
      <point x="177" y="1" type="line"/>
      <point x="176" y="52"/>
      <point x="175" y="159"/>
      <point x="175" y="264" type="curve"/>
      <point x="175" y="368"/>
      <point x="175" y="471"/>
      <point x="175" y="520" type="curve"/>
      <point x="43" y="515" type="line"/>
      <point x="43" y="471"/>
      <point x="44" y="373"/>
      <point x="44" y="266" type="curve"/>
      <point x="44" y="159"/>
      <point x="41" y="52"/>
    </contour>
  </outline>
</glyph>
<glyph name="lcaron" format="2">
  <advance width="316"/>
  <unicode hex="013E"/>
  <outline>
    <contour>
      <point x="34" y="0" type="curve"/>
      <point x="173" y="11" type="line"/>
      <point x="172" y="58"/>
      <point x="171" y="160"/>
      <point x="171" y="264" type="curve" smooth="yes"/>
      <point x="171" y="396"/>
      <point x="173" y="547"/>
      <point x="174" y="691" type="curve"/>
      <point x="37" y="692" type="line"/>
      <point x="39" y="599"/>
      <point x="42" y="403"/>
      <point x="42" y="266" type="curve" smooth="yes"/>
      <point x="42" y="117"/>
      <point x="40" y="82"/>
    </contour>
    <contour>
      <point x="254" y="446" type="line"/>
      <point x="304" y="486"/>
      <point x="317" y="546"/>
      <point x="317" y="601" type="curve" smooth="yes"/>
      <point x="317" y="641"/>
      <point x="317" y="659"/>
      <point x="317" y="699" type="curve"/>
      <point x="209" y="692" type="line"/>
      <point x="212" y="589" type="line"/>
      <point x="263" y="586" type="line"/>
      <point x="263" y="555"/>
      <point x="258" y="513"/>
      <point x="218" y="477" type="curve"/>
    </contour>
  </outline>
</glyph>
<glyph name="ldot" format="2">
  <advance width="303"/>
  <unicode hex="0140"/>
  <outline>
    <contour>
      <point x="34" y="0" type="curve"/>
      <point x="173" y="11" type="line"/>
      <point x="173" y="11"/>
      <point x="171" y="121"/>
      <point x="171" y="264" type="curve" smooth="yes"/>
      <point x="171" y="396"/>
      <point x="173" y="547"/>
      <point x="174" y="691" type="curve"/>
      <point x="37" y="692" type="line"/>
      <point x="39" y="599"/>
      <point x="42" y="403"/>
      <point x="42" y="266" type="curve" smooth="yes"/>
      <point x="42" y="117"/>
      <point x="40" y="82"/>
    </contour>
    <contour>
      <point x="314" y="301" type="line"/>
      <point x="311" y="412" type="line"/>
      <point x="205" y="406" type="line"/>
      <point x="211" y="303" type="line"/>
    </contour>
  </outline>
</glyph>
<glyph name="napostrophe" format="2">
  <advance width="440"/>
  <unicode hex="0149"/>
  <outline>
    <contour>
      <point x="96" y="544" type="line"/>
      <point x="121" y="565"/>
      <point x="147" y="629"/>
      <point x="147" y="688" type="curve"/>
      <point x="147" y="728"/>
      <point x="148" y="797"/>
      <point x="148" y="797" type="curve"/>
      <point x="34" y="790" type="line"/>
      <point x="39" y="683" type="line"/>
      <point x="92" y="682" type="line"/>
      <point x="91" y="643"/>
      <point x="80" y="600"/>
      <point x="55" y="566" type="curve"/>
    </contour>
    <component base="n"/>
  </outline>
</glyph>
<glyph name="Eng" format="2">
  <advance width="499"/>
  <unicode hex="014A"/>
  <outline>
    <contour>
      <point x="244" y="-167" type="line"/>
      <point x="386" y="-178"/>
      <point x="442" y="-127"/>
      <point x="445" y="4" type="curve"/>
      <point x="446" y="141"/>
      <point x="448" y="279"/>
      <point x="449" y="416" type="curve"/>
      <point x="451" y="533"/>
      <point x="451" y="642"/>
      <point x="454" y="715" type="curve"/>
      <point x="317" y="715" type="line"/>
      <point x="319" y="669"/>
      <point x="320" y="587"/>
      <point x="322" y="505" type="curve" smooth="yes"/>
      <point x="324" y="431"/>
      <point x="324" y="358"/>
      <point x="324" y="312" type="curve"/>
      <point x="316" y="333"/>
      <point x="296" y="390"/>
      <point x="274" y="454" type="curve" smooth="yes"/>
      <point x="239" y="556"/>
      <point x="196" y="678"/>
      <point x="187" y="704" type="curve"/>
      <point x="46" y="704" type="line"/>
      <point x="50" y="592"/>
      <point x="51" y="415"/>
      <point x="51" y="253" type="curve" smooth="yes"/>
      <point x="51" y="158"/>
      <point x="50" y="69"/>
      <point x="49" y="1" type="curve"/>
      <point x="183" y="0" type="line"/>
      <point x="182" y="42"/>
      <point x="182" y="114"/>
      <point x="180" y="199" type="curve" smooth="yes"/>
      <point x="179" y="246"/>
      <point x="180" y="297"/>
      <point x="180" y="349" type="curve"/>
      <point x="190" y="324"/>
      <point x="219" y="256"/>
      <point x="249" y="187" type="curve" smooth="yes"/>
      <point x="275" y="124"/>
      <point x="302" y="60"/>
      <point x="316" y="24" type="curve"/>
      <point x="316" y="-48"/>
      <point x="308" y="-68"/>
      <point x="242" y="-68" type="curve"/>
    </contour>
  </outline>
</glyph>
<glyph name="eng" format="2">
  <advance width="440"/>
  <unicode hex="014B"/>
  <outline>
    <contour>
      <point x="170" y="-167" type="line"/>
      <point x="272" y="-178"/>
      <point x="392" y="-127"/>
      <point x="395" y="4" type="curve" smooth="yes"/>
      <point x="397" y="105"/>
      <point x="395" y="140"/>
      <point x="395" y="211" type="curve" smooth="yes"/>
      <point x="395" y="353" type="line" smooth="yes"/>
      <point x="395" y="489"/>
      <point x="341" y="521"/>
      <point x="275" y="521" type="curve" smooth="yes"/>
      <point x="232" y="521"/>
      <point x="200" y="499"/>
      <point x="179" y="460" type="curve"/>
      <point x="178" y="481"/>
      <point x="178" y="501"/>
      <point x="177" y="522" type="curve"/>
      <point x="49" y="515" type="line"/>
      <point x="50" y="465"/>
      <point x="51" y="375"/>
      <point x="51" y="246" type="curve" smooth="yes"/>
      <point x="51" y="119"/>
      <point x="49" y="76"/>
      <point x="45" y="1" type="curve"/>
      <point x="189" y="1" type="line"/>
      <point x="188" y="82"/>
      <point x="185" y="161"/>
      <point x="185" y="276" type="curve" smooth="yes"/>
      <point x="185" y="396"/>
      <point x="211" y="416"/>
      <point x="231" y="416" type="curve" smooth="yes"/>
      <point x="257" y="416"/>
      <point x="261" y="389"/>
      <point x="261" y="343" type="curve" smooth="yes"/>
      <point x="261" y="207" type="line" smooth="yes"/>
      <point x="262" y="84"/>
      <point x="263" y="41"/>
      <point x="257" y="-3" type="curve" smooth="yes"/>
      <point x="252" y="-43"/>
      <point x="233" y="-68"/>
      <point x="168" y="-68" type="curve"/>
    </contour>
  </outline>
</glyph>
<glyph name="OE" format="2">
  <advance width="674"/>
  <unicode hex="0152"/>
  <outline>
    <contour>
      <point x="238" y="-5" type="curve" smooth="yes"/>
      <point x="306" y="-5"/>
      <point x="329" y="0"/>
      <point x="389" y="0" type="curve" smooth="yes"/>
      <point x="634" y="0" type="line"/>
      <point x="633" y="95" type="line"/>
      <point x="442" y="99" type="line"/>
      <point x="441" y="181" type="line"/>
      <point x="629" y="184" type="line"/>
      <point x="631" y="293" type="line"/>
      <point x="440" y="295" type="line"/>
      <point x="440" y="341" type="line" smooth="yes"/>
      <point x="440" y="408"/>
      <point x="441" y="514"/>
      <point x="442" y="591" type="curve"/>
      <point x="622" y="592" type="line"/>
      <point x="622" y="693" type="line"/>
      <point x="407" y="693" type="line" smooth="yes"/>
      <point x="339" y="693"/>
      <point x="320" y="706"/>
      <point x="250" y="706" type="curve" smooth="yes"/>
      <point x="89" y="706"/>
      <point x="51" y="561"/>
      <point x="51" y="357" type="curve" smooth="yes"/>
      <point x="51" y="148"/>
      <point x="68" y="-5"/>
    </contour>
    <contour>
      <point x="249" y="111" type="curve" smooth="yes"/>
      <point x="193" y="111"/>
      <point x="199" y="212"/>
      <point x="199" y="346" type="curve" smooth="yes"/>
      <point x="199" y="472"/>
      <point x="193" y="591"/>
      <point x="253" y="591" type="curve" smooth="yes"/>
      <point x="265" y="591"/>
      <point x="279" y="589"/>
      <point x="296" y="584" type="curve"/>
      <point x="298" y="517"/>
      <point x="301" y="439"/>
      <point x="301" y="342" type="curve" smooth="yes"/>
      <point x="301" y="247"/>
      <point x="300" y="181"/>
      <point x="299" y="120" type="curve"/>
      <point x="279" y="114"/>
      <point x="263" y="111"/>
    </contour>
  </outline>
</glyph>
